<svg xmlns="http://www.w3.org/2000/svg" viewBox="0 0 500 500"><g id="freepik--Floor--inject-345"><path id="freepik--floor--inject-345" d="M112.62,301.42c-72,41.54-72,108.9,0,150.45s188.63,41.55,260.59,0,72-108.91,0-150.45S184.58,259.87,112.62,301.42Z" style="fill:#f5f5f5"></path></g><g id="freepik--Shadows--inject-345"><ellipse id="freepik--Shadow--inject-345" cx="242.92" cy="407.62" rx="82.9" ry="47.86" style="fill:#e0e0e0"></ellipse><polygon id="freepik--shadow--inject-345" points="141.19 382.59 110.16 400.51 31.97 355.37 63 337.46 141.19 382.59" style="fill:#e0e0e0"></polygon><polygon id="freepik--shadow--inject-345" points="173.19 368.97 142.15 386.88 63.97 341.75 95 323.83 173.19 368.97" style="fill:#e0e0e0"></polygon><path id="freepik--shadow--inject-345" d="M395.51,370.23c13.51,7.79,13.51,20.44,0,28.24s-35.4,7.79-48.91,0-13.51-20.45,0-28.24S382,362.43,395.51,370.23Z" style="fill:#e0e0e0"></path></g><g id="freepik--Books--inject-345"><g id="freepik--Book--inject-345"><path d="M157.48,257.69v2.66s-1-.93-1.09-1.6S157.48,257.69,157.48,257.69Z"></path><path d="M155.43,257.05a2.79,2.79,0,0,0,2.06,3.55c2.9.92,4.72,0,5.15.82s-13.76,9-13.76,9l2.7-11.75Z" style="fill:#FFA500"></path><path d="M155.43,257.05a2.79,2.79,0,0,0,2.06,3.55c2.9.92,4.72,0,5.15.82s-13.76,9-13.76,9l2.7-11.75Z" style="opacity:0.30000000000000004"></path><path d="M150.08,366.93v.17l-1.42-.82L93.05,334.19l.08-108.64c0-1.69.93-2.53,2.07-1.86l2.07,1.2,56.94,32.86-.05.49Z" style="fill:#FFA500"></path><path d="M150.08,366.93v.17l-1.42-.82L93.05,334.19l.08-108.64c0-1.69.93-2.53,2.07-1.86l2.07,1.2,56.94,32.86-.05.49Z" style="opacity:0.2"></path><path d="M141.81,273.68l-3-3.37,15.29-8.82c2.3,1.74,4.07,2.67,6.14,1.8Z" style="fill:#455a64"></path><path d="M153.33,259.68,96.94,227.12a3.94,3.94,0,0,0-3.54,0l-15.07,8.71,57.18,32.72a5.25,5.25,0,0,1,4.16.72c1.68,1.36,1.58-.36,1.58-.36l12.86-7.42C153.06,260.08,153.33,259.68,153.33,259.68Z" style="fill:#f5f5f5"></path><path d="M140.71,273c-.59-.34-.84-.73-.56-.89l.48-.27c.53-.31,0-1.1-1.12-1.77s-2.51-1-3-.65l-.48.27c-.28.16-1.28-.17-2.25-.73l.35,105.75,1.42.81a1.37,1.37,0,0,0,.83-.07l.48-.28c.53-.31,1.89,0,3,.64s1.65,1.46,1.12,1.77l-.48.28c-.28.15,0,.54.55.88Z" style="fill:#FFA500"></path><path d="M140.71,273c-.59-.34-.84-.73-.56-.89l.48-.27c.53-.31,0-1.1-1.12-1.77s-2.51-1-3-.65l-.48.27c-.28.16-1.28-.17-2.25-.73l.35,105.75,1.42.81a1.37,1.37,0,0,0,.83-.07l.48-.28c.53-.31,1.89,0,3,.64s1.65,1.46,1.12,1.77l-.48.28c-.28.15,0,.54.55.88Z" style="opacity:0.4"></path><path d="M135.51,375.34v.16l-1.42-.81-60.9-35.16V237.06c0-1.7.93-2.53,2.08-1.87l2.07,1.2,58.16,32.16Z" style="fill:#FFA500"></path><path d="M135.51,375.34v.16l-1.42-.81-60.9-35.16V237.06c0-1.7.93-2.53,2.08-1.87l2.07,1.2,58.16,32.16Z" style="opacity:0.2"></path><path d="M140,378.12V272.26l3.78,1.52V379.3a3.6,3.6,0,0,1-2.09-.2Z" style="fill:#FFA500"></path><path d="M140,378.12V272.26l3.78,1.52V379.3a3.6,3.6,0,0,1-2.09-.2Z" style="opacity:0.2"></path><path d="M164.17,367.14a1.5,1.5,0,0,1,0,.2.35.35,0,0,1,0,.14,1.69,1.69,0,0,1-.12.28.61.61,0,0,1-.07.14,2.43,2.43,0,0,1-.33.46,3.57,3.57,0,0,1-.42.46c-.17.16-.34.31-.53.46a2.18,2.18,0,0,1-.34.26l-.28.19c-.21.15-.43.29-.67.43l-13.12,7.57a12.29,12.29,0,0,1-4.42,1.57V273.78l20.36-12.19V367.14Z" style="fill:#FFA500"></path><path d="M143.82,288.43v12.72c8.14-2.76,15.12-6.51,20.36-11.75V276.68C158.94,281.92,152,285.67,143.82,288.43Z" style="fill:#FFA500"></path><path d="M143.82,288.43v12.72c8.14-2.76,15.12-6.51,20.36-11.75V276.68C158.94,281.92,152,285.67,143.82,288.43Z" style="fill:#fff;opacity:0.4"></path><path d="M143.82,305.87v4.74c8.14-2.76,15.12-6.51,20.36-11.75v-4.75C158.94,299.35,152,303.11,143.82,305.87Z" style="fill:#FFA500"></path><path d="M143.82,305.87v4.74c8.14-2.76,15.12-6.51,20.36-11.75v-4.75C158.94,299.35,152,303.11,143.82,305.87Z" style="fill:#fff;opacity:0.4"></path><path d="M148.25,272.21l-1-1.77a9.23,9.23,0,0,1-4.36,1.37,2.81,2.81,0,0,0-.36-1.73,5.36,5.36,0,0,0-2-1.8,7.74,7.74,0,0,0-3-1l-.22,0a3.37,3.37,0,0,0-1.82.35l-54-31.19-1.84-1L77.32,234a1.23,1.23,0,0,0-1.27-.1L74,235.11a1.27,1.27,0,0,1,1.3.08h0l6.19,3.59,52.23,30.15c1,.56,2,.9,2.26.74l.48-.28a1.74,1.74,0,0,1,1.08-.07,6,6,0,0,1,2,.72c1.15.66,1.65,1.46,1.11,1.76l-.47.28c-.28.16,0,.55.55.88l1,.59C142.88,274.23,145.8,273.62,148.25,272.21Z" style="fill:#FFA500"></path><path d="M148.25,272.21l-1-1.77a9.23,9.23,0,0,1-4.36,1.37,2.81,2.81,0,0,0-.36-1.73,5.36,5.36,0,0,0-2-1.8,7.74,7.74,0,0,0-3-1l-.22,0a3.37,3.37,0,0,0-1.82.35l-54-31.19-1.84-1L77.32,234a1.23,1.23,0,0,0-1.27-.1L74,235.11a1.27,1.27,0,0,1,1.3.08h0l6.19,3.59,52.23,30.15c1,.56,2,.9,2.26.74l.48-.28a1.74,1.74,0,0,1,1.08-.07,6,6,0,0,1,2,.72c1.15.66,1.65,1.46,1.11,1.76l-.47.28c-.28.16,0,.55.55.88l1,.59C142.88,274.23,145.8,273.62,148.25,272.21Z" style="opacity:0.30000000000000004"></path><path d="M147.22,270.44l13.12-7.58c.19-.1.37-.22.54-.33l.42-.3,0,0c-1.51.66-3.54,0-4.88-.75a5.13,5.13,0,0,1-1.92-1.77,2.72,2.72,0,0,1-.33-1.92l-.18-.11-.37-.21-52.23-30.15-3-1.73-.86-.49L95,223.6a1.22,1.22,0,0,0-1.13,0l.57-.32,1.5-.87a1.16,1.16,0,0,1,1.06,0s0,0,0,0l.93.53.59.34,1,.58a6.81,6.81,0,0,1,.62.36c.16.09.32.17.44.25l.78.44,41.48,24,13.24,7.65c.95.53,1.51,1.1,1.28,1.29l-.08.06-.46.26c-.58.34-.11,1.14,1,1.8a2.79,2.79,0,0,0,2.62.38l.57-.33a.93.93,0,0,1,.83-.12l.3.18.65.37.82.47a.83.83,0,0,1,.43.94.21.21,0,0,1,0,.13.77.77,0,0,1-.12.28h0a.58.58,0,0,1-.05.14,2.43,2.43,0,0,1-.33.46,5.84,5.84,0,0,1-.42.46l-.54.46a3,3,0,0,1-.34.25l-.27.2c-.21.14-.44.29-.68.42l-13.11,7.58Z" style="fill:#FFA500"></path><path d="M147.22,270.44l13.12-7.58c.19-.1.37-.22.54-.33l.42-.3,0,0c-1.51.66-3.54,0-4.88-.75a5.13,5.13,0,0,1-1.92-1.77,2.72,2.72,0,0,1-.33-1.92l-.18-.11-.37-.21-52.23-30.15-3-1.73-.86-.49L95,223.6a1.22,1.22,0,0,0-1.13,0l.57-.32,1.5-.87a1.16,1.16,0,0,1,1.06,0s0,0,0,0l.93.53.59.34,1,.58a6.81,6.81,0,0,1,.62.36c.16.09.32.17.44.25l.78.44,41.48,24,13.24,7.65c.95.53,1.51,1.1,1.28,1.29l-.08.06-.46.26c-.58.34-.11,1.14,1,1.8a2.79,2.79,0,0,0,2.62.38l.57-.33a.93.93,0,0,1,.83-.12l.3.18.65.37.82.47a.83.83,0,0,1,.43.94.21.21,0,0,1,0,.13.77.77,0,0,1-.12.28h0a.58.58,0,0,1-.05.14,2.43,2.43,0,0,1-.33.46,5.84,5.84,0,0,1-.42.46l-.54.46a3,3,0,0,1-.34.25l-.27.2c-.21.14-.44.29-.68.42l-13.11,7.58Z" style="opacity:0.30000000000000004"></path></g><g id="freepik--book--inject-345"><path d="M124.31,272.81v2.65s-1-.93-1.08-1.6S124.31,272.81,124.31,272.81Z"></path><path d="M122.26,272.16a2.79,2.79,0,0,0,2,3.56c2.9.91,4.72,0,5.16.81s-13.76,9-13.76,9l2.69-11.75Z" style="fill:#FFA500"></path><path d="M122.26,272.16a2.79,2.79,0,0,0,2,3.56c2.9.91,4.72,0,5.16.81s-13.76,9-13.76,9l2.69-11.75Z" style="opacity:0.30000000000000004"></path><path d="M116.9,382v.17l-1.42-.82L59.87,349.31,60,240.66c0-1.69.93-2.53,2.08-1.86L64.1,240,121,272.86l-.06.49Z" style="fill:#FFA500"></path><path d="M116.9,382v.17l-1.42-.82L59.87,349.31,60,240.66c0-1.69.93-2.53,2.08-1.86L64.1,240,121,272.86l-.06.49Z" style="opacity:0.2"></path><path d="M108.63,288.79l-3-3.37,15.29-8.82c2.31,1.74,4.08,2.67,6.14,1.8Z" style="fill:#455a64"></path><path d="M120.16,274.79,63.77,242.23a4,4,0,0,0-3.55,0l-15.07,8.71,57.19,32.72a5.23,5.23,0,0,1,4.15.72c1.68,1.36,1.59-.36,1.59-.36l12.85-7.42C119.88,275.19,120.16,274.79,120.16,274.79Z" style="fill:#f5f5f5"></path><path d="M107.53,288.09c-.58-.34-.83-.73-.55-.89l.47-.27c.54-.31,0-1.1-1.11-1.77s-2.51-1-3-.65l-.48.27c-.28.16-1.28-.16-2.26-.73l.35,105.75,1.43.82a1.3,1.3,0,0,0,.83-.08l.48-.28c.53-.3,1.89,0,3,.64s1.64,1.46,1.11,1.77l-.48.28c-.27.16,0,.54.56.88Z" style="fill:#FFA500"></path><path d="M107.53,288.09c-.58-.34-.83-.73-.55-.89l.47-.27c.54-.31,0-1.1-1.11-1.77s-2.51-1-3-.65l-.48.27c-.28.16-1.28-.16-2.26-.73l.35,105.75,1.43.82a1.3,1.3,0,0,0,.83-.08l.48-.28c.53-.3,1.89,0,3,.64s1.64,1.46,1.11,1.77l-.48.28c-.27.16,0,.54.56.88Z" style="fill:#fff;opacity:0.25"></path><path d="M102.34,390.45v.17l-1.42-.82L40,354.64V252.17c0-1.7.93-2.53,2.07-1.87l2.07,1.2,58.17,32.16Z" style="fill:#FFA500"></path><path d="M102.34,390.45v.17l-1.42-.82L40,354.64V252.17c0-1.7.93-2.53,2.07-1.87l2.07,1.2,58.17,32.16Z" style="fill:#fff;opacity:0.4"></path><path d="M106.87,393.23V287.37l3.78,1.53V394.41a3.58,3.58,0,0,1-2.09-.2Z" style="fill:#FFA500"></path><path d="M106.87,393.23V287.37l3.78,1.53V394.41a3.58,3.58,0,0,1-2.09-.2Z" style="fill:#fff;opacity:0.4"></path><path d="M131,382.25a1.38,1.38,0,0,1,0,.2.23.23,0,0,1,0,.14,1.39,1.39,0,0,1-.12.28c0,.06-.05.09-.07.15a3.29,3.29,0,0,1-.33.46,5.76,5.76,0,0,1-.42.45,6.2,6.2,0,0,1-.54.46,2.1,2.1,0,0,1-.33.26l-.28.19c-.21.15-.44.29-.68.43l-13.11,7.57a12.34,12.34,0,0,1-4.43,1.57V288.9L131,276.7V382.25Z" style="fill:#FFA500"></path><g style="opacity:0.7000000000000001"><path d="M131,382.25a1.38,1.38,0,0,1,0,.2.23.23,0,0,1,0,.14,1.39,1.39,0,0,1-.12.28c0,.06-.05.09-.07.15a3.29,3.29,0,0,1-.33.46,5.76,5.76,0,0,1-.42.45,6.2,6.2,0,0,1-.54.46,2.1,2.1,0,0,1-.33.26l-.28.19c-.21.15-.44.29-.68.43l-13.11,7.57a12.34,12.34,0,0,1-4.43,1.57V288.9L131,276.7V382.25Z" style="fill:#fff"></path></g><path d="M110.64,297.64v12.72c8.14-2.76,15.12-6.51,20.36-11.75V285.89C125.76,291.13,118.78,294.88,110.64,297.64Z" style="fill:#fafafa"></path><path d="M110.64,368.5v12.72c8.14-2.76,15.12-6.51,20.36-11.75V356.75C125.76,362,118.78,365.74,110.64,368.5Z" style="fill:#fafafa"></path><path d="M115.07,287.32l-1-1.77a9.29,9.29,0,0,1-4.37,1.37,2.68,2.68,0,0,0-.36-1.73,5.34,5.34,0,0,0-2-1.8,7.74,7.74,0,0,0-3-1l-.22,0a3.35,3.35,0,0,0-1.82.35l-54-31.18-1.84-1.06-2.34-1.35a1.26,1.26,0,0,0-1.27-.1l-2.07,1.2a1.26,1.26,0,0,1,1.29.08l0,0,6.19,3.58,52.23,30.15c1,.56,2,.9,2.26.74l.48-.27a1.61,1.61,0,0,1,1.08-.07,5.77,5.77,0,0,1,2,.71c1.15.67,1.64,1.46,1.11,1.76l-.48.28c-.27.16,0,.55.56.88l1,.6C109.71,289.34,112.63,288.73,115.07,287.32Z" style="fill:#FFA500"></path><path d="M115.07,287.32l-1-1.77a9.29,9.29,0,0,1-4.37,1.37,2.68,2.68,0,0,0-.36-1.73,5.34,5.34,0,0,0-2-1.8,7.74,7.74,0,0,0-3-1l-.22,0a3.35,3.35,0,0,0-1.82.35l-54-31.18-1.84-1.06-2.34-1.35a1.26,1.26,0,0,0-1.27-.1l-2.07,1.2a1.26,1.26,0,0,1,1.29.08l0,0,6.19,3.58,52.23,30.15c1,.56,2,.9,2.26.74l.48-.27a1.61,1.61,0,0,1,1.08-.07,5.77,5.77,0,0,1,2,.71c1.15.67,1.64,1.46,1.11,1.76l-.48.28c-.27.16,0,.55.56.88l1,.6C109.71,289.34,112.63,288.73,115.07,287.32Z" style="fill:#fff;opacity:0.6000000000000001"></path><path d="M114.05,285.55,127.17,278c.18-.1.36-.22.53-.33l.42-.3,0,0c-1.5.66-3.53,0-4.87-.75a5.06,5.06,0,0,1-1.92-1.77,2.72,2.72,0,0,1-.33-1.92l-.19-.11-.36-.2L68.25,242.39l-3-1.73-.86-.49-2.53-1.46a1.21,1.21,0,0,0-1.14,0l.57-.33,1.51-.87a1.16,1.16,0,0,1,1.06,0h0c.3.17.61.36.94.53l.58.34,1,.58c.23.12.43.24.62.36l.44.25.77.44,41.48,24L123,271.63c1,.54,1.5,1.1,1.28,1.29l-.08.06-.46.27c-.58.33-.11,1.13,1,1.79a2.78,2.78,0,0,0,2.63.38l.57-.33a.92.92,0,0,1,.82-.12,2.68,2.68,0,0,1,.31.18l.65.37.81.47a.82.82,0,0,1,.44.94.31.31,0,0,1,0,.13,1.48,1.48,0,0,1-.12.29h0a.35.35,0,0,1-.06.14,2.91,2.91,0,0,1-.32.46,4.6,4.6,0,0,1-.43.46l-.53.46a3,3,0,0,1-.34.25l-.28.2a6.34,6.34,0,0,1-.67.42l-13.12,7.58Z" style="fill:#FFA500"></path><path d="M114.05,285.55,127.17,278c.18-.1.36-.22.53-.33l.42-.3,0,0c-1.5.66-3.53,0-4.87-.75a5.06,5.06,0,0,1-1.92-1.77,2.72,2.72,0,0,1-.33-1.92l-.19-.11-.36-.2L68.25,242.39l-3-1.73-.86-.49-2.53-1.46a1.21,1.21,0,0,0-1.14,0l.57-.33,1.51-.87a1.16,1.16,0,0,1,1.06,0h0c.3.17.61.36.94.53l.58.34,1,.58c.23.12.43.24.62.36l.44.25.77.44,41.48,24L123,271.63c1,.54,1.5,1.1,1.28,1.29l-.08.06-.46.27c-.58.33-.11,1.13,1,1.79a2.78,2.78,0,0,0,2.63.38l.57-.33a.92.92,0,0,1,.82-.12,2.68,2.68,0,0,1,.31.18l.65.37.81.47a.82.82,0,0,1,.44.94.31.31,0,0,1,0,.13,1.48,1.48,0,0,1-.12.29h0a.35.35,0,0,1-.06.14,2.91,2.91,0,0,1-.32.46,4.6,4.6,0,0,1-.43.46l-.53.46a3,3,0,0,1-.34.25l-.28.2a6.34,6.34,0,0,1-.67.42l-13.12,7.58Z" style="fill:#fff;opacity:0.6000000000000001"></path></g></g><g id="freepik--speech-bubble--inject-345"><g id="freepik--speech-bubble--inject-345"><g id="freepik--speech-bubble--inject-345"><path d="M74.24,199.84l1-3.14c.54-2.54-9.81,3.44-10.36,6l3.34,9a1.44,1.44,0,0,0,.56.65c.73.46,3.43,2,3.67,2.12a1.44,1.44,0,0,0,2.13-.79l4.32-14.83C79.17,197.56,76.79,198.38,74.24,199.84Z" style="fill:#FFA500"></path><path d="M74.24,199.84l1-3.14c.54-2.54-9.81,3.44-10.36,6l3.34,9a1.44,1.44,0,0,0,.56.65c.73.46,3.43,2,3.67,2.12a1.44,1.44,0,0,0,2.13-.79l4.32-14.83C79.17,197.56,76.79,198.38,74.24,199.84Z" style="fill:#fff;opacity:0.2"></path><path d="M88.31,139.45,48.93,162.17a2.94,2.94,0,0,0-1.33,2.3v46.66a2.92,2.92,0,0,0,1.34,2.3l2.44,1.37a3,3,0,0,0,2.67,0l39.38-22.72a2.94,2.94,0,0,0,1.33-2.3V143.11a2.89,2.89,0,0,0-1.34-2.29L91,139.44A3,3,0,0,0,88.31,139.45Z" style="fill:#FFA500"></path><path d="M88.31,139.45,48.93,162.17a2.94,2.94,0,0,0-1.33,2.3v46.66a2.92,2.92,0,0,0,1.34,2.3l2.44,1.37a3,3,0,0,0,2.67,0l39.38-22.72a2.94,2.94,0,0,0,1.33-2.3V143.11a2.89,2.89,0,0,0-1.34-2.29L91,139.44A3,3,0,0,0,88.31,139.45Z" style="fill:#fff;opacity:0.2"></path><path d="M93.43,142.34,54.05,165.06a2.92,2.92,0,0,0-1.34,2.3V214c0,.85.6,1.2,1.34.77l15.07-8.69,2.76,7.68a1.44,1.44,0,0,0,2.7-.14l3.68-12.82,15.17-8.75a2.94,2.94,0,0,0,1.33-2.3V143.11C94.76,142.26,94.16,141.92,93.43,142.34Z" style="fill:#FFA500"></path><path d="M93.43,142.34,54.05,165.06a2.92,2.92,0,0,0-1.34,2.3V214c0,.85.6,1.2,1.34.77l15.07-8.69,2.76,7.68a1.44,1.44,0,0,0,2.7-.14l3.68-12.82,15.17-8.75a2.94,2.94,0,0,0,1.33-2.3V143.11C94.76,142.26,94.16,141.92,93.43,142.34Z" style="fill:#fff;opacity:0.4"></path><path d="M94.74,142.87c-.11-.67-.65-.91-1.32-.53L54.05,165.06a2.64,2.64,0,0,0-.94,1L48,163.11a2.6,2.6,0,0,1,.92-.94l39.38-22.72a2.93,2.93,0,0,1,2.66,0l2.44,1.37A2.92,2.92,0,0,1,94.74,142.87Z" style="fill:#fff;opacity:0.7000000000000001"></path></g><path d="M70.29,167.73c.3-.17.53-.19.68-.07a1.67,1.67,0,0,1,.4.73l6.92,19.82a.78.78,0,0,1,0,.24,1.84,1.84,0,0,1-.23.85,1.42,1.42,0,0,1-.54.61l-2,1.18c-.38.21-.64.26-.79.13a.89.89,0,0,1-.31-.44L73.2,187.3l-8.93,5.16-1.21,4.88a4.17,4.17,0,0,1-.31.8,2,2,0,0,1-.79.78l-2,1.17a.45.45,0,0,1-.54,0,.68.68,0,0,1-.22-.58,1.2,1.2,0,0,1,0-.28l6.92-27.81a4.7,4.7,0,0,1,.4-1.19,1.64,1.64,0,0,1,.67-.71Zm1.56,15.65-3.11-8.95L65.63,187Z" style="fill:#fff"></path><path d="M83.37,171.2v5.07a1.3,1.3,0,0,1-.17.63,1.1,1.1,0,0,1-.39.45l-1.59.92a.33.33,0,0,1-.4,0,.51.51,0,0,1-.17-.43v-5.07l-3.74,2.16a.33.33,0,0,1-.4,0,.49.49,0,0,1-.16-.43v-1.84a1.4,1.4,0,0,1,.16-.63,1.12,1.12,0,0,1,.4-.45l3.74-2.16v-5a1.35,1.35,0,0,1,.17-.62,1,1,0,0,1,.4-.45l1.59-.92a.33.33,0,0,1,.39,0,.5.5,0,0,1,.17.44v5l3.72-2.15a.33.33,0,0,1,.4,0,.51.51,0,0,1,.17.43V168a1.42,1.42,0,0,1-.17.63,1,1,0,0,1-.4.45Z" style="fill:#fff"></path></g></g><g id="freepik--Globe--inject-345"><g id="freepik--globe--inject-345"><path d="M390.56,386a8.19,8.19,0,0,0,.56-.93,2.1,2.1,0,0,0,.13-.26,8.41,8.41,0,0,0,.35-.82l.09-.26a7.53,7.53,0,0,0,.26-1v0a6.32,6.32,0,0,0,.09-1.06c0-.11,0-.21,0-.32a6.32,6.32,0,0,0-.06-.74l-.06-.38c-.05-.24-.11-.47-.18-.71s-.06-.23-.1-.35a10.47,10.47,0,0,0-.42-1c0-.1-.12-.2-.18-.31s-.26-.46-.42-.69-.19-.27-.29-.41l-.22-.3-.35-.41-.2-.21a24.49,24.49,0,0,0-37,0l-.16.18-.37.43a2.35,2.35,0,0,0-.23.32l-.28.38c-.16.24-.31.49-.45.74l-.15.26a6.74,6.74,0,0,0-.42,1c0,.1-.07.21-.1.31-.07.25-.14.5-.19.76s0,.23-.05.34a7.23,7.23,0,0,0-.07.79c0,.09,0,.18,0,.28a7.29,7.29,0,0,0,.36,2.15,2,2,0,0,0,.08.22,7.19,7.19,0,0,0,.37.86,2.4,2.4,0,0,0,.11.23,9.1,9.1,0,0,0,.59,1l0,0a10.17,10.17,0,0,0,.84,1l.07.07c.28.3.58.6.91.89l.23.2q.45.38,1,.75l.24.18c.43.29.87.59,1.36.86,8.18,4.73,21.47,4.73,29.65,0a14.66,14.66,0,0,0,1.34-.86,2.83,2.83,0,0,0,.28-.2,11.27,11.27,0,0,0,.92-.72l.26-.22c.31-.28.6-.57.87-.86l.1-.1a9.85,9.85,0,0,0,.83-1Z" style="fill:#455a64"></path><path d="M371.07,349.62a3.32,3.32,0,0,0-1.6.38,1.17,1.17,0,0,0-.65.82h0c-.41,9.61-1.16,14.26-4.23,19.36a3.22,3.22,0,0,0,1.9,2.65,9.41,9.41,0,0,0,4.59,1.1h0a9.39,9.39,0,0,0,4.59-1.1,3.23,3.23,0,0,0,1.91-2.65c-3.07-5.1-3.82-9.75-4.23-19.36h0a1.17,1.17,0,0,0-.65-.82A3.33,3.33,0,0,0,371.07,349.62Z" style="fill:#37474f"></path><g style="opacity:0.15"><path d="M373.38,351.8c-1.54.06-3.08.06-4.62,0-.14,3-.31,5.95-.59,8.72q2.88-.06,5.78-.34C373.68,357.51,373.52,354.69,373.38,351.8Z"></path></g><g style="opacity:0.15"><path d="M359.35,387.23c-6.82-4.27-6.34-11.87-1.82-15.76a24.46,24.46,0,0,0-4.95,4.35l-.16.18-.37.43a2.35,2.35,0,0,0-.23.32l-.28.38c-.16.24-.31.49-.45.74l-.15.26a6.74,6.74,0,0,0-.42,1c0,.1-.07.21-.1.31-.07.25-.14.5-.19.76s0,.23-.05.34a7.23,7.23,0,0,0-.07.79c0,.09,0,.18,0,.28a7.29,7.29,0,0,0,.36,2.15,2,2,0,0,0,.08.22,7.19,7.19,0,0,0,.37.86,2.4,2.4,0,0,0,.11.23,9.1,9.1,0,0,0,.59,1l0,0a10.17,10.17,0,0,0,.84,1l.07.07c.28.3.58.6.91.89l.23.2q.45.38,1,.75l.24.18c.43.29.87.59,1.36.86,8.18,4.73,21.47,4.73,29.65,0a14.66,14.66,0,0,0,1.34-.86,2.83,2.83,0,0,0,.28-.2,11.27,11.27,0,0,0,.92-.72l.26-.22c.31-.28.6-.57.87-.86l.1-.1C381.15,393.19,366.17,391.5,359.35,387.23Z"></path></g><path d="M324,325.47a66.54,66.54,0,0,0,94.1-94.1l4.29-4.29c29.92,29.92,32.76,75.59,2.84,105.52s-75.57,27-105.49-2.88Z" style="fill:#37474f"></path><path d="M426.94,232l-4.34,4.34a64.47,64.47,0,0,0-4.53-5l4.29-4.29C424,228.68,425.49,230.34,426.94,232Z" style="fill:#263238"></path><path d="M324,325.47q2.4,2.38,5,4.49l-4.31,4.31c-1.68-1.44-3.32-2.95-4.91-4.55Z" style="fill:#263238"></path><path d="M443.48,284.94c-1.92,15.73-7.59,34-22.83,47.39-13,11.41-32.86,23.52-63.44,19a70.19,70.19,0,0,0,68-18.77c29-29,27.22-72.89-.24-102.81C426.08,231.14,446.94,256.57,443.48,284.94Z" style="fill:#455a64"></path><path d="M317.34,335.84a3.78,3.78,0,0,1-2.67-6.45L422,222.1a3.77,3.77,0,1,1,5.33,5.34L320,334.73A3.77,3.77,0,0,1,317.34,335.84Z" style="fill:#37474f"></path><path d="M422,222.1,314.67,329.39a3.77,3.77,0,0,0-.86,4,3.73,3.73,0,0,0,1.14.19,3.77,3.77,0,0,0,2.67-1.1L425,225.18a3.77,3.77,0,0,0,.86-4A3.77,3.77,0,0,0,422,222.1Z" style="fill:#455a64"></path><path d="M313.28,256.62a61.65,61.65,0,1,0,42.66-38A61.67,61.67,0,0,0,313.28,256.62Z" style="fill:#FFA500"></path><path d="M371.78,340.09a61.67,61.67,0,1,0-51-25.82A61.67,61.67,0,0,0,371.78,340.09Z" style="fill:#fff;opacity:0.5"></path><path d="M401.1,234.64c-2.11-1.87-5.45-3.58-4.6-.63s2,4.2.59,5.74-3.87,2.24-4.38,3.78-.85,3.55.28,3.91,5.51-.07,6.64,1.17,5.17,5.29,7,4.47,2.41-.15,4.82-.75,4.22-2.7,3-3.83-1.86-.76-3.78-2.8-1.63-4.26-4-5.74S402.65,236,401.1,234.64Z" style="fill:#455a64"></path><path d="M392.87,228.1c-3.51-.9-10.22-3.56-11.93-6.31-.85-1.37-1.79-3.07-3-4.67A61.82,61.82,0,0,0,336,227.56a20.67,20.67,0,0,0-.87,5.06c-.14,3.77,1.48,5.74,3.36,8.27s0,3.16-.13,5.53-.35,3.59.27,5.49-2.35,1.66-4.21,2.67-2.75,1.7-4.44,5.65-.87,9.18-1,11.16-2.92,1.93-4.76,4.71-7.85,9.11-8.84,14.86.78,6.6,2.83,4,3.38-5.64,6.47-6.18,5.51,2.58,9.56.11,4.52-1.72,7.11-1.44,2.8-1.33,6.61-2.59,6.48-3.32,5.32-6.34-2.67-4.2-2.19-8.4a31.88,31.88,0,0,0-1.47-13.1c-1.32-3.86-7.13-6-8.36-8s.64-6.18,1.88-7.32.28-2.59-1.2-3.4-1.44-2.19-.3-4.11,5.52-1.65,7.7.07,2.41,3.65.41,6.64a6.93,6.93,0,0,0,0,8.09c1.45,2.19,2.06-.84,2-3.4s.91-3.85,4.61-5.87,6,.46,10.29-.55,2.81,1.34,4.42,3.31,2.26.72,4.5-.34,3.26,2.56,6.46,3,1.12-5.46,3.09-7.08,3.76.15,5.28-3.58,3.05-2.54,4.74-2.9S396.39,229,392.87,228.1Zm-9,4.27c-1.88.82-2.16.07-4.55.65a7.68,7.68,0,0,1-5.86-.82c-1.13-.81-1.15-4.15-.21-5.35s2.86,0,4.9,1.39a13.74,13.74,0,0,0,7.17,2.29C387.59,230.7,385.76,231.56,383.89,232.37Z" style="fill:#455a64"></path><path d="M419.46,316.52l-.11.14a4.33,4.33,0,0,0-3.44.14c-3.35,1.58-2.53.3-6.53-.21s-4.32,1.71-5.77,3.55-6.06,1.23-8,.57-6.17,2.72-7.47,5-4.31,1-7.31,1.47-6.48,2.65-8.68,3.21a5.83,5.83,0,0,1-6-1.93c-1.4-1.8-.42-6,.87-9.17a18.84,18.84,0,0,1,6.3-8.24c2.89-2.12,2.42-2,5.51-6.58a8.74,8.74,0,0,0,.14-10.26c-1.2-1.83-4.63-3.28-5.27-5.38s-.17-3.82,2.42-8.46,5.27-3.79,8.63-4.49a19.43,19.43,0,0,1,11.51,1.47,10.48,10.48,0,0,1,5.28,6.26c.86,2.26,0,4.73,1,5.9S405,291,406,292.28s1.19,2.52,2.48,3.34,1.74-1.09,2.23-1.94-.68-1.59-2-2.82-1.32-1.9-1-3.22-1.14-1.24-1.45-2.19-1.68.79-2.31,1.37-.11-1-.11-1-1.33.36-1.21-.25,1.54-1.07,2.36-2.11-.8-2.11-1-3.67a4.55,4.55,0,0,0-2.88-3.49c-1.56-.7-1.52-1.2-3-.63s-4.76-1.1-5.46-2,1.43-2,3.49-2.88,3.08,1,5.36.34,1.24-2,.62-3-.14-2.05,2.48-3.16,3.31.49,3,1.81a4,4,0,0,0,1.44,3.77c1.11,1,1.57,0,3-1.65s3-1.84,5.08-1.1,5.47,2,7.24,2,2.92,2.11,2.93,3.88,1.65,3.94,3.41,6.19a2.34,2.34,0,0,0,1.91.86A61.39,61.39,0,0,1,419.46,316.52Z" style="fill:#455a64"></path><path d="M390.44,331.09c-.93-1.2-1.17-.75-2.62-.47s-3.3.39-4,1.46-1.6,2.26-.22,2.29,1.85-1,3.39-.51S391.84,332.89,390.44,331.09Z" style="fill:#455a64"></path><path d="M325.75,243.77c-24.7,32.57-2.36,49,20.87,35.69s41.25-44.65,32.6-53.14S344.11,219.56,325.75,243.77Z" style="fill:#fff;opacity:0.1"></path><g style="opacity:0.1"><path d="M393.79,305.13c-34.35,19.48-79.38,1.11-84.42-29.51h0c-.05,1.19-.08,2.38-.06,3.59A61.67,61.67,0,1,0,413.65,233.9C421.71,246.25,428.12,285.67,393.79,305.13Z"></path></g></g></g><g id="freepik--Character--inject-345"><g id="freepik--Chartacter--inject-345"><path d="M189.87,332.23c13-22.61,83.27-24.57,99.31-3.57,0,0-1.4-22.12-1.91-58s-2.06-75.38-2.06-75.38H204.4s-4.64,43.65-5.84,66.21S189.87,332.23,189.87,332.23Z" style="fill:#263238"></path><g id="freepik--Bottom--inject-345"><path d="M258,375.09l-2-18.56,21.26,1.39s-.33,10.08-.62,15.79c-.18,3.37,4.37,9.63,4.37,9.63s-10,5.36-15.34,3.48-8.18-8.53-8.1-10S258,375.09,258,375.09Z" style="fill:#c8856a"></path><path d="M309.17,404.1c.33,0,.9,3.45-.9,4.95-2.08,1.73-8.21,4.62-16.38,3.77s-12.62-3.13-15.93-5.63-7.94-6-11.64-6.72c-3.44-.65-7.18-2-8.29-3s-1-5.39-1-5.39Z" style="fill:#263238"></path><path d="M258,375.06a1.31,1.31,0,0,0-1.22,1.05c-.23,1.22-.44,4.76-.95,6.76-.7,2.78-1.11,8.47-.63,10.72s6.1,3.72,9.69,4.93a46.15,46.15,0,0,1,11.68,6.64c3.88,2.89,12,5.83,17.31,5.7,6.28-.15,13.33-2.17,14.91-4.93,2-3.41,3.35-7.36-6-11.24-1.77-.74-8-4.07-10.16-5.27-5.78-3.27-9.85-6.3-12.58-12.21a3.27,3.27,0,0,0-1.37-1.8,3.16,3.16,0,0,0-1.81-.12c-1.55.23-7.74,1.14-9.14,1.79-1.24.58-3,1.26-3,2.76a4.78,4.78,0,0,0,.38,1.52c.12.3.21.71-.07.89s-.63,0-.88-.21a23.24,23.24,0,0,1-2.56-2.78,8.94,8.94,0,0,0-1.5-1.38,15.79,15.79,0,0,1-1.61-.94C257.88,376.42,258,375.76,258,375.06Z" style="fill:#455a64"></path><path d="M276.54,405.16c-1.65-1.23-3.4-2.41-5.15-3.47h0s11.07,6.05,15.46,3.14c2.82-1.87,1.43-4.07,1.35-4.77s9.92-5.88,12.68-6.24h0c.78.39,1.44.7,1.84.87,9.4,3.88,8,7.83,6,11.24-1.58,2.76-6.67,5-14.8,5.11C288.64,411.13,280.42,408.05,276.54,405.16Z" style="fill:#37474f"></path><path d="M287.4,398c5.83,2.07,3.37,3.13,1.75,3.38s-11.46-4.93-17.49-9.23c-6.28-4.49-10.28-9.45-12.61-11.1-.87-.61-1.81-1.37-2.64-2.08.13-1.2.23-2.28.34-2.86a1.31,1.31,0,0,1,1.22-1.05c0,.7-.09,1.36.49,1.88a15.79,15.79,0,0,0,1.61.94,8.94,8.94,0,0,1,1.5,1.38,23.24,23.24,0,0,0,2.56,2.78C269.29,388,281.56,395.93,287.4,398Z" style="fill:#37474f"></path><path d="M288.73,400.58a.56.56,0,0,1-.37-.11.51.51,0,0,1-.09-.75c1.61-1.91,9.29-6.49,13.57-6.12a.53.53,0,0,1,.51.58.55.55,0,0,1-.62.49c-4-.34-11.29,4.2-12.56,5.71A.57.57,0,0,1,288.73,400.58Z" style="fill:#263238"></path><path d="M283.62,397.76a.62.62,0,0,1-.36-.12.5.5,0,0,1-.09-.75c1.6-1.9,9.28-6.48,13.56-6.12a.55.55,0,0,1,.52.58.56.56,0,0,1-.63.49c-4-.33-11.28,4.21-12.56,5.71A.55.55,0,0,1,283.62,397.76Z" style="fill:#263238"></path><path d="M278.52,395.09a.63.63,0,0,1-.37-.12.51.51,0,0,1-.09-.75c1.61-1.91,9.29-6.49,13.57-6.12a.54.54,0,0,1,.51.58.55.55,0,0,1-.62.49c-4-.33-11.29,4.2-12.56,5.71A.62.62,0,0,1,278.52,395.09Z" style="fill:#263238"></path><path d="M273.78,392a.58.58,0,0,1-.36-.12.51.51,0,0,1-.1-.75c1.61-1.91,9.31-6.49,13.57-6.12a.55.55,0,0,1,.52.58.57.57,0,0,1-.63.49c-4-.33-11.29,4.2-12.56,5.71A.62.62,0,0,1,273.78,392Z" style="fill:#263238"></path><path d="M269.14,388.94a.53.53,0,0,1-.36-.11.51.51,0,0,1-.11-.75c2.21-2.7,10.27-6.55,14.54-6.19a.55.55,0,0,1,.52.58.56.56,0,0,1-.62.49c-3.85-.32-11.57,3.38-13.53,5.77A.56.56,0,0,1,269.14,388.94Z" style="fill:#263238"></path><path d="M215.94,385.22l4.86-17.59-21.64-3.35-1,17s-2.3,6.08-1,8.32,15.7,4.78,17,3.32S215.94,385.22,215.94,385.22Z" style="fill:#c8856a"></path><path d="M213.72,423.59c-.7,5.45-1.9,9-4.3,11.89s-6.61,3.37-10.75,1.85-9.37-4.78-10.27-9.69-.46-8.12.81-13.09Z" style="fill:#263238"></path><path d="M198.19,381.31c-1.74-.12-1.4,7.37-2.86,14.62-1.57,7.78-4.44,10.7-5.8,17.06-1.56,7.28-1.33,10.66,1.32,15.54s12.75,10.71,18.27,5c4.49-4.67,5-10.46,5.12-17.92.08-7.72.08-13.16.8-18.92.68-5.52,2.36-10.41.89-11.23-.16.8-.34,1.82-.51,2.61-.14.6-.5,3.58-1.47,3.48a9.87,9.87,0,0,1,.11-2.1,2.35,2.35,0,0,0-.36-1.85,8,8,0,0,0-2.78-1.47c-1.68-.53-4.7-1.2-6.42-1.58-.86-.18-1.72-.34-2.58-.45a7.52,7.52,0,0,0-2.22,0,1.33,1.33,0,0,0-1,.63,1.94,1.94,0,0,0-.14.83,5.5,5.5,0,0,1-.32,1.5c-.07.21-.26.45-.51.36a.47.47,0,0,1-.25-.48c.05-.9.22-1.53.33-2.57,0-.48.18-1.12.22-1.61S198.12,381.77,198.19,381.31Z" style="fill:#455a64"></path><path d="M190.05,410.94c-.23,1-1.7,8,.39,9.57,2.27,1.7,3.92-3.69,3.92-3.69s5.61-.75,13.46,3.47c-.49,1.09.51,5.06,2.77,4.56s3.62-8.51,3.64-8.62c-.12,7.15-.75,12.75-5.11,17.28-5.52,5.73-15.62-.09-18.27-5S188,420.27,189.53,413C189.68,412.27,189.86,411.59,190.05,410.94Z" style="fill:#37474f"></path><path d="M195,417.38c-.21,2.68-3.14,1.36-3-2.44s3-12.48,3.4-19c.63-8.95,1.12-14.74,2.86-14.63l0,.28-.46,3.72a15.89,15.89,0,0,0-.2,1.6c-.39,5.46-.6,16.1-1.45,21A75.26,75.26,0,0,0,195,417.38Z" style="fill:#37474f"></path><path d="M206.89,420.09a77.54,77.54,0,0,0,2.24-9.19c.91-4.88,4-14.63,5.49-19.88a12.22,12.22,0,0,0,.8-3c.16-.74.32-1.67.48-2.44a1.24,1.24,0,0,0,0-.16c1.06.61.63,4.84,0,7s-1.31,4.53-2.06,7.67c-1.89,6.19-2.19,15.5-3.4,19.06S206.16,422.65,206.89,420.09Z" style="fill:#37474f"></path><path d="M208,420.53a1.09,1.09,0,0,1-.23-.09,23.73,23.73,0,0,0-13.25-3.05.72.72,0,0,1-.76-.51.53.53,0,0,1,.5-.64,24.86,24.86,0,0,1,14.17,3.27.55.55,0,0,1,.22.8A.6.6,0,0,1,208,420.53Z" style="fill:#263238"></path><path d="M209.79,414.9a.49.49,0,0,1-.21-.08,29.45,29.45,0,0,0-14.85-3.4.72.72,0,0,1-.74-.54.53.53,0,0,1,.52-.62,30.46,30.46,0,0,1,15.68,3.61.57.57,0,0,1,.26.8A.6.6,0,0,1,209.79,414.9Z" style="fill:#263238"></path><path d="M195.5,405.94a.71.71,0,0,1-.52-.46.52.52,0,0,1,.44-.67c7.91-1.27,15.36,3.28,15.68,3.47a.58.58,0,0,1,.22.81.68.68,0,0,1-.88.12c-.07,0-7.31-4.45-14.67-3.26A.82.82,0,0,1,195.5,405.94Z" style="fill:#263238"></path><path d="M196.27,400.78a.68.68,0,0,1-.51-.44.51.51,0,0,1,.43-.68c8.7-1.55,15.69,3.26,16,3.47a.56.56,0,0,1,.16.81.66.66,0,0,1-.89.07c-.07,0-6.79-4.66-14.9-3.22A.66.66,0,0,1,196.27,400.78Z" style="fill:#263238"></path><path d="M197.17,395a.71.71,0,0,1-.52-.44.52.52,0,0,1,.42-.68c8.17-1.56,15.78,3.43,16.1,3.65a.55.55,0,0,1,.18.81.67.67,0,0,1-.89.08c-.07,0-7.42-4.87-15-3.41A.7.7,0,0,1,197.17,395Z" style="fill:#263238"></path><path d="M206.15,195.47c-4.07,43.14-3,104.9-3,104.9-.35,3.28-2.85,13-5,29.16-1.91,14.37-.52,45.12-.53,46.92,0,0,8.4,6.21,21,3.16,0,0,10.1-34.92,16.57-58.54,5.18-18.89,11-55.32,11-55.32l3.71,31s-.89,12.52-.68,21.14c.24,10,7.28,49.91,7.28,49.91s11.37,6.43,21.3-1.09c0,0,6-58.35,6.53-70.4.95-23.64,2.32-71.66-.54-100.73Z" style="fill:#455a64"></path><path d="M283.83,195.58l-77.68-.11c-.74,7.87-1.31,16.36-1.75,25,2.48,1.85,13.83,8.64,45.87,7.12,22.22-1.05,33-7.59,34.94-8.92C284.94,210.29,284.5,202.41,283.83,195.58Z" style="fill:#37474f"></path><path d="M246.23,265.75l5.38-30.65s11.46-1.5,17.41-6.79c0,0-3.91,7.07-14.73,9.67L249,265.87l1,30.88Z" style="fill:#37474f"></path></g><g id="freepik--Top--inject-345"><g id="freepik--Arm--inject-345"><g id="freepik--arm--inject-345"><path d="M322.55,195c-7.3,2-13.71-7.55-14.76-17.55-.85-8.14.82-18.43,9.67-23.86s12.79,14.91,13.09,21.94S328.44,193.29,322.55,195Z" style="fill:#263238"></path><path d="M352.59,127.74a4.87,4.87,0,0,1,0-.54,13.72,13.72,0,0,1,.88-3.07,3.08,3.08,0,0,0-.41-3c-.67-.69-1.73-.76-2.63-1.11a10.83,10.83,0,0,1-2.36-1.5,22.53,22.53,0,0,0-2.84-1.78,5.48,5.48,0,0,0-2.55-.79c-1.77,0-3.16,1.52-4,3-.43.74-2.57,5.73-3.69,4.08a2.34,2.34,0,0,1-.3-1,22.6,22.6,0,0,0-1.44-6,5.79,5.79,0,0,0-1.59-2.16,1.57,1.57,0,0,0-1-.4,1.31,1.31,0,0,0-1.09,1,4.09,4.09,0,0,0,0,1.56c.3,3.26.06,6.54.09,9.81a31,31,0,0,0,.53,5.85c.35,1.71,1.54,3.61,1.25,5.37a9.9,9.9,0,0,1-2.7,5c-4.59,4.76-10.76,10.84-10.76,10.84s-6.24-5.06-20.18-18.57c-11.32-11-14.91-16.39-25.8-19.48l6.66,37.49s11.4,8.9,29.65,24c6.6,5.48,11.55,8.1,17.62,3a40.08,40.08,0,0,0,9.33-11.68c5.26-10.77,6-12.67,9.59-20.52,2.53-5.57,4.43-8.07,6.57-12.34a11.13,11.13,0,0,0,1.43-5.46C352.74,128.83,352.63,128.28,352.59,127.74Z" style="fill:#c8856a"></path><path d="M336.73,132.23a2,2,0,0,0-.65.9c-.16.32-.31.64-.44,1a7,7,0,0,0-.48,1.9,4.23,4.23,0,0,0,.29,2,8.18,8.18,0,0,0,.54,1,8.23,8.23,0,0,1,.54,1.12c0,.05.07.05.07,0a5.27,5.27,0,0,0-.44-1.86,5,5,0,0,1-.35-2.1,6.36,6.36,0,0,1,.5-2c.12-.29.26-.58.4-.86s.39-.63.26-1C336.94,132.29,336.82,132.18,336.73,132.23Z" style="fill:#af6152"></path><path d="M325.14,145.57,318,152.31s-18.15-17.6-23.63-22.7-9.26-9.47-15.07-12.64a53.05,53.05,0,0,0-8-2.93l6.51,39.42s15.11,12.46,22.92,18.71,13.87,11.26,19.35,10.68,7.74-3.25,11.65-8.64S340.64,157,340.64,157Z" style="fill:#455a64"></path><path d="M318,152.31c-4.47,3.77-6.79,7-7.19,11.94s.27,6.84.27,6.84-2.59-5.08-2.14-9.69a13.71,13.71,0,0,1,7.09-11Z" style="fill:#FFA500"></path><path d="M330.23,140.05c.35,6.45,10.1,10.18,13.84,8.68L340.64,157a16,16,0,0,1-10-2.85,13.24,13.24,0,0,1-5.49-8.56Z" style="fill:#f5f5f5"></path><path d="M271,113.3c5.17,1.78,8.08,1,17.8,9.86,6.35,5.81,13.52,12.77,17.72,16.9a30.69,30.69,0,0,0,6,4.41,5.24,5.24,0,0,1,2.4,3c2.69-.65,5.25,2.85,5.25,2.85l-2.13,2c-2.94,3.62-4.85,8.85-5.27,17.41s.93,15.65,3.45,20c3.41,5.9,8.79,4.57,10.82,1.51-4.44,7.75-11.67,4.16-15.55.79s-35.37-38.75-35.37-38.75Z" style="fill:#37474f"></path><path d="M313.13,149c-3.06,1.73-5.18,4.79-6.59,7.94a25.49,25.49,0,0,0-2.17,10.78,43.09,43.09,0,0,0,.7,6.6c0,.05.07,0,.06,0-.82-7.1.29-15,4.51-20.91a40.09,40.09,0,0,1,3.54-4.27S313.19,148.92,313.13,149Z" style="fill:#263238"></path></g><g id="freepik--Diploma--inject-345"><path d="M332.47,164.51l1.21-32.84-.07-4.59L331.46,91.4l0-.58c0-1.28.81-2.56,2.48-3.56a13.48,13.48,0,0,1,12.2-.17c1.71,1,2.56,2.21,2.58,3.49l-1.14,36.3.06,4.58,2.1,33v.05c0,1.25-.83,2.53-2.48,3.51a13.5,13.5,0,0,1-12.21.17c-1.69-1-2.55-2.22-2.57-3.49v-.18Z" style="fill:#FFA500"></path><path d="M332.47,164.51l1.21-32.84-.07-4.59L331.46,91.4l0-.58c0-1.28.81-2.56,2.48-3.56a13.48,13.48,0,0,1,12.2-.17c1.71,1,2.56,2.21,2.58,3.49l-1.14,36.3.06,4.58,2.1,33v.05c0,1.25-.83,2.53-2.48,3.51a13.5,13.5,0,0,1-12.21.17c-1.69-1-2.55-2.22-2.57-3.49v-.18Z" style="fill:#fff;opacity:0.4"></path><path d="M331.61,89.78a3.12,3.12,0,0,0-.18,1l0,.58,2.15,35.68.07,4.59-1.21,32.84h0v.18c0,1.27.88,2.54,2.57,3.49a13.44,13.44,0,0,0,8.61,1.13l-1-72.34S334,95.85,331.61,89.78Z" style="opacity:0.1"></path><path d="M333.91,87.26c-1.67,1-2.5,2.28-2.48,3.56s.88,2.54,2.58,3.49a13.48,13.48,0,0,0,12.2-.17c1.68-1,2.5-2.29,2.48-3.56s-.88-2.54-2.57-3.49A13.51,13.51,0,0,0,333.91,87.26Z" style="fill:#FFA500"></path><path d="M332.46,165.08v-.57h0l1.21-32.84-.07-4.59L331.46,91.4c.62,5.57,8.7,6.86,8.7,6.86l1,74.27S332.54,171.14,332.46,165.08Z" style="fill:#FFA500"></path><path d="M332.46,165.08v-.57h0l1.21-32.84-.07-4.59L331.46,91.4c.62,5.57,8.7,6.86,8.7,6.86l1,74.27S332.54,171.14,332.46,165.08Z" style="fill:#fff;opacity:0.6000000000000001"></path><path d="M333.91,87.26c-1.67,1-2.5,2.28-2.48,3.56s.88,2.54,2.58,3.49a13.48,13.48,0,0,0,12.2-.17c1.68-1,2.5-2.29,2.48-3.56s-.88-2.54-2.57-3.49A13.51,13.51,0,0,0,333.91,87.26Z" style="fill:#fff;opacity:0.25"></path><path d="M342.18,90.82c3.46-2.37-1-5.13-6.17-4.48h0a9.28,9.28,0,0,0-2.1.92c-1.67,1-2.5,2.28-2.48,3.56s.88,2.54,2.58,3.49a13.37,13.37,0,0,0,8.24,1.19Z" style="fill:#FFA500;opacity:0.5"></path><path d="M343.41,89.08l.08,6.16a8.82,8.82,0,0,1-1.24.26l-.07-4.68A2.56,2.56,0,0,0,343.41,89.08Z" style="fill:#FFA500"></path><path d="M343.41,89.08l.08,6.16a8.82,8.82,0,0,1-1.24.26l-.07-4.68A2.56,2.56,0,0,0,343.41,89.08Z" style="opacity:0.1"></path><path d="M334.91,133c-.34,5.79-3.15,11.12-7.42,16.18a14.31,14.31,0,0,0,4.76-2,16,16,0,0,1,.13,4.28c3.83-5,6.49-10.35,7.4-16.12l-1.11-.58Z" style="fill:#FFA500"></path><path d="M334.58,135.56l1.87.2,2.88,1.75c.18-.74.33-1.48.45-2.24l-1.11-.58L334.91,133A20.3,20.3,0,0,1,334.58,135.56Z" style="opacity:0.2"></path><path d="M333.68,131.67a3.49,3.49,0,0,0,2.08,2.79,10.89,10.89,0,0,0,9.85-.14,3.48,3.48,0,0,0,2-2.82v-.05l-.06-4.57a3.44,3.44,0,0,1-2,2.87,10.89,10.89,0,0,1-9.85.14,3.48,3.48,0,0,1-2.09-2.82l.07,4.57Z" style="fill:#FFA500"></path><path d="M339.59,131a9.76,9.76,0,0,1-2.95-.64l.06,4.57a9.82,9.82,0,0,0,3,.64Zm-3.83,3.5h0l-.06-4.57h0a5.33,5.33,0,0,1-1.18-.88l.07,4.57A5.26,5.26,0,0,0,335.76,134.46Z" style="fill:#fff;opacity:0.15"></path><path d="M343.4,135.21a8.06,8.06,0,0,0,2.21-.89,3.48,3.48,0,0,0,2-2.82v-.05l-.06-4.57a3.44,3.44,0,0,1-2,2.87,8.54,8.54,0,0,1-2.21.9Z" style="opacity:0.1"></path></g><g id="freepik--Hand--inject-345"><path d="M352.5,116.2a22.44,22.44,0,0,0-4.63-1.92,13.17,13.17,0,0,0-5.92.21c-1.28.69-2.57,1.38-4.08,2.33s0,2.41,1.41,2.52c2.12.17,5.53-1.3,6.79-.94a45.72,45.72,0,0,1,6.4,2.85C353.22,121.77,356.33,118.85,352.5,116.2Z" style="fill:#c8856a"></path><path d="M352.5,116.2a21.74,21.74,0,0,0-4.67-1.88,13.68,13.68,0,0,0-5,.09,7.07,7.07,0,0,0-2.2,1c-.73.42-1.45.85-2.16,1.3s-1.36.77-.71,1.51a2.44,2.44,0,0,0,2,.76,42.86,42.86,0,0,0,4.92-.88,4,4,0,0,1,2.57.45c1.56.67,3.08,1.39,4.57,2.19.36.14.67.57,1.08.4a2.41,2.41,0,0,0,1.2-3.13,4.6,4.6,0,0,0-1.64-1.86Zm0,0c1.41.85,2.58,2.74,1.45,4.28-.33.46-1,1.19-1.63.78a43,43,0,0,0-6.36-2.63c-2.45-.14-5,1.63-7.5.83-1.22-.43-2.22-2-.8-2.84,1.22-.77,2.6-1.48,3.89-2.14a8.25,8.25,0,0,1,3.79-.55,15,15,0,0,1,7.16,2.27Z" style="fill:#af6152"></path><path d="M348.15,134c1.35-.43,2.25-1.86,1.08-2.5a18.07,18.07,0,0,0-2.6-1.09s-1.51,1.15-2.6,1.85a3.12,3.12,0,0,1-3.44.26,1.24,1.24,0,0,1-.26-1.69,1.66,1.66,0,0,1-1.34-.3c-.55-.49-.75-1,.26-2.65,0,0,2.49-4.18,4.06-4.2s6,.49,6,.49-2.67-1.49-3.67-1.86-4.17.07-5.56.3-4.27.23-5-.81,0-1.48,1.27-2,2.09-.91,2.74-1.1,5.49-1.27,6.17-1.26a24.26,24.26,0,0,1,5,1.58c2.47.93,3.65,1.71,3.64,3.42a23.78,23.78,0,0,1-1.82,6.61C351.12,131.26,352.13,133.17,348.15,134Z" style="fill:#c8856a"></path><path d="M337.35,119.71a31.44,31.44,0,0,1,7.88-2,32.47,32.47,0,0,1,5.56,1.72c1.39.52,3.17,1.36,3,3.1.2-1.76-1.6-2.68-3-3.25a29,29,0,0,0-5.63-1.93,32.07,32.07,0,0,0-8.08,1.92c-.84.44-2.23.55-2.65,1.63-.17,1.8,2.16,2.12,3.48,2.17,2.65.19,5.51-1.19,8-.19.58.27,1.16.57,1.74.87-.84-.08-1.68-.16-2.52-.22-1,0-2.34-.34-3.15.43a15.69,15.69,0,0,0-3.22,4.08,2.59,2.59,0,0,0-.48,2.15,1.68,1.68,0,0,0,1.58,1,1.44,1.44,0,0,0,.77,1.76c1.48.74,3.07-.15,4.21-1,.58-.42,1.14-.85,1.7-1.29a12.15,12.15,0,0,1,2.82,1.2,1,1,0,0,1-.05,1.37,2.66,2.66,0,0,1-1.27.89c.91-.23,2.24-1.39,1.4-2.34a9.45,9.45,0,0,0-3-1.34c-1.64,1-3.55,3.11-5.63,2.18a1.18,1.18,0,0,1-.59-.68,1.08,1.08,0,0,1,.15-.8,5.33,5.33,0,0,1,1.19-1.45l.63-.58a1.27,1.27,0,0,0,.27-.25,8.29,8.29,0,0,1,2.3-1.72,36.78,36.78,0,0,1,6,0,15.19,15.19,0,0,0-6.18-.62,3.39,3.39,0,0,0-1.41.89,13.32,13.32,0,0,0-1.38,1.43c-.43.49-.8,1-1.22,1.5-.12.13-.29.38-.47.42a1.45,1.45,0,0,1-.55,0,1.19,1.19,0,0,1-.86-.66c-.19-.48.17-1.14.49-1.69a19.56,19.56,0,0,1,2.39-3.23,3.39,3.39,0,0,1,1.5-1c.5,0,1.43.06,2,.09,1.36.11,2.71.25,4.06.41a.33.33,0,0,0,.31-.16.31.31,0,0,0-.12-.42c-1.43-.7-2.79-1.76-4.38-2-2.44-.19-4.67.6-7.06.55-1-.09-2.36-.07-2.89-1.07S336.69,120.1,337.35,119.71Z" style="fill:#af6152"></path></g></g><path id="freepik--Chest--inject-345" d="M231.07,110.19c-4.35.9-17.56,6.2-22.57,9,0,0-5.79,12.11-2.86,40.15.47,4.49,1.67,16.59,2.22,25.93a147.22,147.22,0,0,1-.15,22.84s11.79,10.32,42.53,8c24.13-1.82,31.39-11.73,31.39-11.73s-.11-32.56-.74-50.35c-.82-23.38-7.9-36.87-13.11-40.95l-15.84-2.64Z" style="fill:#f0f0f0"></path><polygon points="239.89 33.53 198.65 71.99 236.05 89.6 278.49 57.35 239.89 33.53" style="fill:#263238"></polygon><g id="freepik--Head--inject-345"><g id="freepik--head--inject-345"><path d="M224.15,59.73a11.37,11.37,0,0,0-6,4.24c-2.23,3.29-3.77,9.41-1.41,16.43,2.59,7.72,8,15.29,9.1,17.47a6,6,0,0,0,3.51,2.8l-.25-9.38-.35-6.54s5.28-4.79,5.73-9.48c.58-6-1.78-9.48-1.78-9.48Z" style="fill:#263238"></path><path d="M254.85,74.43a1.08,1.08,0,0,0-.61-.24,1.56,1.56,0,0,0-.63.17,12.25,12.25,0,0,1-13.62-3,.66.66,0,0,0-.93-.27,10.38,10.38,0,0,1-3.54.66,13.21,13.21,0,0,1-7.88-2.08,10.59,10.59,0,0,1-4.2-4.69,10.8,10.8,0,0,1,1.58-9.8A8.89,8.89,0,0,1,229.27,52a35.7,35.7,0,0,1,5.45-1.57,58.79,58.79,0,0,1,10.36-1.63,21.74,21.74,0,0,1,10.24,1.81A13.9,13.9,0,0,1,262,57c.67,1.43,1.1,2.89,1.68,4.36.31.81.67,1.61,1,2.39A8.23,8.23,0,0,0,266,66.17a6.51,6.51,0,0,1,2.14,4.41c.94,7.17-9.05,7.36-13.05,4.07Z" style="fill:#263238"></path><path d="M220.55,94c4.86,2.36,7.08-1.49,7.08-1.49l.73,19.36c5.58,7.47,15.38,11,21.26,8.92,3.94-1.41,6.87-6.54,2.77-10.3l0-4.42a28,28,0,0,0,4.21-.41c4.3-.68,8.25-4.51,9.53-9.17C268,89.63,267.5,79,264.9,67.26c-.5-2.27-1.48-4.74-3.56-5.77-5.16-2.55-9.24-.51-16.44,2.3-3,1.16-12.15,1.73-14.05.83.49.23.89,1.38,1.08,1.84a14.05,14.05,0,0,1,.78,2.67,13.54,13.54,0,0,1,.15,5.6c-.55,2.83-1.28,5.62-2,8.41a3.29,3.29,0,0,1-.46,1.13c-1,1.34-2.72.42-3.35-.74-.32-.58-.49-1.22-.79-1.81-2.08-4-8-3.52-9.84.38A8.83,8.83,0,0,0,220.55,94Z" style="fill:#c8856a"></path><path d="M252.37,106.11c-5.65,0-10.66-.73-14-2.13s-6.29-5.92-7.25-10.39c0,3.6,1.57,10,6.63,12.63s10.93,2.8,14.63,2.88Z" style="fill:#af6152"></path><path d="M243.33,72.8l-4.49,2.6a2.73,2.73,0,0,1,1-3.64A2.54,2.54,0,0,1,243.33,72.8Z" style="fill:#263238"></path><path d="M263.69,74.44l-4.85-1.92a2.5,2.5,0,0,1,3.3-1.52A2.73,2.73,0,0,1,263.69,74.44Z" style="fill:#263238"></path><path d="M240.92,78.89a2.11,2.11,0,1,0,2-2.19A2.11,2.11,0,0,0,240.92,78.89Z" style="fill:#263238"></path><path d="M258,78.17A2.11,2.11,0,1,0,260,76,1.92,1.92,0,0,0,258,78.17Z" style="fill:#263238"></path><path d="M249.79,74.2l1.75,13.44L258.63,85A31.43,31.43,0,0,0,249.79,74.2Z" style="fill:#af6152"></path><path d="M246.49,89.93l8.65,2.36a4.41,4.41,0,0,1-5.42,3.3A4.71,4.71,0,0,1,246.49,89.93Z" style="fill:#af6152"></path><path d="M247.47,91.42a5,5,0,0,0-1.08,0,4.63,4.63,0,0,0,3.33,4.22,4.36,4.36,0,0,0,1.43.12A4.11,4.11,0,0,0,247.47,91.42Z" style="fill:#f28f8f"></path></g></g><path d="M216.27,82.49s4.49-9.64,13.73-14.3,20.12-1.63,20.12-1.63,4.64-3.2,9.3-2.84S266,66.18,266,66.18l-5.3-14.6s-5.48-5.82-19.78-3.74c-14.66,2.13-24.67,9.57-28.47,19.39Z" style="fill:#37474f"></path><polygon points="278.49 57.35 277.99 54.58 239.39 30.76 239.89 33.53 278.49 57.35" style="fill:#455a64"></polygon><polygon points="278.49 57.35 277.99 54.58 239.39 30.76 239.89 33.53 278.49 57.35" style="fill:#fff;opacity:0.2"></polygon><polygon points="239.39 30.76 239.89 33.53 198.65 71.99 198.15 69.22 239.39 30.76" style="fill:#37474f"></polygon><path d="M210,55.38a22,22,0,0,1,7.82-4.49l-3.43,3.21a23.11,23.11,0,0,0-7.08,6.6,29,29,0,0,0-2.68,4.6c-.3.63-.57,1.27-.82,1.92a28.55,28.55,0,0,0-1.86,7.42,22,22,0,0,0,0,5.13c.22,1.81.8,3.5,1.18,5.27.11.55-.78.64-1,.29a12.32,12.32,0,0,1-1.84-6.18,24.52,24.52,0,0,1,.26-6.05,29.74,29.74,0,0,1,.79-3.58,32.38,32.38,0,0,1,1.86-5A28.35,28.35,0,0,1,210,55.38Z" style="fill:#FFA500"></path><path d="M212.44,99a53.33,53.33,0,0,1-5.09-6.63c-3-4.56-2.78-7.09-4.21-6.82s-1.75,4.94-.94,10a16.09,16.09,0,0,0,3.14,7.41.51.51,0,0,0,.67.12.43.43,0,0,0,.19-.51c.28.34.46.59.86.41a.5.5,0,0,0,.18-.71,19.33,19.33,0,0,1-2.67-7,23.37,23.37,0,0,0,4.15,7.21.53.53,0,0,0,.67.12h0a.53.53,0,0,0,.14-.77,23.06,23.06,0,0,1-4.88-9.61,26.54,26.54,0,0,0,5.07,8.53.59.59,0,0,0,.82.12h0a.56.56,0,0,0,0-.83,25.24,25.24,0,0,1-4.25-6.75c.15.21,3.32,4.32,5.25,6.48a.52.52,0,0,0,.66.1l.08,0A.52.52,0,0,0,212.44,99Zm-9.51-7c.27,2.39.76,6.39,2.75,9.68A15.48,15.48,0,0,1,202.93,92Z" style="fill:#FFA500"></path><path d="M204.08,84.37a1.78,1.78,0,1,0-2.2,2.81,1.78,1.78,0,0,0,2.2-2.81Z" style="fill:#FFA500"></path><path d="M204.08,84.37a1.78,1.78,0,1,0-2.2,2.81,1.78,1.78,0,0,0,2.2-2.81Z" style="opacity:0.2"></path><g id="freepik--Tie--inject-345"><path d="M251.89,123.86s2.89-2.84,3.27-5.84c.31-2.47-3.87-2.94-3.87-2.94L249,119.3Z" style="fill:#263238"></path><path d="M250.71,128.8c4.42,9.88,6.86,37,6.86,37l-5.45,17.88L243,167.84s2.56-26.41,2.56-38.25Z" style="fill:#263238"></path><path d="M249,119.3a7.79,7.79,0,0,1-4.27,1.06l-1.94,4,2.72,5.19s3.85.25,5.17-.79l1.18-4.94S250.39,120.27,249,119.3Z" style="fill:#37474f"></path><path d="M244.76,120.36l-7.95-4.09-3.73,4.18,9.8,4A5.4,5.4,0,0,0,244.76,120.36Z" style="fill:#263238"></path></g><g id="freepik--Suit--inject-345"><path d="M221.74,111.76s.47,11.06,15.77,16c1.79-2.65,4.73-8,7.31-7.43h0a4.72,4.72,0,0,0,1.72-.1,7.73,7.73,0,0,0-1.69-2.41c-1.62-1.41-8.61-2.77-12.78-5.58s-3.91-5-3.91-5l-.09-2.61C226.94,104.76,224.69,108.46,221.74,111.76Z" style="fill:#e0e0e0"></path><path d="M247.61,120a8.7,8.7,0,0,0,1.34-.6l.06,0h0c2-1.07,5.22,2.09,7,5.16,1.72-2.36,2.87-8.46,2.11-11.93l-3.12-4.6a4.84,4.84,0,0,0-2.64-1.82v5a9.48,9.48,0,0,1-1.83,4.14C249.37,116.58,248.21,117.35,247.61,120Z" style="fill:#e0e0e0"></path><path d="M223.16,110.1S241.24,137,252.1,164.39c4.26-18.56,7.6-39.88,3.55-55.51,0,0,12.64,3.11,15.36,4.42s9.52,10.27,11.69,25.91,2.85,73.32,2.85,73.32-10.53,8-35.28,9.16c-37,1.75-46.43-7.58-46.43-7.58s1.4-20.09,1-31.52-3.14-37.52-1.78-50.3,1.78-13.6,1.78-13.6Z" style="fill:#455a64"></path><path d="M252.38,167.92,263,146.34l-2.57-9s6.09-14.49,5.65-25.67c-4.6-1.33-10.43-2.77-10.43-2.77,4,15.63.71,37-3.55,55.51C241.24,137,223.16,110.1,223.16,110.1l-13.75,6.43,26.08,24.93-.35,7.24Z" style="fill:#37474f"></path></g><g id="freepik--Toga--inject-345"><path d="M203.4,118.69s-4.1,10.12-4.37,19.1,1.52,24,2.1,32.07.64,21.11.07,38.74-11.33,123.63-11.33,123.63,14.6,8.94,36.52,8.6c0,0,7.63-103.18,6-140.7s-9.68-91-9.68-91Z" style="fill:#37474f"></path><path d="M267.25,198.78c0,37.82-1.15,139.12-1.15,139.12s15.6-.85,23.08-9.24c0-68.57-1.07-110.69-1.77-135.17s.51-47.44-2.37-60.28-10.29-19.43-10.29-19.43L260.07,110s8.57,14.07,8.95,35.29S267.25,198.78,267.25,198.78Z" style="fill:#37474f"></path><polygon points="200.27 159.99 206.06 153.32 200.83 166.15 200.27 159.99" style="fill:#263238"></polygon><g id="freepik--arm--inject-345"><g id="freepik--arm--inject-345"><path d="M189.3,230.5c-1.51-1.75-3.47-3.32-4.05-5.65a4,4,0,0,1,.67-3.51,1.8,1.8,0,0,0,.44-.63,1.39,1.39,0,0,0,0-.64,4.34,4.34,0,0,1,.26-2.62,2.67,2.67,0,0,1,1.72-1.37,6.3,6.3,0,0,1,.15-4c.57-1.49,2.16-2.64,3.13-.92a13.89,13.89,0,0,1,1.1,2.67c.72,2.29,1.72,4.69,1.89,7.08s0,9.6-3.92,9.81C190.37,230.76,189.52,230.75,189.3,230.5Z" style="fill:#af6152"></path><path d="M203.1,121.27c-11,2.26-15.36,8.37-22.89,18.81-8.71,12.08-17.2,23.43-20.15,29.28-3.65,7.25-4.46,10,3.17,18.13,3.94,4.16,9.45,9.15,15.05,14.75,4.41,4.43,9.75,9.14,14,13.71a4,4,0,0,1,1.25,4.11,27.91,27.91,0,0,0-.88,3,26.34,26.34,0,0,0,.2,4c0,1.33-.44,2.83-1.66,3.36a3.81,3.81,0,0,1-1.9.16,13.43,13.43,0,0,0,3.58,2.09,5.53,5.53,0,0,0,4.06,0c1.23-.54,2.17-1.67,3.47-2,.7-.19,1.45-.13,2.16-.3a3.42,3.42,0,0,0,1.87-1.14c.77-.91,1.11-2.23,2.17-2.76a14.42,14.42,0,0,1,1.62-.48,3.58,3.58,0,0,0,2.08-2.6,9.75,9.75,0,0,0,0-3.45,83.72,83.72,0,0,0-1.6-9.17,9,9,0,0,0-1.38-2.85c-.67-1-1.3-2.08-2-3.07-4.92-6.67-20.47-28.9-20.47-28.9l16.43-18.46S212.1,142.79,203.1,121.27Z" style="fill:#c8856a"></path><path d="M189.3,230.5c2.53,2,6.32,3.55,9,1a5.77,5.77,0,0,1,2.27-1.2c1.69-.14,3.32-.37,4.13-2a5.65,5.65,0,0,1,1.59-2.07c.84-.51,1.73-.4,2.33-.87a3.57,3.57,0,0,0,1.3-1.87c.67-3.9-.75-8.37-1.43-12.27-.5-2.45-2.31-4.32-3.56-6.44l-2.9-4.11c-5.62-8-11.76-16.81-17.21-24.83,5.76,7.78,12.05,16.54,17.7,24.46l2.92,4.1c1.31,2.14,3.22,4.14,3.7,6.68s1,5,1.31,7.46a12.6,12.6,0,0,1,0,5.12,4.07,4.07,0,0,1-1.55,2.17c-.8.55-1.77.45-2.37.84a5.37,5.37,0,0,0-1.46,1.87,4,4,0,0,1-1.94,1.75,10.91,10.91,0,0,1-2.51.4c-1.64.32-2.76,1.91-4.44,2.25-2.58.58-5-.91-6.94-2.45Z" style="fill:#af6152"></path><path d="M184.85,175.85c-4.66,4.3-11.69,4.44-14.28,4.2a14.85,14.85,0,0,0,15.69-2.19Z" style="fill:#f28f8f"></path></g><path d="M204.81,118.69c-8.95,3.43-12,1.86-23.12,16.79-7.4,9.91-21.76,29.85-24.32,35.89s-1.91,6.69.72,14.58c1.72,5.18,15,34,15,34s11.73,1.12,21.64-5,10.05-11.4,10.05-11.4l-18-27.63s17-20.09,19.71-23S210.16,126.28,204.81,118.69Z" style="fill:#37474f"></path><path d="M186.82,175.85c-4.43,4.35-12.69,4.75-16.77,3.84,4.79,2.77,13.29,2.81,18.47-1.22Z" style="fill:#263238"></path></g><path d="M228.05,103.69c-.58,6.09,1.57,23.13,3.07,35.74s1.26,60.7,1.26,60.7c-2.41-16.92-9-32.85-15.64-39.92-14.49-15.44-26.61-13.54-35-25.66,8.17-11.29,9.28-12.78,15.57-15.86,7.09-3.48,12-5.43,19.7-8.5C224.43,107.22,228.05,103.69,228.05,103.69Z" style="fill:#263238"></path><path d="M252.37,106.11a44.26,44.26,0,0,1,9.23,14.23c5.39,14.31,5.51,65,5.65,78.44,3.51-20.16,3.81-35.63,10.92-45.8s15.18-17.29,17.16-24.53a113,113,0,0,0-11.23-10.28c-7.55-6.26-12.88-7.83-18-9.07S252.37,106.11,252.37,106.11Z" style="fill:#263238"></path><path d="M206.06,114.43l45.53,40.15,24.35-42a26.72,26.72,0,0,0-9.84-3.51l-16.26,30.16L216.18,110.4Z" style="fill:#FFA500"></path><path d="M250.27,142.18l-35.79-31.11-6.63,2.64,43.55,37.68,23-39.63a28.18,28.18,0,0,0-6.27-2.26Z" style="fill:#fff;opacity:0.30000000000000004"></path><circle cx="251.64" cy="160.99" r="8.82" transform="translate(37.14 368.91) rotate(-76.72)" style="fill:#e0e0e0"></circle><g style="opacity:0.1"><path d="M251.64,168.65A7.66,7.66,0,1,1,259.3,161,7.67,7.67,0,0,1,251.64,168.65Zm0-14.35a6.69,6.69,0,1,0,6.68,6.69A6.69,6.69,0,0,0,251.64,154.3Z"></path></g></g></g></g></g><g id="freepik--Sparkles--inject-345"><g id="freepik--sparkles--inject-345"><path d="M306.74,210c0,3-.07,5.85-4.38,6.52,4.55-.06,4.21,2.81,4.43,6.4.12-3.59.43-6.17,4-6.34C307.1,215.94,307.2,214.24,306.74,210Z" style="fill:#e0e0e0"></path><path d="M145.56,203.49c0,3.74-.09,7.34-5.49,8.18,5.7-.07,5.27,3.52,5.55,8,.15-4.51.55-7.74,5-7.95C146,211,146.14,208.85,145.56,203.49Z" style="fill:#e0e0e0"></path><path d="M299.32,87.48c.06,5.36-.13,10.51-7.87,11.72,8.18-.11,7.56,5,8,11.5.22-6.46.78-11.09,7.16-11.4C300,98.21,300.15,95.16,299.32,87.48Z" style="fill:#e0e0e0"></path><path d="M370.18,172.66c.06,6-.15,11.68-8.74,13,9.08-.12,8.39,5.6,8.83,12.77.25-7.17.88-12.31,8-12.65C370.9,184.58,371.1,181.19,370.18,172.66Z" style="fill:#e0e0e0"></path><path d="M127.33,137c0,4.32-.11,8.47-6.34,9.44,6.58-.09,6.08,4.07,6.41,9.26.17-5.19.63-8.93,5.76-9.17C127.85,145.64,128,143.18,127.33,137Z" style="fill:#e0e0e0"></path><path d="M161.37,88.85c-.46,9.24-1,13.79-10.12,15,8.79.5,9.61,6.45,10.12,14.71.28-8.26,1.06-14.18,9.2-14.57C162.15,102.57,161.78,98.19,161.37,88.85Z" style="fill:#e0e0e0"></path><path d="M396.24,150.4c0,3.32-.08,6.93-4.88,7.67,5.07-.07,4.69,2.73,4.94,6.74.13-4,.48-6.88,4.44-7.07C396.65,157.06,396.76,155.16,396.24,150.4Z" style="fill:#e0e0e0"></path><path d="M374.27,99.77c0,3.33-.08,6.93-4.88,7.67,5.07-.06,4.69,2.73,4.93,6.74.14-4,.49-6.88,4.45-7.07C374.68,106.43,374.79,104.54,374.27,99.77Z" style="fill:#e0e0e0"></path><path d="M123.85,94.94c-.22,4.91-.22,7.06-5,7.41,4.76.23,4.73,3.15,5,7.22.14-4.07.33-6.83,4.54-7.22C124.24,102.09,124.1,99.9,123.85,94.94Z" style="fill:#e0e0e0"></path></g></g></svg>
