<svg xmlns="http://www.w3.org/2000/svg" xmlns:xlink="http://www.w3.org/1999/xlink" width="500" zoomAndPan="magnify" viewBox="0 0 375 374.999991" height="500" preserveAspectRatio="xMidYMid meet" version="1.0"><defs><clipPath id="37e5ac3240"><path d="M 100 97.121094 L 278 97.121094 L 278 277.871094 L 100 277.871094 Z M 100 97.121094 " clip-rule="nonzero"/></clipPath><clipPath id="2554c76579"><path d="M 33.226562 159 L 341.476562 159 L 341.476562 237 L 33.226562 237 Z M 33.226562 159 " clip-rule="nonzero"/></clipPath></defs><rect x="-37.5" width="450" fill="#ffffff" y="-37.499999" height="449.999989" fill-opacity="1"/><rect x="-37.5" width="450" fill="#ffffff" y="-37.499999" height="449.999989" fill-opacity="1"/><path fill="#ffbd59" d="M 279.113281 192.214844 C 279.035156 193.050781 279.605469 192.773438 279.699219 192.914062 C 279.636719 191.488281 278.972656 192.230469 279.113281 192.214844 Z M 279.113281 192.214844 " fill-opacity="1" fill-rule="nonzero"/><path fill="#ffbd59" d="M 277.394531 178.585938 L 277.640625 178.800781 C 277.378906 178.152344 277.117188 177.515625 276.851562 176.882812 C 277.039062 177.441406 277.207031 178.011719 277.394531 178.585938 Z M 277.394531 178.585938 " fill-opacity="1" fill-rule="nonzero"/><path fill="#ffbd59" d="M 275.121094 166.082031 C 274.964844 166.4375 274.964844 166.886719 275.042969 167.398438 C 275.136719 167.910156 275.320312 168.496094 275.507812 169.101562 C 275.601562 169.410156 275.707031 169.71875 275.800781 170.042969 L 275.957031 170.523438 C 276.003906 170.679688 276.046875 170.847656 276.078125 171.003906 C 276.25 171.636719 276.375 172.257812 276.390625 172.828125 L 276.234375 173.230469 L 277.164062 174.113281 C 277.007812 173.433594 276.851562 172.707031 276.636719 171.976562 C 276.433594 171.25 276.234375 170.507812 276.015625 169.796875 C 275.617188 168.386719 275.214844 167.058594 275.121094 166.082031 Z M 275.121094 166.082031 " fill-opacity="1" fill-rule="nonzero"/><path fill="#ffbd59" d="M 275.105469 158.933594 C 274.996094 159.199219 274.796875 158.871094 274.78125 158.84375 C 274.75 158.8125 274.933594 159.058594 275.507812 160.511719 C 275.492188 160.359375 275.507812 160.296875 275.507812 160.203125 C 275.460938 160.0625 275.414062 159.910156 275.351562 159.707031 C 275.289062 159.492188 275.214844 159.246094 275.105469 158.933594 Z M 275.105469 158.933594 " fill-opacity="1" fill-rule="nonzero"/><path fill="#ffbd59" d="M 275.507812 160.1875 C 275.957031 161.488281 275.523438 159.246094 275.507812 160.1875 Z M 275.507812 160.1875 " fill-opacity="1" fill-rule="nonzero"/><path fill="#ffbd59" d="M 273.140625 154.339844 L 273.636719 155.113281 C 273.804688 155.375 273.960938 155.640625 274.113281 155.902344 C 274.144531 155.6875 274.035156 155.191406 273.960938 154.820312 C 273.867188 154.449219 273.820312 154.199219 274.007812 154.449219 C 273.125 152.777344 273.078125 153.226562 273.140625 154.339844 Z M 273.140625 154.339844 " fill-opacity="1" fill-rule="nonzero"/><path fill="#ffbd59" d="M 271.839844 153.039062 C 272.011719 153.304688 272.179688 153.566406 272.335938 153.84375 C 272.351562 153.644531 272.289062 153.410156 271.839844 153.039062 Z M 271.839844 153.039062 " fill-opacity="1" fill-rule="nonzero"/><path fill="#ffbd59" d="M 273.339844 155.546875 C 273.015625 154.972656 272.660156 154.402344 272.320312 153.828125 C 272.273438 154.121094 271.996094 154.261719 272.753906 154.617188 C 272.445312 154.585938 272.84375 154.835938 273.339844 155.546875 Z M 273.339844 155.546875 " fill-opacity="1" fill-rule="nonzero"/><path fill="#ffbd59" d="M 273.605469 156.644531 C 273.679688 157.15625 273.804688 157.710938 273.789062 157.960938 C 273.773438 158.207031 273.636719 158.128906 273.15625 157.339844 C 273.804688 158.917969 274.222656 159.539062 274.332031 159.367188 C 274.394531 159.273438 274.363281 158.996094 274.253906 158.53125 C 274.144531 158.070312 273.945312 157.433594 273.605469 156.644531 Z M 273.605469 156.644531 " fill-opacity="1" fill-rule="nonzero"/><path fill="#ffbd59" d="M 273.992188 165.710938 C 274.023438 166.160156 274.035156 166.59375 274.050781 167.042969 L 274.625 168.0625 C 274.484375 167.800781 274.394531 167.183594 274.316406 166.640625 C 274.222656 166.097656 274.128906 165.632812 273.992188 165.710938 Z M 273.992188 165.710938 " fill-opacity="1" fill-rule="nonzero"/><path fill="#ffbd59" d="M 268.714844 143.988281 C 268.484375 143.988281 268.542969 144.777344 268.375 145.023438 C 268.667969 145.367188 268.929688 145.722656 269.210938 146.078125 C 269.023438 145.410156 268.496094 144.21875 268.714844 143.988281 Z M 268.714844 143.988281 " fill-opacity="1" fill-rule="nonzero"/><path fill="#ffbd59" d="M 268.375 145.023438 C 267.941406 144.5 267.539062 143.988281 267.105469 143.476562 C 267.941406 145.023438 268.234375 145.242188 268.375 145.023438 Z M 268.375 145.023438 " fill-opacity="1" fill-rule="nonzero"/><path fill="#ffbd59" d="M 270.742188 153.164062 L 271.238281 153.828125 L 271.714844 154.511719 C 272.027344 154.957031 272.351562 155.40625 272.660156 155.871094 C 271.949219 154.773438 271.253906 153.675781 270.492188 152.605469 Z M 270.742188 153.164062 " fill-opacity="1" fill-rule="nonzero"/><path fill="#ffbd59" d="M 264.738281 137.472656 C 265.078125 137.707031 265.417969 137.9375 265.757812 138.15625 L 264.910156 137.503906 L 264.042969 136.871094 Z M 264.738281 137.472656 " fill-opacity="1" fill-rule="nonzero"/><path fill="#ffbd59" d="M 261.722656 133.40625 C 262.539062 133.839844 261.550781 132.089844 262.277344 132.648438 C 262.046875 132.382812 261.828125 132.136719 261.597656 131.90625 C 261.363281 131.671875 261.117188 131.472656 260.886719 131.285156 C 260.40625 130.898438 259.941406 130.558594 259.476562 130.25 C 259.910156 130.621094 260.28125 131.070312 260.667969 131.578125 C 261.023438 132.089844 261.378906 132.695312 261.722656 133.40625 Z M 261.722656 133.40625 " fill-opacity="1" fill-rule="nonzero"/><path fill="#ffbd59" d="M 257.992188 129.179688 C 258.425781 129.550781 258.921875 129.878906 259.476562 130.25 C 259.011719 129.863281 258.535156 129.492188 257.992188 129.179688 Z M 257.992188 129.179688 " fill-opacity="1" fill-rule="nonzero"/><path fill="#ffbd59" d="M 265.449219 140.539062 C 265.464844 140.335938 265.605469 139.917969 265.09375 138.914062 L 265.046875 139.871094 C 265.171875 140.074219 265.3125 140.304688 265.449219 140.539062 Z M 265.449219 140.539062 " fill-opacity="1" fill-rule="nonzero"/><path fill="#ffbd59" d="M 265.046875 139.917969 L 265.046875 139.886719 C 264.597656 139.175781 264.289062 138.679688 264.148438 138.464844 C 264.257812 138.636719 264.519531 139.082031 265.046875 139.917969 Z M 265.046875 139.917969 " fill-opacity="1" fill-rule="nonzero"/><path fill="#ffbd59" d="M 265.542969 140.707031 C 265.511719 140.644531 265.480469 140.601562 265.433594 140.539062 C 265.433594 140.632812 265.449219 140.691406 265.542969 140.707031 Z M 265.542969 140.707031 " fill-opacity="1" fill-rule="nonzero"/><path fill="#ffbd59" d="M 269.039062 148.304688 C 268.652344 147.855469 268.082031 147.160156 267.707031 146.835938 C 267.335938 146.527344 267.136719 146.601562 267.460938 147.734375 C 267.816406 148.011719 267.910156 147.808594 268.066406 147.71875 C 268.140625 147.671875 268.234375 147.65625 268.390625 147.71875 C 268.527344 147.792969 268.746094 147.964844 269.039062 148.304688 Z M 269.039062 148.304688 " fill-opacity="1" fill-rule="nonzero"/><path fill="#ffbd59" d="M 265.449219 141.898438 C 265.773438 142.519531 266.085938 143.136719 266.394531 143.757812 C 266.503906 143.648438 266.503906 143.214844 266.933594 143.617188 C 266.441406 143.042969 265.960938 142.472656 265.449219 141.898438 Z M 265.449219 141.898438 " fill-opacity="1" fill-rule="nonzero"/><path fill="#ffbd59" d="M 264.753906 141.140625 L 265.449219 141.898438 L 265.078125 141.21875 Z M 264.753906 141.140625 " fill-opacity="1" fill-rule="nonzero"/><path fill="#ffbd59" d="M 259.878906 132.308594 C 259.492188 132.027344 259.152344 131.703125 258.796875 131.332031 C 258.441406 130.976562 258.085938 130.574219 257.714844 130.171875 C 258.054688 130.667969 258.425781 131.160156 258.78125 131.640625 C 259.136719 132.136719 259.507812 132.617188 259.878906 133.066406 C 260.003906 133.082031 260.203125 133.125 260.28125 133.066406 C 260.34375 133.003906 260.296875 132.800781 259.878906 132.308594 Z M 259.878906 132.308594 " fill-opacity="1" fill-rule="nonzero"/><path fill="#ffbd59" d="M 262.449219 135.972656 C 262.402344 135.925781 262.355469 135.867188 262.308594 135.835938 C 262.324219 135.957031 262.371094 136.050781 262.449219 135.972656 Z M 262.449219 135.972656 " fill-opacity="1" fill-rule="nonzero"/><path fill="#ffbd59" d="M 250.101562 122.234375 C 250.132812 122.296875 250.132812 122.359375 250.164062 122.433594 C 250.195312 122.417969 250.226562 122.402344 250.253906 122.390625 Z M 250.101562 122.234375 " fill-opacity="1" fill-rule="nonzero"/><path fill="#ffbd59" d="M 259.910156 133.296875 C 260.375 134.085938 260.808594 134.425781 261.257812 134.71875 C 260.808594 134.226562 260.34375 133.667969 259.863281 133.066406 C 259.757812 133.066406 259.710938 133.097656 259.910156 133.296875 Z M 259.910156 133.296875 " fill-opacity="1" fill-rule="nonzero"/><path fill="#ffbd59" d="M 255.71875 127.046875 C 255.839844 127.261719 255.964844 127.480469 256.105469 127.710938 C 256.242188 127.945312 256.382812 128.175781 256.539062 128.421875 C 256.445312 128.191406 256.304688 127.851562 256.152344 127.570312 C 255.996094 127.277344 255.839844 127.0625 255.71875 127.046875 Z M 255.71875 127.046875 " fill-opacity="1" fill-rule="nonzero"/><path fill="#ffbd59" d="M 262.246094 135.492188 C 262.277344 135.523438 262.308594 135.554688 262.339844 135.585938 C 262.277344 135.277344 262.246094 135.339844 262.246094 135.492188 Z M 262.246094 135.492188 " fill-opacity="1" fill-rule="nonzero"/><path fill="#ffbd59" d="M 262.246094 135.492188 C 261.90625 135.167969 261.582031 134.953125 261.257812 134.734375 C 261.613281 135.152344 261.96875 135.523438 262.292969 135.835938 C 262.261719 135.710938 262.246094 135.585938 262.246094 135.492188 Z M 262.246094 135.492188 " fill-opacity="1" fill-rule="nonzero"/><path fill="#ffbd59" d="M 245.210938 122.792969 C 245.445312 122.636719 246.078125 122.835938 246.773438 123.316406 C 247.128906 123.550781 247.5 123.84375 247.859375 124.199219 C 248.199219 124.554688 248.523438 124.957031 248.785156 125.40625 C 249.203125 125.667969 249.542969 125.730469 249.792969 125.652344 C 250.039062 125.574219 250.226562 125.34375 250.332031 125.035156 C 250.550781 124.386719 250.457031 123.378906 250.148438 122.417969 C 249.945312 122.558594 249.808594 122.683594 248.058594 121.554688 C 248.230469 121.910156 248.972656 122.777344 249.4375 123.488281 C 249.914062 124.199219 250.132812 124.710938 249.34375 124.292969 C 248.800781 123.890625 248.445312 123.582031 248.199219 123.332031 C 247.933594 123.085938 247.796875 122.914062 247.6875 122.746094 C 247.484375 122.402344 247.457031 122.125 247.054688 121.585938 C 247.253906 122.203125 246.449219 121.816406 245.566406 121.445312 C 244.703125 121.058594 243.726562 120.703125 243.648438 121.257812 C 244.328125 121.644531 244.980469 122.0625 245.644531 122.480469 C 245.613281 122.636719 244.808594 122.28125 245.210938 122.792969 Z M 245.210938 122.792969 " fill-opacity="1" fill-rule="nonzero"/><path fill="#ffbd59" d="M 252.949219 125.203125 L 253.582031 125.761719 C 253.273438 125.390625 253.039062 125.019531 252.792969 124.617188 C 252.546875 124.214844 252.296875 123.75 251.988281 123.164062 C 250.78125 122.359375 250.425781 122.3125 250.242188 122.375 C 251.246094 123.347656 252.234375 124.339844 253.195312 125.34375 Z M 252.949219 125.203125 " fill-opacity="1" fill-rule="nonzero"/><path fill="#ffbd59" d="M 256.195312 128.5625 C 255.980469 128.53125 255.71875 128.421875 255.453125 128.300781 C 255.191406 128.175781 254.929688 128.050781 254.695312 127.957031 C 254.246094 127.789062 253.953125 127.789062 254.140625 128.453125 C 254.355469 128.671875 254.542969 128.855469 254.695312 129.011719 C 254.851562 129.164062 254.992188 129.289062 255.113281 129.382812 C 255.347656 129.566406 255.515625 129.660156 255.6875 129.738281 C 255.996094 129.878906 256.257812 129.894531 256.832031 130.371094 C 255.453125 128.917969 255.703125 129.074219 256.089844 129.304688 C 256.476562 129.535156 257 129.832031 256.167969 128.625 C 256.769531 129.148438 257.265625 129.660156 257.714844 130.171875 C 257.3125 129.566406 256.894531 128.996094 256.539062 128.421875 C 256.554688 128.453125 256.570312 128.484375 256.570312 128.515625 L 256.585938 128.53125 C 256.585938 128.53125 256.585938 128.53125 256.570312 128.53125 C 256.628906 128.71875 256.628906 128.777344 256.539062 128.609375 C 256.523438 128.609375 256.492188 128.5625 256.476562 128.546875 C 256.414062 128.578125 256.304688 128.578125 256.195312 128.5625 C 255.515625 127.601562 256.183594 128.316406 256.476562 128.546875 C 256.507812 128.53125 256.554688 128.546875 256.570312 128.53125 C 256.570312 128.53125 256.570312 128.515625 256.570312 128.515625 C 256.320312 128.285156 256.089844 128.035156 255.839844 127.820312 L 255.097656 127.125 L 254.355469 126.441406 L 253.597656 125.777344 C 254.140625 126.425781 254.882812 127.183594 256.195312 128.5625 Z M 256.195312 128.5625 " fill-opacity="1" fill-rule="nonzero"/><path fill="#ffbd59" d="M 265.371094 146.464844 C 265.355469 146.339844 265.402344 146.324219 265.433594 146.292969 C 265.25 146.109375 265.15625 146.046875 265.371094 146.464844 Z M 265.371094 146.464844 " fill-opacity="1" fill-rule="nonzero"/><path fill="#ffbd59" d="M 264.894531 144.886719 C 265.109375 145.085938 265.417969 145.195312 265.820312 146.03125 C 266.070312 146.820312 265.574219 146.15625 265.433594 146.292969 C 265.835938 146.695312 266.734375 147.808594 266.144531 146.140625 L 265.945312 145.9375 C 265.789062 145.566406 265.667969 145.148438 265.542969 144.746094 C 265.417969 144.34375 265.3125 143.941406 265.234375 143.601562 C 265.078125 142.90625 265.015625 142.425781 265.125 142.519531 C 264.910156 143.183594 264.800781 143.726562 264.894531 144.886719 Z M 264.894531 144.886719 " fill-opacity="1" fill-rule="nonzero"/><path fill="#ffbd59" d="M 260.824219 136.546875 C 260.113281 135.695312 259.355469 134.890625 258.609375 134.070312 L 259.230469 135.710938 L 259.414062 135.464844 C 259.679688 135.851562 259.863281 136.113281 260.019531 136.28125 C 260.171875 136.453125 260.28125 136.53125 260.375 136.578125 C 260.558594 136.640625 260.652344 136.515625 260.824219 136.546875 Z M 260.824219 136.546875 " fill-opacity="1" fill-rule="nonzero"/><path fill="#ffbd59" d="M 250.007812 121.753906 L 250.75 121.613281 L 250.242188 121.429688 L 249.730469 121.257812 L 248.722656 120.933594 Z M 250.007812 121.753906 " fill-opacity="1" fill-rule="nonzero"/><path fill="#ffbd59" d="M 246.652344 118.921875 L 247.113281 118.613281 C 246.742188 118.441406 246.371094 118.289062 246.015625 118.117188 Z M 246.652344 118.921875 " fill-opacity="1" fill-rule="nonzero"/><path fill="#ffbd59" d="M 115.210938 227.371094 L 115.769531 228.113281 C 115.535156 227.757812 115.367188 227.523438 115.210938 227.371094 Z M 115.210938 227.371094 " fill-opacity="1" fill-rule="nonzero"/><path fill="#ffbd59" d="M 112.378906 221.351562 L 112.070312 221.304688 C 112.332031 221.519531 112.472656 221.597656 112.378906 221.351562 Z M 112.378906 221.351562 " fill-opacity="1" fill-rule="nonzero"/><path fill="#ffbd59" d="M 145.628906 109.515625 C 144.128906 109.761719 142.335938 109.964844 142.785156 110.382812 L 143.464844 110.660156 C 144.285156 110.042969 144.996094 109.730469 145.628906 109.515625 Z M 145.628906 109.515625 " fill-opacity="1" fill-rule="nonzero"/><path fill="#ffbd59" d="M 105.171875 167.167969 C 105.261719 167.058594 105.339844 166.933594 105.433594 166.808594 C 105.324219 166.4375 105.230469 166.082031 105.140625 165.757812 C 105.171875 166.191406 105.15625 166.65625 105.171875 167.167969 Z M 105.171875 167.167969 " fill-opacity="1" fill-rule="nonzero"/><path fill="#ffbd59" d="M 107.273438 168.667969 C 107.152344 168.945312 107.011719 169.207031 106.886719 169.488281 L 106.515625 170.324219 C 106.734375 169.96875 106.964844 169.425781 107.273438 168.667969 Z M 107.273438 168.667969 " fill-opacity="1" fill-rule="nonzero"/><path fill="#ffbd59" d="M 138.914062 254.429688 C 139.316406 254.492188 139.71875 254.554688 140.121094 254.601562 C 139.78125 254.355469 139.566406 254.214844 139.410156 254.136719 C 139.257812 254.058594 139.179688 254.058594 139.132812 254.089844 C 139.039062 254.152344 139.070312 254.355469 138.914062 254.429688 Z M 138.914062 254.429688 " fill-opacity="1" fill-rule="nonzero"/><path fill="#ffbd59" d="M 206.390625 100.109375 C 205.804688 99.875 205.261719 99.691406 204.765625 99.550781 C 204.269531 99.414062 203.808594 99.304688 203.390625 99.226562 C 204.101562 99.519531 204.734375 99.828125 205.246094 100.03125 C 205.757812 100.230469 206.144531 100.308594 206.390625 100.109375 Z M 206.390625 100.109375 " fill-opacity="1" fill-rule="nonzero"/><path fill="#ffbd59" d="M 108.496094 227.742188 C 108.851562 228.238281 109.085938 228.421875 109.191406 228.34375 C 108.820312 227.820312 108.574219 227.554688 108.496094 227.742188 Z M 108.496094 227.742188 " fill-opacity="1" fill-rule="nonzero"/><path fill="#ffbd59" d="M 199.816406 98.746094 C 200.03125 98.824219 200.234375 98.886719 200.449219 98.964844 C 200.914062 98.980469 201.363281 98.996094 201.84375 99.039062 C 202.320312 99.085938 202.832031 99.132812 203.375 99.242188 C 202.847656 99.023438 202.261719 98.855469 201.671875 98.746094 C 201.378906 98.699219 201.070312 98.667969 200.742188 98.652344 C 200.449219 98.636719 200.125 98.667969 199.816406 98.746094 Z M 199.816406 98.746094 " fill-opacity="1" fill-rule="nonzero"/><path fill="#ffbd59" d="M 255.964844 238.449219 C 256.042969 238.386719 256.121094 238.292969 256.195312 238.246094 C 256.152344 238.183594 256.074219 238.292969 255.964844 238.449219 Z M 255.964844 238.449219 " fill-opacity="1" fill-rule="nonzero"/><path fill="#ffbd59" d="M 276.992188 204.6875 C 276.945312 205.089844 276.820312 205.738281 276.714844 206.359375 C 276.820312 206.0625 276.914062 205.554688 276.992188 204.6875 Z M 276.992188 204.6875 " fill-opacity="1" fill-rule="nonzero"/><path fill="#ffbd59" d="M 232.152344 108.835938 C 232.988281 109.253906 232.324219 108.851562 232.152344 108.835938 Z M 232.152344 108.835938 " fill-opacity="1" fill-rule="nonzero"/><path fill="#ffbd59" d="M 234.90625 113.058594 C 234.707031 113.011719 234.535156 113.011719 234.441406 113.121094 C 234.582031 113.027344 234.738281 113.011719 234.90625 113.058594 Z M 234.90625 113.058594 " fill-opacity="1" fill-rule="nonzero"/><path fill="#ffbd59" d="M 190.5 101.734375 C 190.46875 101.734375 190.453125 101.734375 190.421875 101.734375 C 190.6875 101.839844 190.640625 101.824219 190.5 101.734375 Z M 190.5 101.734375 " fill-opacity="1" fill-rule="nonzero"/><path fill="#ffbd59" d="M 233.25 109.746094 C 232.988281 109.515625 232.664062 109.269531 232.292969 109.019531 C 232.445312 109.144531 232.726562 109.375 233.25 109.746094 Z M 233.25 109.746094 " fill-opacity="1" fill-rule="nonzero"/><path fill="#ffbd59" d="M 233.21875 109.421875 C 233.484375 109.609375 233.699219 109.730469 233.902344 109.871094 C 234.054688 109.839844 233.996094 109.730469 233.21875 109.421875 Z M 233.21875 109.421875 " fill-opacity="1" fill-rule="nonzero"/><path fill="#ffbd59" d="M 230.992188 108.261719 C 231.472656 108.511719 231.890625 108.757812 232.292969 109.019531 C 232.152344 108.898438 232.089844 108.835938 232.152344 108.835938 C 231.90625 108.710938 231.566406 108.539062 230.992188 108.261719 Z M 230.992188 108.261719 " fill-opacity="1" fill-rule="nonzero"/><path fill="#ffbd59" d="M 196.148438 273.136719 C 196.210938 273.152344 196.273438 273.152344 196.335938 273.167969 C 197.199219 272.84375 196.8125 272.921875 196.148438 273.136719 Z M 196.148438 273.136719 " fill-opacity="1" fill-rule="nonzero"/><path fill="#ffbd59" d="M 130.46875 128.238281 C 130.5 128.207031 130.5 128.175781 130.515625 128.144531 C 130.484375 128.175781 130.4375 128.191406 130.40625 128.222656 Z M 130.46875 128.238281 " fill-opacity="1" fill-rule="nonzero"/><path fill="#ffbd59" d="M 128.59375 130.742188 C 128.796875 130.015625 129.042969 129.539062 129.355469 129.148438 C 129.648438 128.761719 130.019531 128.5 130.421875 128.207031 C 129.785156 128.050781 129.136719 127.898438 128.503906 127.742188 C 128.519531 128.761719 128.535156 129.753906 128.59375 130.742188 Z M 128.59375 130.742188 " fill-opacity="1" fill-rule="nonzero"/><g clip-path="url(#37e5ac3240)"><path fill="#ffbd59" d="M 124.09375 240.582031 L 123.613281 239.578125 L 123.164062 238.554688 C 124.292969 239.34375 125.113281 240.105469 125.53125 240.445312 C 125.75 240.613281 125.871094 240.675781 125.902344 240.566406 C 125.933594 240.460938 125.855469 240.179688 125.6875 239.6875 C 125.285156 239.917969 124.742188 239.625 124.15625 239.082031 C 123.566406 238.527344 122.902344 237.722656 122.28125 236.871094 C 121.632812 236.050781 121.042969 235.183594 120.472656 234.59375 C 119.914062 233.992188 119.421875 233.652344 118.988281 233.835938 C 118.832031 233.375 118.675781 232.894531 118.539062 232.429688 C 118.738281 232.785156 118.863281 232.785156 119.0625 233.140625 C 118.878906 232.429688 118.648438 232.027344 118.382812 231.734375 C 118.246094 231.59375 118.105469 231.484375 117.949219 231.394531 C 117.796875 231.300781 117.640625 231.222656 117.484375 231.144531 C 116.820312 230.820312 116.03125 230.449219 115.273438 228.792969 C 115.148438 228.5 115.042969 228.222656 114.980469 227.988281 C 114.902344 227.742188 114.855469 227.539062 114.839844 227.402344 C 114.808594 227.105469 114.917969 227.046875 115.210938 227.386719 C 114.933594 227.015625 114.640625 226.628906 114.359375 226.257812 L 113.539062 225.09375 C 113.371094 224.722656 113.386719 224.539062 113.480469 224.554688 C 113.570312 224.570312 113.742188 224.753906 113.910156 225.125 C 113.246094 223.875 112.613281 222.589844 112.007812 221.304688 L 112.070312 221.320312 C 111.808594 221.105469 111.46875 220.703125 111.113281 220.300781 C 110.769531 219.898438 110.414062 219.480469 110.214844 219.183594 C 110.074219 218.070312 110.585938 219.632812 110.695312 219.277344 C 110.277344 218.597656 109.84375 217.902344 109.441406 217.203125 C 109.503906 216.664062 109.796875 216.832031 110.152344 217.3125 C 110.507812 217.792969 110.910156 218.597656 111.1875 219.371094 C 111.40625 218.691406 111.453125 218.242188 111.375 217.902344 C 111.296875 217.542969 111.113281 217.265625 110.878906 216.925781 C 110.648438 216.585938 110.367188 216.167969 110.105469 215.535156 C 109.964844 215.222656 109.859375 214.851562 109.765625 214.402344 C 109.671875 213.957031 109.578125 213.445312 109.535156 212.839844 C 109.828125 213.523438 110.136719 214.203125 110.429688 214.882812 C 110.570312 214.464844 110.617188 214.046875 110.601562 213.644531 C 110.585938 213.226562 110.523438 212.808594 110.460938 212.347656 C 110.382812 211.898438 110.292969 211.402344 110.214844 210.875 C 110.136719 210.351562 110.089844 209.777344 110.089844 209.128906 C 110.042969 209.28125 110.011719 209.699219 109.949219 210.179688 C 109.921875 210.425781 109.90625 210.675781 109.859375 210.9375 C 109.828125 211.199219 109.796875 211.449219 109.765625 211.679688 C 109.609375 212.625 109.332031 213.195312 108.742188 212.035156 C 108.667969 211.308594 108.480469 210.382812 107.769531 209.128906 C 108.078125 209.035156 108.125 208.679688 108.015625 208.136719 C 107.96875 207.859375 107.894531 207.550781 107.800781 207.195312 C 107.707031 206.835938 107.613281 206.449219 107.507812 206.046875 L 108.371094 205.988281 C 108.21875 205.554688 108.078125 205.257812 107.941406 205.011719 C 107.816406 204.78125 107.691406 204.609375 107.566406 204.46875 C 107.320312 204.191406 107.074219 204.007812 106.777344 203.511719 C 106.515625 201.484375 107.105469 200.972656 107.597656 200.417969 C 107.445312 198.824219 107.257812 199.394531 107.027344 199.921875 C 106.792969 200.449219 106.515625 200.894531 106.175781 199.007812 C 106.175781 198.328125 106.144531 197.695312 106.082031 197.089844 C 106.035156 196.488281 105.945312 195.898438 105.835938 195.296875 C 105.632812 194.089844 105.324219 192.820312 105.015625 191.195312 C 105.246094 189.277344 105.542969 191.519531 105.773438 190.824219 C 105.527344 190.265625 105.308594 189.710938 105.0625 189.152344 C 105.078125 188.734375 105.277344 188.875 105.386719 188.9375 C 105.308594 188.582031 105.230469 188.394531 105.140625 188.285156 C 105.046875 188.179688 104.9375 188.132812 104.828125 188.070312 C 104.628906 187.929688 104.410156 187.699219 104.320312 186.570312 C 104.085938 186.414062 104.070312 186.042969 104.148438 185.53125 C 104.195312 185.285156 104.257812 184.992188 104.351562 184.679688 C 104.394531 184.527344 104.441406 184.355469 104.488281 184.203125 C 104.535156 184.03125 104.597656 183.859375 104.644531 183.691406 C 105.046875 182.28125 105.496094 180.628906 105.125 179.1875 C 105.449219 178.539062 105.601562 179.574219 105.960938 179.40625 C 105.804688 177.488281 105.820312 176.652344 105.757812 175.910156 C 105.726562 175.535156 105.710938 175.179688 105.648438 174.71875 C 105.617188 174.484375 105.585938 174.222656 105.558594 173.914062 C 105.542969 173.757812 105.511719 173.601562 105.496094 173.417969 C 105.480469 173.246094 105.464844 173.046875 105.433594 172.84375 L 105.960938 171.574219 C 106.128906 171.160156 106.332031 170.742188 106.515625 170.324219 C 105.988281 171.21875 105.679688 171.019531 105.480469 170.292969 C 105.386719 169.9375 105.308594 169.441406 105.261719 168.882812 C 105.214844 168.34375 105.199219 167.738281 105.183594 167.152344 C 104.722656 167.769531 104.304688 168.296875 104.085938 168.683594 L 104.289062 166.871094 C 104.351562 166.269531 104.457031 165.664062 104.535156 165.0625 C 104.78125 164.675781 104.96875 165.109375 105.171875 165.773438 C 105.171875 165.511719 105.15625 165.277344 105.140625 165.078125 C 105.464844 164.488281 105.695312 164.398438 105.882812 164.582031 C 106.050781 164.753906 106.191406 165.203125 106.300781 165.710938 C 106.019531 166.082031 105.742188 166.453125 105.449219 166.824219 C 105.742188 167.816406 106.113281 168.746094 106.640625 168.683594 C 106.59375 168.433594 106.625 167.988281 106.6875 167.507812 C 106.761719 167.769531 106.855469 167.941406 106.964844 167.847656 C 107.089844 167.753906 106.980469 167.351562 106.917969 166.734375 L 108.046875 166.207031 L 107.738281 165.929688 C 108.328125 164.503906 108.976562 163.113281 109.640625 161.734375 C 109.671875 160.882812 109.6875 160.050781 109.703125 159.199219 C 109.71875 158.765625 109.734375 158.332031 109.765625 157.898438 C 109.78125 157.449219 109.8125 157 109.875 156.535156 C 109.921875 156.074219 109.980469 155.59375 110.058594 155.097656 C 110.136719 154.601562 110.246094 154.09375 110.367188 153.566406 C 110.429688 153.304688 110.492188 153.023438 110.570312 152.746094 C 110.648438 152.46875 110.738281 152.1875 110.816406 151.910156 C 111.003906 151.339844 111.203125 150.734375 111.46875 150.117188 C 111.515625 151.601562 112.363281 150.875 113.078125 151.308594 C 112.71875 151.523438 112.457031 151.878906 112.242188 152.328125 C 112.023438 152.777344 111.839844 153.289062 111.699219 153.859375 C 111.542969 154.433594 111.390625 155.050781 111.21875 155.671875 C 111.050781 156.304688 110.832031 156.9375 110.539062 157.542969 C 111.15625 156.273438 111.40625 156.707031 111.390625 157.09375 C 111.574219 156.304688 111.746094 155.515625 111.945312 154.726562 L 112.242188 153.550781 L 112.566406 152.375 C 112.84375 152.558594 113.078125 152.390625 113.324219 152.035156 C 113.570312 151.679688 113.867188 151.167969 114.269531 150.671875 C 113.464844 150.796875 113.648438 149.882812 114.160156 148.722656 C 114.285156 148.429688 114.421875 148.121094 114.578125 147.808594 C 114.730469 147.5 114.886719 147.175781 115.042969 146.867188 C 115.195312 146.558594 115.335938 146.246094 115.476562 145.96875 C 115.613281 145.691406 115.722656 145.425781 115.800781 145.179688 C 116.25 145.304688 116.386719 145.921875 115.132812 147.964844 C 115.675781 147.515625 115.96875 147.050781 116.125 146.585938 C 116.277344 146.125 116.339844 145.660156 116.371094 145.195312 C 116.433594 144.25 116.542969 143.308594 117.59375 142.425781 C 117.285156 142.9375 117.066406 143.167969 117.128906 143.476562 C 117.222656 143.136719 117.425781 142.703125 117.671875 142.285156 C 117.933594 141.867188 118.230469 141.433594 118.507812 141.078125 C 118.785156 140.722656 119.0625 140.445312 119.265625 140.304688 C 119.449219 140.167969 119.574219 140.167969 119.542969 140.382812 L 119.21875 140.863281 C 120.363281 139.300781 122.113281 136.933594 123.613281 134.859375 C 123.96875 134.332031 124.339844 133.855469 124.664062 133.375 C 124.820312 133.140625 124.976562 132.910156 125.113281 132.695312 C 125.253906 132.476562 125.390625 132.277344 125.5 132.074219 C 125.964844 131.300781 126.210938 130.699219 126.105469 130.386719 C 126.242188 130.464844 126.769531 131.6875 126.785156 132.011719 C 127.375 129.460938 128.117188 126.890625 128.980469 124.308594 C 129.089844 124.878906 129.988281 125.175781 130.589844 125.667969 C 130.902344 125.917969 131.132812 126.210938 131.164062 126.597656 C 131.179688 126.796875 131.148438 127.015625 131.054688 127.261719 C 130.960938 127.527344 130.808594 127.804688 130.558594 128.128906 C 130.945312 127.867188 131.347656 127.558594 131.828125 127.125 C 132.308594 126.707031 132.835938 126.132812 133.453125 125.375 C 133.175781 125.53125 132.648438 125.53125 132.261719 125.40625 C 131.875 125.296875 131.628906 125.050781 131.921875 124.726562 C 133.175781 124.339844 133.578125 124.167969 134.027344 123.96875 C 134.242188 123.859375 134.492188 123.734375 134.847656 123.566406 C 135.203125 123.394531 135.667969 123.179688 136.378906 122.914062 C 135.945312 123.132812 135.683594 122.777344 135.699219 122.25 C 135.699219 121.738281 135.976562 121.027344 136.578125 120.578125 C 136.53125 120.902344 137.601562 121.691406 137.277344 122.15625 C 137.601562 121.585938 137.957031 121.011719 138.296875 120.425781 C 138.636719 119.851562 139.007812 119.277344 139.363281 118.707031 C 138.761719 119.480469 139.984375 119.835938 140.894531 119.695312 C 140.648438 119.679688 141.3125 119.234375 142.117188 118.707031 C 142.519531 118.445312 142.984375 118.179688 143.371094 117.917969 C 143.757812 117.667969 144.097656 117.4375 144.285156 117.265625 C 143.773438 117.4375 143.277344 117.640625 142.785156 117.824219 C 143.230469 117.5625 143.605469 117.296875 143.929688 117.050781 C 144.253906 116.804688 144.515625 116.554688 144.75 116.292969 C 144.980469 116.046875 145.167969 115.78125 145.335938 115.535156 C 145.507812 115.285156 145.660156 115.039062 145.816406 114.792969 C 146.125 114.296875 146.433594 113.769531 146.914062 113.289062 C 147.394531 112.796875 148.011719 112.285156 148.972656 111.804688 C 148.664062 112.316406 148.773438 114.082031 150.722656 113.261719 C 150.84375 112.964844 151.046875 112.515625 151.324219 111.929688 C 151.601562 111.355469 151.972656 110.660156 152.4375 109.949219 C 152.671875 109.59375 152.917969 109.222656 153.195312 108.867188 C 153.476562 108.496094 153.785156 108.152344 154.109375 107.796875 C 154.433594 107.457031 154.789062 107.117188 155.160156 106.808594 C 155.53125 106.5 155.933594 106.21875 156.351562 105.972656 C 156.632812 106.019531 156.910156 106.050781 157.203125 106.113281 C 158.054688 105.601562 158.921875 105.089844 159.804688 104.609375 C 159.464844 105.042969 158.953125 105.601562 158.378906 106.265625 C 158.085938 106.589844 157.777344 106.949219 157.453125 107.304688 C 157.125 107.660156 156.785156 108.03125 156.445312 108.417969 C 155.765625 109.160156 155.085938 109.949219 154.433594 110.628906 C 153.800781 111.339844 153.195312 111.976562 152.703125 112.488281 C 153.476562 112.300781 153.628906 112.378906 153.863281 112.363281 C 153.96875 112.363281 154.09375 112.332031 154.328125 112.238281 C 154.558594 112.144531 154.882812 111.992188 155.425781 111.757812 C 155.890625 111.789062 155.65625 112.054688 155.238281 112.347656 C 154.820312 112.65625 154.234375 112.996094 153.925781 113.152344 L 155.160156 112.640625 L 156.414062 112.160156 L 157.050781 111.929688 L 157.683594 111.710938 L 158.953125 111.265625 C 158.675781 110.894531 159.554688 110.320312 160.453125 109.746094 C 161.367188 109.207031 162.292969 108.679688 162.078125 108.355469 C 160.3125 109.285156 158.582031 110.289062 156.894531 111.324219 C 156.617188 110.953125 157.140625 110.042969 158.242188 109.050781 C 159.339844 108.09375 161.027344 107.054688 162.929688 106.546875 C 163.453125 106.558594 163.410156 106.992188 163.238281 107.472656 C 163.066406 107.9375 162.804688 108.433594 162.898438 108.554688 C 162.992188 108.449219 163.238281 108.277344 163.578125 108.109375 C 163.917969 107.921875 164.320312 107.738281 164.753906 107.566406 C 165.589844 107.226562 166.441406 106.960938 166.640625 107.023438 C 166.164062 107.320312 165.683594 107.644531 165.203125 107.9375 C 165.746094 107.875 166.195312 107.691406 166.625 107.488281 C 167.058594 107.289062 167.460938 107.039062 167.878906 106.808594 C 168.296875 106.558594 168.746094 106.375 169.242188 106.21875 C 169.488281 106.144531 169.769531 106.097656 170.0625 106.066406 C 170.355469 106.035156 170.664062 106.050781 171.003906 106.082031 C 171.222656 106.050781 171.515625 106.066406 171.824219 106.113281 C 172.136719 106.144531 172.460938 106.203125 172.753906 106.265625 C 173.355469 106.375 173.851562 106.421875 173.867188 106.144531 C 172.273438 105.398438 171.300781 102.351562 172.164062 101.40625 C 172.335938 101.40625 173.589844 101.40625 174.9375 101.5 C 175.277344 101.515625 175.617188 101.546875 175.941406 101.578125 C 176.28125 101.609375 176.589844 101.640625 176.902344 101.6875 C 177.503906 101.765625 177.984375 101.839844 178.261719 101.933594 C 179.066406 102.242188 178.554688 102.785156 178.03125 103.328125 C 177.503906 103.867188 176.976562 104.394531 177.644531 104.65625 C 177.660156 104.410156 178.433594 103.992188 178.757812 103.851562 C 179.714844 103.945312 178.464844 104.65625 180.476562 104.300781 C 180.722656 103.359375 184.636719 104.007812 181.371094 103.449219 C 181.867188 103.34375 182.253906 103.28125 182.578125 103.265625 C 182.902344 103.25 183.199219 103.265625 183.476562 103.28125 C 184.0625 103.328125 184.683594 103.375 185.859375 103.3125 C 185.472656 103.03125 185.984375 102.507812 186.847656 102.011719 C 187.28125 101.78125 187.824219 101.546875 188.367188 101.363281 C 188.644531 101.269531 188.921875 101.175781 189.203125 101.113281 C 189.480469 101.050781 189.742188 101.003906 190.003906 100.976562 C 189.882812 101.207031 190.347656 101.515625 190.5625 101.65625 C 190.824219 101.671875 191.074219 101.671875 191.320312 101.6875 C 191.570312 101.703125 191.816406 101.71875 192.046875 101.734375 C 192.511719 101.765625 192.960938 101.808594 193.394531 101.855469 C 194.246094 101.949219 195.050781 102.074219 195.824219 102.183594 C 196.597656 102.304688 197.371094 102.429688 198.191406 102.554688 C 198.59375 102.613281 199.011719 102.691406 199.460938 102.753906 C 199.675781 102.785156 199.910156 102.816406 200.125 102.847656 C 200.355469 102.878906 200.589844 102.910156 200.820312 102.957031 C 200.992188 103.09375 201.515625 103.28125 201.902344 103.480469 C 202.289062 103.683594 202.523438 103.882812 202.105469 104.023438 C 202.679688 103.945312 203.234375 103.730469 204.410156 103.898438 C 205.476562 104.503906 204.8125 104.410156 204.085938 104.332031 C 203.359375 104.269531 202.554688 104.207031 203.34375 104.8125 C 203.574219 104.300781 206.484375 104.625 208.21875 104.6875 C 208.140625 104.457031 207.859375 104.285156 207.457031 104.148438 C 207.054688 104.007812 206.53125 103.914062 205.972656 103.851562 C 205.402344 103.804688 204.796875 103.761719 204.226562 103.761719 C 203.652344 103.761719 203.109375 103.777344 202.679688 103.789062 C 202.753906 103.234375 203.589844 102.769531 204.921875 102.507812 C 205.585938 102.382812 206.390625 102.289062 207.273438 102.273438 C 208.15625 102.257812 209.144531 102.289062 210.199219 102.414062 C 211.015625 102.539062 211.511719 102.675781 211.777344 102.800781 C 212.054688 102.925781 212.117188 103.046875 212.101562 103.140625 C 212.070312 103.34375 211.699219 103.449219 211.992188 103.449219 C 213.476562 103.882812 214.5625 104.132812 215.441406 104.222656 C 216.308594 104.332031 216.988281 104.316406 217.625 104.300781 C 218.257812 104.300781 218.863281 104.316406 219.589844 104.472656 C 219.960938 104.550781 220.347656 104.6875 220.796875 104.875 C 221.011719 104.964844 221.261719 105.074219 221.507812 105.199219 C 221.753906 105.324219 222.035156 105.460938 222.3125 105.648438 C 223.132812 106.375 223.007812 106.714844 222.730469 106.949219 C 222.4375 107.195312 221.988281 107.335938 222.097656 107.660156 C 221.769531 107.566406 221.476562 107.457031 221.199219 107.347656 C 220.917969 107.257812 220.65625 107.148438 220.410156 107.039062 C 219.914062 106.824219 219.496094 106.589844 219.078125 106.359375 C 218.675781 106.144531 218.289062 105.925781 217.902344 105.726562 C 217.71875 105.632812 217.515625 105.523438 217.316406 105.445312 C 217.113281 105.367188 216.914062 105.292969 216.695312 105.214844 C 217.375 105.539062 218.027344 105.910156 218.691406 106.265625 C 218.257812 106.234375 217.609375 106.113281 216.945312 105.941406 C 216.292969 105.785156 215.644531 105.570312 215.210938 105.324219 C 215.566406 105.617188 216.355469 105.941406 217.390625 106.359375 C 217.917969 106.574219 218.492188 106.792969 219.125 107.023438 C 219.742188 107.273438 220.410156 107.535156 221.105469 107.796875 C 221.785156 108.09375 222.5 108.371094 223.195312 108.679688 C 223.535156 108.835938 223.890625 109.003906 224.230469 109.160156 C 224.570312 109.316406 224.925781 109.46875 225.253906 109.65625 C 225.59375 109.824219 225.917969 109.996094 226.242188 110.164062 C 226.566406 110.335938 226.875 110.507812 227.171875 110.675781 C 227.757812 111.03125 228.332031 111.355469 228.8125 111.699219 C 229.660156 111.867188 231.054688 112.332031 230.589844 111.757812 L 229.230469 111.15625 C 228.75 110.582031 229.460938 110.722656 230.109375 110.894531 C 230.761719 111.046875 231.332031 111.21875 230.542969 110.644531 C 230.792969 110.722656 231.054688 110.785156 231.300781 110.863281 C 231.566406 110.9375 231.8125 111.015625 232.089844 111.109375 C 232.617188 111.28125 233.175781 111.449219 233.730469 111.683594 C 234.289062 111.914062 234.84375 112.175781 235.417969 112.488281 C 235.976562 112.8125 236.546875 113.199219 237.121094 113.648438 L 237.121094 114.636719 C 237.210938 114.390625 235.804688 113.214844 234.984375 113.011719 C 235.292969 113.089844 235.632812 113.335938 236.003906 113.664062 C 236.375 113.988281 236.792969 114.375 237.195312 114.761719 C 237.613281 115.148438 238.03125 115.503906 238.449219 115.765625 C 238.867188 116.03125 239.300781 116.199219 239.71875 116.167969 C 239.269531 115.628906 238.835938 115.085938 238.371094 114.558594 C 238.867188 114.746094 239.378906 114.960938 239.921875 115.164062 C 240.460938 115.378906 241.035156 115.597656 241.589844 115.859375 C 242.148438 116.121094 242.71875 116.417969 243.261719 116.757812 C 243.804688 117.097656 244.3125 117.484375 244.777344 117.933594 C 244.5625 117.253906 244.421875 117.175781 244.238281 117.050781 C 244.050781 116.910156 243.820312 116.710938 243.355469 115.78125 C 243.648438 116.726562 242.320312 115.734375 241.082031 114.839844 C 240.445312 114.40625 239.84375 113.972656 239.488281 113.816406 C 239.117188 113.664062 239.007812 113.785156 239.363281 114.390625 C 239.132812 113.894531 238.851562 113.523438 238.558594 113.183594 C 238.25 112.859375 237.941406 112.5625 237.582031 112.300781 C 236.871094 111.742188 236.113281 111.171875 235.277344 110.132812 C 235.246094 110.273438 235.371094 110.492188 235.277344 110.535156 C 235.230469 110.550781 235.125 110.519531 234.921875 110.414062 C 234.722656 110.304688 234.410156 110.105469 233.964844 109.808594 C 233.839844 109.824219 233.59375 109.808594 233.421875 109.777344 C 233.359375 109.730469 233.34375 109.71875 233.296875 109.6875 C 233.328125 109.71875 233.359375 109.746094 233.390625 109.777344 C 233.28125 109.761719 233.28125 109.777344 233.421875 109.808594 C 233.808594 110.164062 234.117188 110.492188 234.179688 110.707031 C 233.871094 110.707031 233.453125 110.597656 232.972656 110.445312 C 232.742188 110.367188 232.492188 110.273438 232.230469 110.164062 C 231.984375 110.058594 231.71875 109.949219 231.441406 109.839844 C 230.914062 109.625 230.390625 109.40625 229.925781 109.207031 C 229.460938 109.019531 229.042969 108.898438 228.75 108.835938 C 227.664062 108.152344 229.367188 108.789062 228.871094 108.230469 L 227.992188 108.0625 L 227.109375 107.90625 C 227.15625 107.597656 226.488281 107.007812 226.179688 106.621094 C 226.011719 106.4375 225.949219 106.28125 226.085938 106.25 C 226.242188 106.203125 226.613281 106.28125 227.339844 106.53125 C 226.519531 106.128906 225.683594 105.757812 224.851562 105.382812 C 224.507812 105.136719 224.136719 104.90625 223.734375 104.6875 C 223.332031 104.457031 222.914062 104.238281 222.484375 104.054688 C 221.632812 103.683594 220.78125 103.375 220.085938 103.265625 C 219.496094 102.984375 218.660156 102.863281 218.136719 102.816406 C 217.609375 102.769531 217.375 102.785156 217.996094 102.738281 C 217.300781 102.585938 216.585938 102.414062 215.890625 102.257812 L 213.785156 101.824219 L 213.785156 101.671875 C 211.761719 101.066406 209.578125 100.789062 207.351562 100.449219 C 205.121094 100.125 202.847656 99.738281 200.511719 98.902344 C 199.800781 98.902344 199.058594 98.902344 198.222656 98.855469 C 197.804688 98.839844 197.355469 98.808594 196.859375 98.761719 C 196.613281 98.730469 196.347656 98.714844 196.085938 98.667969 C 195.824219 98.636719 195.53125 98.609375 195.234375 98.5625 L 194.800781 98.019531 C 193.875 98.035156 192.511719 97.863281 191.257812 97.742188 C 190.003906 97.648438 188.890625 97.585938 188.488281 97.863281 C 187.5 97.183594 185.226562 97.121094 182.828125 97.371094 C 180.429688 97.601562 177.90625 98.097656 176.28125 98.222656 L 176.25 98.917969 C 174.039062 99.195312 171.964844 99.753906 169.351562 100.617188 L 169.644531 101.160156 C 169.085938 101.394531 168.453125 101.59375 167.742188 101.765625 C 167.011719 101.917969 166.238281 102.074219 165.40625 102.210938 C 165.203125 102.242188 164.988281 102.289062 164.769531 102.320312 C 164.554688 102.367188 164.335938 102.398438 164.121094 102.445312 C 163.6875 102.523438 163.238281 102.613281 162.804688 102.707031 C 162.355469 102.800781 161.90625 102.925781 161.472656 103.046875 C 161.027344 103.171875 160.578125 103.3125 160.144531 103.464844 C 160.3125 103.15625 161.226562 102.925781 161.90625 102.847656 C 161.320312 102.863281 160.746094 102.925781 160.191406 103.046875 C 159.632812 103.171875 159.078125 103.34375 158.535156 103.542969 C 157.992188 103.746094 157.46875 103.992188 156.941406 104.253906 C 156.414062 104.503906 155.90625 104.796875 155.394531 105.074219 C 154.371094 105.632812 153.398438 106.25 152.421875 106.746094 C 151.449219 107.273438 150.457031 107.675781 149.453125 107.90625 C 148.648438 108.539062 147.96875 108.820312 147.269531 109.019531 C 147.347656 108.972656 147.425781 108.929688 147.472656 108.882812 C 147.378906 108.929688 147.238281 108.988281 147.101562 109.066406 C 146.882812 109.128906 146.652344 109.175781 146.417969 109.238281 C 146.1875 109.300781 145.957031 109.375 145.707031 109.453125 C 146.15625 109.375 146.558594 109.285156 146.898438 109.175781 C 146.558594 109.359375 146.140625 109.625 145.691406 109.917969 C 145.242188 110.210938 144.765625 110.535156 144.300781 110.910156 L 143.542969 110.597656 C 143.464844 110.660156 143.402344 110.691406 143.324219 110.753906 C 142.210938 111.125 142.691406 111.480469 143.464844 111.589844 C 143.015625 111.976562 142.628906 112.363281 142.367188 112.71875 C 141.699219 112.515625 141.097656 112.996094 140.476562 113.492188 C 140.167969 113.738281 139.84375 114.003906 139.503906 114.171875 C 139.164062 114.359375 138.792969 114.46875 138.375 114.421875 C 138.296875 114.636719 137.957031 114.976562 137.523438 115.378906 C 137.089844 115.796875 136.546875 116.277344 136.023438 116.757812 C 135.511719 117.253906 135.015625 117.777344 134.660156 118.242188 C 134.304688 118.707031 134.105469 119.140625 134.164062 119.464844 C 134.042969 119.371094 133.730469 119.527344 134.210938 119.140625 C 133.128906 119.820312 132.078125 120.546875 131.410156 121.539062 L 130.46875 121.273438 L 129.785156 122.605469 L 129.136719 123.953125 C 128.347656 124.339844 127.789062 124.617188 127.511719 124.585938 C 127.234375 124.554688 127.25 124.214844 127.636719 123.410156 C 127.0625 124.292969 126.660156 124.894531 126.320312 125.359375 C 125.996094 125.824219 125.765625 126.132812 125.53125 126.425781 C 125.300781 126.722656 125.082031 127.015625 124.835938 127.417969 C 124.589844 127.835938 124.261719 128.359375 123.875 129.148438 L 123.597656 128.671875 C 123.195312 129.136719 122.792969 129.863281 122.40625 130.496094 C 122.019531 131.144531 121.632812 131.703125 121.230469 131.84375 C 120.90625 132.027344 120.550781 132.335938 120.117188 132.738281 C 119.898438 132.941406 119.683594 133.15625 119.449219 133.40625 C 119.21875 133.652344 118.988281 133.929688 118.738281 134.226562 C 118.492188 134.519531 118.230469 134.828125 117.980469 135.152344 C 117.734375 135.480469 117.457031 135.835938 117.191406 136.191406 C 117.054688 136.375 116.914062 136.546875 116.773438 136.730469 C 116.636719 136.917969 116.496094 137.117188 116.371094 137.304688 C 116.09375 137.691406 115.816406 138.09375 115.535156 138.496094 C 114.421875 140.136719 113.277344 141.914062 112.179688 143.679688 C 111.636719 144.5625 111.097656 145.425781 110.570312 146.261719 C 110.308594 146.679688 110.042969 147.097656 109.78125 147.484375 C 109.519531 147.886719 109.269531 148.273438 109.023438 148.644531 C 110.027344 148.382812 109.503906 149.03125 108.851562 149.867188 C 108.527344 150.285156 108.1875 150.75 107.96875 151.167969 C 107.753906 151.570312 107.707031 151.925781 107.953125 152.113281 C 107.460938 152.34375 106.855469 153.179688 107.027344 151.988281 C 106.886719 152.421875 106.734375 152.824219 106.578125 153.210938 C 106.421875 153.582031 106.285156 153.9375 106.128906 154.277344 C 105.972656 154.601562 105.835938 154.925781 105.695312 155.222656 C 105.558594 155.515625 105.433594 155.808594 105.292969 156.089844 C 105.171875 156.367188 105.046875 156.644531 104.953125 156.921875 C 104.84375 157.203125 104.753906 157.480469 104.691406 157.757812 C 104.550781 158.332031 104.472656 158.933594 104.519531 159.601562 C 104.023438 159.878906 104.273438 158.6875 103.933594 158.964844 C 103.902344 159.273438 103.871094 160.171875 103.546875 160.464844 C 103.21875 160.761719 103.421875 159.863281 103.453125 159.246094 C 103.175781 160.140625 103.035156 160.867188 102.972656 161.441406 C 102.941406 162.03125 102.988281 162.460938 103.113281 162.820312 C 103.34375 163.515625 103.839844 163.808594 104.304688 164.085938 C 103.808594 164.921875 103.53125 165.574219 103.40625 166.191406 C 103.296875 166.824219 103.34375 167.414062 103.53125 168.15625 C 103.28125 168.433594 103.019531 168.820312 102.863281 168.851562 C 102.710938 168.882812 102.632812 168.558594 102.847656 167.429688 C 102.800781 167.585938 102.742188 167.816406 102.648438 168.109375 C 102.554688 168.402344 102.460938 168.761719 102.371094 169.148438 C 102.261719 169.535156 102.152344 169.96875 102.042969 170.398438 C 101.953125 170.847656 101.84375 171.296875 101.75 171.746094 C 101.566406 172.644531 101.457031 173.527344 101.410156 174.175781 C 101.378906 174.839844 101.441406 175.289062 101.65625 175.351562 C 101.394531 175.722656 101.332031 177.128906 101.410156 177.472656 C 101.316406 178.183594 101.238281 178.738281 101.179688 179.203125 C 101.117188 179.667969 101.070312 180.070312 101.039062 180.457031 C 100.992188 180.84375 100.960938 181.230469 100.929688 181.695312 C 100.898438 182.160156 100.882812 182.714844 100.851562 183.414062 L 101.039062 182.640625 C 101.519531 183.226562 101.535156 183.816406 101.457031 184.542969 C 101.378906 185.269531 101.164062 186.136719 101.222656 187.28125 L 101.117188 187.21875 C 100.898438 188.519531 100.851562 189.324219 100.851562 189.863281 C 100.851562 190.40625 100.882812 190.683594 100.945312 190.964844 C 100.992188 191.242188 101.039062 191.519531 101.039062 192.046875 C 101.039062 192.308594 101.023438 192.632812 100.976562 193.066406 C 100.945312 193.5 100.914062 194.011719 100.835938 194.675781 L 101.457031 194.351562 C 101.8125 194.445312 101.953125 194.785156 101.984375 195.28125 C 102.027344 195.773438 101.953125 196.425781 101.859375 197.167969 C 101.78125 197.910156 101.6875 198.730469 101.671875 199.550781 C 101.671875 200.371094 101.75 201.191406 101.984375 201.902344 C 102.042969 201.53125 102.121094 201.160156 102.199219 200.773438 C 102.539062 201.546875 102.261719 202.738281 101.90625 203.960938 C 101.582031 205.183594 101.179688 206.449219 101.269531 207.285156 C 101.238281 207.671875 100.960938 206.761719 100.777344 206.28125 C 100.835938 208.523438 101.085938 208.617188 101.410156 208.539062 C 101.734375 208.460938 102.152344 208.230469 102.632812 209.777344 C 102.476562 210.117188 102.152344 210.007812 101.921875 210.070312 C 101.796875 210.101562 101.703125 210.179688 101.671875 210.382812 C 101.640625 210.582031 101.65625 210.921875 101.78125 211.464844 C 101.765625 211.757812 101.953125 212.269531 102.230469 212.902344 C 102.523438 213.554688 102.925781 214.328125 103.34375 215.148438 C 103.5625 215.5625 103.777344 215.980469 103.980469 216.414062 C 104.085938 216.632812 104.179688 216.847656 104.273438 217.066406 C 104.367188 217.28125 104.457031 217.5 104.550781 217.714844 C 104.722656 218.148438 104.875 218.582031 104.984375 219 C 105.109375 219.417969 105.183594 219.820312 105.214844 220.207031 C 105.308594 219.464844 105.402344 218.734375 106.191406 220.050781 C 106.316406 220.3125 106.40625 220.609375 106.5 220.933594 C 106.609375 221.242188 106.703125 221.582031 106.777344 221.9375 C 106.871094 222.292969 106.949219 222.667969 107.042969 223.039062 C 107.136719 223.410156 107.242188 223.78125 107.351562 224.152344 C 107.460938 224.523438 107.566406 224.894531 107.691406 225.25 C 107.816406 225.605469 107.96875 225.929688 108.125 226.253906 C 108.28125 226.566406 108.449219 226.859375 108.652344 227.105469 C 108.851562 227.355469 109.070312 227.570312 109.300781 227.742188 C 109.347656 228.050781 109.316406 228.191406 109.238281 228.234375 C 109.363281 228.421875 109.519531 228.636719 109.671875 228.871094 C 109.828125 229.101562 109.996094 229.351562 110.183594 229.628906 C 110.539062 230.15625 110.925781 230.742188 111.3125 231.285156 C 112.085938 232.382812 112.90625 233.359375 113.433594 233.652344 C 113.152344 234.285156 113.449219 235.152344 114.003906 236.097656 C 114.578125 237.039062 115.414062 238.0625 116.25 239.019531 C 116.667969 239.5 117.082031 239.949219 117.46875 240.382812 C 117.859375 240.816406 118.183594 241.21875 118.445312 241.574219 C 118.972656 242.285156 119.1875 242.859375 118.769531 243.152344 C 119.050781 243.507812 119.34375 243.847656 119.636719 244.1875 C 119.929688 244.527344 120.210938 244.882812 120.519531 245.226562 C 121.121094 245.90625 121.710938 246.585938 122.328125 247.253906 L 122.082031 247.28125 C 124.292969 249.976562 125.53125 250.484375 126.722656 250.996094 C 127.1875 251.644531 126.644531 251.382812 126.523438 251.414062 C 126.941406 251.894531 127.3125 252.3125 127.652344 252.699219 C 127.992188 253.070312 128.300781 253.394531 128.59375 253.6875 C 129.167969 254.277344 129.679688 254.726562 130.1875 255.113281 C 130.453125 255.3125 130.699219 255.5 130.976562 255.667969 C 131.257812 255.839844 131.550781 256.007812 131.875 256.195312 C 132.199219 256.367188 132.539062 256.566406 132.941406 256.753906 C 133.34375 256.9375 133.777344 257.15625 134.257812 257.386719 L 134.179688 258.175781 C 134.476562 258.269531 134.9375 258.65625 135.542969 259.195312 C 135.835938 259.476562 136.191406 259.785156 136.5625 260.125 C 136.75 260.296875 136.949219 260.464844 137.152344 260.652344 C 137.351562 260.835938 137.570312 261.023438 137.785156 261.207031 C 139.535156 262.722656 141.808594 264.378906 144.160156 265.308594 C 144.082031 265.355469 143.929688 265.402344 143.542969 265.292969 C 143.867188 265.433594 144.191406 265.585938 144.515625 265.742188 C 144.839844 265.910156 145.183594 266.066406 145.507812 266.253906 C 145.832031 266.4375 146.171875 266.625 146.496094 266.824219 C 146.835938 267.011719 147.164062 267.210938 147.488281 267.414062 C 147.8125 267.613281 148.152344 267.832031 148.476562 268.03125 C 148.800781 268.234375 149.144531 268.433594 149.46875 268.636719 C 149.792969 268.835938 150.117188 269.054688 150.441406 269.238281 C 150.765625 269.425781 151.09375 269.625 151.402344 269.8125 C 152.035156 270.183594 152.65625 270.507812 153.257812 270.800781 C 153.550781 270.941406 153.847656 271.078125 154.125 271.1875 C 154.402344 271.296875 154.683594 271.390625 154.960938 271.480469 C 155.503906 271.636719 155.996094 271.746094 156.445312 271.746094 C 156.894531 271.746094 157.296875 271.667969 157.652344 271.464844 L 158.566406 271.652344 L 159.480469 271.824219 C 160.082031 271.929688 160.683594 272.054688 161.304688 272.132812 C 160.746094 271.929688 160.359375 271.746094 160.082031 271.605469 C 159.804688 271.464844 159.648438 271.359375 159.585938 271.265625 C 159.449219 271.09375 159.664062 271.035156 159.957031 270.972656 C 160.546875 270.878906 161.460938 270.863281 160.625 270.351562 C 160.839844 270.414062 161.070312 270.492188 161.304688 270.585938 C 161.535156 270.675781 161.769531 270.769531 162 270.878906 C 162.449219 271.09375 162.867188 271.328125 163.144531 271.542969 C 163.441406 271.746094 163.609375 271.914062 163.5625 272.007812 C 163.515625 272.101562 163.269531 272.101562 162.710938 271.960938 L 162.417969 271.730469 C 162.125 271.960938 162.308594 272.222656 162.757812 272.488281 C 163.207031 272.75 163.917969 273 164.660156 273.261719 C 165.40625 273.507812 166.179688 273.726562 166.734375 273.941406 C 167.015625 274.050781 167.246094 274.160156 167.402344 274.25 C 167.554688 274.359375 167.617188 274.453125 167.585938 274.546875 C 169.859375 275.101562 172.136719 275.597656 174.394531 276.046875 C 174.964844 276.15625 175.523438 276.277344 176.097656 276.371094 C 176.667969 276.464844 177.226562 276.574219 177.796875 276.664062 C 178.371094 276.757812 178.925781 276.835938 179.5 276.929688 C 179.777344 276.976562 180.074219 277.019531 180.351562 277.050781 C 180.628906 277.082031 180.921875 277.128906 181.203125 277.160156 C 181.480469 277.191406 181.773438 277.238281 182.054688 277.269531 C 182.332031 277.300781 182.625 277.347656 182.902344 277.363281 C 183.476562 277.421875 184.035156 277.46875 184.589844 277.53125 C 185.148438 277.578125 185.71875 277.625 186.277344 277.65625 C 186.554688 277.671875 186.835938 277.703125 187.128906 277.71875 C 187.40625 277.734375 187.683594 277.75 187.964844 277.75 C 190.207031 277.871094 192.433594 277.855469 194.648438 277.734375 C 194.292969 277.421875 193.9375 277.128906 193.578125 276.820312 C 194.089844 276.820312 194.601562 276.773438 195.097656 276.757812 C 195.605469 276.726562 196.117188 276.710938 196.613281 276.679688 C 197.015625 276.757812 197.308594 276.929688 197.214844 277.097656 C 197.167969 277.175781 197.03125 277.269531 196.765625 277.332031 C 196.503906 277.40625 196.117188 277.46875 195.558594 277.484375 C 196.164062 277.734375 197.0625 277.53125 197.835938 277.253906 C 198.019531 277.175781 198.207031 277.113281 198.375 277.035156 C 198.546875 276.960938 198.6875 276.882812 198.808594 276.804688 C 199.058594 276.664062 199.210938 276.542969 199.226562 276.480469 C 200.296875 276.464844 200.742188 276.527344 200.820312 276.632812 C 200.898438 276.757812 200.621094 276.929688 200.234375 277.082031 C 199.476562 277.40625 198.332031 277.734375 198.996094 277.671875 L 200.773438 277.390625 L 200.355469 277.332031 C 201.054688 277.050781 201.410156 276.773438 201.933594 276.558594 C 202.199219 276.449219 202.492188 276.339844 202.878906 276.246094 C 203.265625 276.140625 203.761719 276.046875 204.410156 275.953125 C 205.246094 275.921875 205.476562 276.015625 205.585938 276.125 C 205.695312 276.230469 205.679688 276.355469 206.003906 276.308594 C 206.019531 276.371094 206.238281 276.371094 206.996094 276.140625 C 208.261719 275.90625 209.53125 275.660156 210.800781 275.367188 C 210.226562 275.242188 209.671875 275.117188 209.113281 274.980469 C 209.902344 274.59375 210.785156 274.390625 211.21875 274.234375 C 211.433594 274.160156 211.542969 274.082031 211.480469 274.003906 C 211.417969 273.925781 211.171875 273.847656 210.691406 273.742188 C 210.863281 273.789062 211.078125 273.816406 211.3125 273.816406 C 211.542969 273.816406 211.820312 273.816406 212.101562 273.789062 C 212.671875 273.742188 213.355469 273.648438 214.082031 273.476562 C 214.808594 273.324219 215.613281 273.136719 216.417969 272.890625 C 216.820312 272.765625 217.238281 272.640625 217.640625 272.519531 C 218.042969 272.378906 218.460938 272.238281 218.863281 272.101562 C 220.503906 271.527344 222.066406 270.878906 223.332031 270.351562 C 223.96875 270.089844 224.507812 269.839844 224.957031 269.671875 C 225.40625 269.5 225.746094 269.378906 225.949219 269.347656 C 226.429688 268.960938 226.921875 268.621094 227.433594 268.292969 C 227.945312 267.953125 228.46875 267.644531 229.011719 267.335938 C 230.09375 266.714844 231.269531 266.128906 232.554688 265.433594 C 232.199219 265.539062 231.828125 265.449219 231.8125 265.199219 C 231.8125 265.078125 231.890625 264.90625 232.121094 264.703125 C 232.230469 264.597656 232.386719 264.488281 232.570312 264.363281 C 232.757812 264.242188 232.988281 264.101562 233.265625 263.960938 C 233.296875 264.457031 233.578125 264.613281 234.023438 264.550781 C 234.472656 264.488281 235.09375 264.226562 235.773438 263.871094 C 236.113281 263.699219 236.46875 263.511719 236.839844 263.328125 C 237.210938 263.140625 237.570312 262.941406 237.941406 262.769531 C 238.296875 262.601562 238.667969 262.460938 239.007812 262.335938 C 239.347656 262.230469 239.671875 262.152344 239.980469 262.136719 C 239.488281 262.214844 239.59375 261.996094 239.996094 261.625 C 240.199219 261.441406 240.476562 261.222656 240.769531 260.976562 C 241.066406 260.726562 241.40625 260.464844 241.730469 260.203125 C 242.378906 259.675781 242.96875 259.136719 243.230469 258.792969 C 243.480469 258.4375 243.386719 258.285156 242.644531 258.46875 C 243.511719 257.898438 243.648438 258.003906 243.742188 258.191406 C 243.835938 258.359375 243.910156 258.625 244.671875 258.285156 C 246.417969 256.457031 248.585938 254.742188 250.8125 252.851562 C 253.039062 250.964844 255.332031 248.875 257.265625 246.433594 C 257.140625 246.199219 256.210938 246.757812 256.800781 245.519531 C 257.804688 244.945312 258.796875 244.34375 259.785156 243.722656 C 260.113281 243.199219 260.019531 242.765625 260.097656 242.300781 C 260.128906 242.070312 260.203125 241.835938 260.40625 241.574219 C 260.589844 241.308594 260.902344 241.015625 261.394531 240.691406 C 261.054688 240.832031 260.53125 241.03125 260.949219 240.335938 C 262.957031 238.0625 264.707031 235.523438 266.253906 232.847656 C 267.800781 230.171875 269.148438 227.371094 270.355469 224.507812 C 271.578125 221.644531 272.660156 218.734375 273.742188 215.8125 C 274.828125 212.886719 275.894531 209.964844 277.054688 207.039062 C 276.25 208.585938 276.449219 207.472656 276.699219 206.21875 C 276.417969 207.007812 276.140625 206.078125 275.785156 206.171875 C 276.09375 205.367188 276.40625 204.546875 276.699219 203.726562 L 277.132812 202.488281 C 277.269531 202.070312 277.425781 201.667969 277.550781 201.253906 C 277.363281 200.988281 277.316406 200.507812 277.332031 199.9375 C 277.332031 199.796875 277.347656 199.644531 277.363281 199.488281 C 277.378906 199.332031 277.378906 199.179688 277.394531 199.007812 C 277.425781 198.683594 277.457031 198.359375 277.488281 198.019531 C 277.519531 197.695312 277.566406 197.351562 277.582031 197.042969 C 277.597656 196.734375 277.609375 196.441406 277.609375 196.175781 C 277.597656 195.652344 277.535156 195.265625 277.332031 195.109375 L 277.347656 196.734375 C 276.945312 195.605469 276.328125 196.316406 275.644531 197.230469 C 274.949219 198.140625 274.191406 199.226562 273.574219 198.992188 C 273.773438 199.613281 273.710938 200.277344 273.542969 201.003906 C 273.355469 201.730469 273.015625 202.503906 272.707031 203.308594 C 272.535156 203.710938 272.367188 204.128906 272.226562 204.5625 C 272.148438 204.78125 272.085938 204.996094 272.027344 205.214844 C 271.964844 205.429688 271.902344 205.644531 271.839844 205.878906 C 271.730469 206.328125 271.65625 206.792969 271.640625 207.269531 C 271.609375 207.75 271.625 208.246094 271.714844 208.757812 C 271.265625 209.515625 271.484375 207.96875 271.097656 208.324219 C 271.253906 208.847656 271.296875 209.40625 271.175781 210.085938 C 271.113281 210.425781 271.019531 210.796875 270.894531 211.199219 C 270.773438 211.617188 270.585938 212.050781 270.386719 212.5625 L 270.324219 212.285156 C 270.214844 212.65625 270.121094 212.996094 270.03125 213.335938 C 269.921875 213.675781 269.8125 214 269.71875 214.3125 C 269.613281 214.621094 269.519531 214.929688 269.410156 215.222656 C 269.316406 215.519531 269.195312 215.8125 269.085938 216.089844 C 268.976562 216.367188 268.871094 216.648438 268.761719 216.910156 C 268.652344 217.171875 268.542969 217.4375 268.421875 217.699219 C 268.1875 218.210938 267.957031 218.71875 267.722656 219.230469 C 266.734375 221.257812 265.621094 223.316406 263.933594 226.242188 L 264.722656 226.085938 C 264.367188 226.71875 264.089844 227.074219 263.855469 227.339844 C 263.625 227.601562 263.421875 227.789062 263.207031 228.050781 C 263.238281 229.011719 263.730469 228.128906 264.242188 227.214844 C 264.507812 226.765625 264.738281 226.285156 264.953125 226.054688 C 265.15625 225.824219 265.324219 225.824219 265.386719 226.269531 C 264.398438 226.859375 263.191406 229.132812 261.890625 231.253906 C 260.605469 233.386719 259.214844 235.367188 258.238281 235.476562 C 256.957031 237.304688 259.214844 235.355469 257.929688 237.179688 L 257.265625 237.425781 L 257.34375 238.183594 C 257.109375 238.464844 256.878906 238.695312 256.660156 238.882812 C 256.445312 239.066406 256.242188 239.191406 256.058594 239.300781 C 255.6875 239.484375 255.40625 239.515625 255.253906 239.4375 C 255.5 239.175781 255.796875 238.585938 255.996094 238.261719 C 255.609375 238.570312 255.238281 238.988281 254.867188 239.453125 C 254.496094 239.917969 254.125 240.414062 253.785156 240.90625 C 253.441406 241.386719 253.132812 241.835938 252.871094 242.191406 C 252.609375 242.546875 252.390625 242.8125 252.265625 242.902344 C 252.792969 242.410156 253.320312 241.929688 253.828125 241.433594 C 252.050781 243.894531 249.714844 246.355469 247.316406 248.691406 C 247.023438 248.984375 246.710938 249.277344 246.402344 249.558594 C 246.09375 249.851562 245.800781 250.128906 245.503906 250.421875 C 245.195312 250.703125 244.902344 250.980469 244.59375 251.257812 C 244.300781 251.539062 244.003906 251.816406 243.695312 252.09375 C 243.09375 252.636719 242.519531 253.195312 241.945312 253.734375 C 241.667969 253.996094 241.390625 254.277344 241.113281 254.539062 C 240.832031 254.800781 240.570312 255.066406 240.308594 255.328125 L 240.847656 255.296875 C 240.445312 255.699219 240.089844 256.023438 239.765625 256.304688 C 239.441406 256.566406 239.160156 256.796875 238.914062 256.984375 C 238.652344 257.167969 238.433594 257.324219 238.203125 257.449219 C 237.984375 257.570312 237.769531 257.695312 237.554688 257.804688 C 236.6875 258.253906 235.773438 258.71875 233.746094 260.140625 L 233.855469 259.984375 C 233.515625 260.371094 233.082031 260.789062 232.570312 261.160156 C 232.324219 261.347656 232.042969 261.53125 231.765625 261.71875 C 231.625 261.8125 231.488281 261.90625 231.332031 261.980469 C 231.195312 262.058594 231.039062 262.152344 230.882812 262.230469 C 231.347656 261.765625 230.746094 261.90625 230.1875 262.027344 C 229.632812 262.136719 229.121094 262.214844 229.738281 261.65625 C 229.492188 261.84375 229.273438 261.996094 229.058594 262.152344 C 228.855469 262.292969 228.671875 262.429688 228.5 262.539062 C 228.160156 262.769531 227.914062 262.972656 227.710938 263.125 C 227.308594 263.453125 227.109375 263.605469 226.96875 263.792969 C 226.832031 263.960938 226.753906 264.117188 226.550781 264.394531 C 226.351562 264.660156 226.042969 265.0625 225.40625 265.648438 L 224.507812 265.507812 C 224.105469 265.957031 223.890625 266.222656 223.503906 266.53125 C 223.117188 266.839844 222.558594 267.195312 221.414062 267.722656 C 222.28125 267.132812 221.847656 267.117188 221.429688 267.058594 C 221.011719 267.011719 220.625 266.917969 221.570312 266.238281 C 220.917969 266.359375 220.332031 266.515625 219.773438 266.667969 C 219.234375 266.824219 218.722656 267.011719 218.257812 267.195312 C 217.792969 267.382812 217.359375 267.566406 216.957031 267.769531 C 216.554688 267.953125 216.183594 268.15625 215.828125 268.324219 C 215.472656 268.496094 215.132812 268.664062 214.808594 268.804688 C 214.484375 268.945312 214.160156 269.066406 213.847656 269.128906 C 213.214844 269.285156 212.582031 269.300781 211.914062 269.082031 C 211.433594 269.5625 211.464844 269.78125 211.792969 269.839844 C 211.945312 269.871094 212.179688 269.855469 212.441406 269.828125 C 212.703125 269.78125 212.996094 269.71875 213.308594 269.640625 C 213.617188 269.5625 213.925781 269.46875 214.203125 269.394531 C 214.5 269.316406 214.746094 269.222656 214.949219 269.160156 C 215.351562 269.039062 215.535156 268.992188 215.226562 269.175781 C 215.828125 269.222656 215.441406 269.609375 214.683594 270.042969 C 214.3125 270.257812 213.832031 270.476562 213.355469 270.660156 C 213.121094 270.753906 212.875 270.832031 212.640625 270.910156 C 212.410156 270.972656 212.179688 271.03125 211.976562 271.0625 C 211.574219 271.171875 211.15625 271.15625 210.722656 271.109375 C 210.289062 271.0625 209.8125 270.941406 209.253906 270.863281 C 208.976562 270.816406 208.679688 270.785156 208.371094 270.753906 C 208.0625 270.722656 207.707031 270.707031 207.351562 270.707031 C 206.980469 270.707031 206.578125 270.722656 206.144531 270.769531 C 205.710938 270.816406 205.246094 270.878906 204.734375 270.972656 C 205.136719 270.894531 205.152344 270.785156 205.554688 270.722656 C 204.75 270.691406 204.039062 270.972656 203.25 271.171875 C 202.863281 271.28125 202.460938 271.390625 202.027344 271.449219 C 201.59375 271.496094 201.144531 271.511719 200.652344 271.433594 C 200.417969 271.683594 200.140625 271.824219 199.863281 271.898438 C 199.582031 271.976562 199.289062 272.023438 199.042969 272.054688 C 198.515625 272.132812 198.097656 272.222656 198.003906 272.765625 L 199.90625 272.425781 L 201.796875 272.039062 C 201.269531 272.179688 200.757812 272.378906 200.21875 272.613281 C 199.691406 272.828125 199.132812 273.042969 198.53125 273.261719 C 197.925781 273.476562 197.277344 273.632812 196.535156 273.726562 C 195.808594 273.832031 194.988281 273.832031 194.074219 273.757812 C 194.355469 273.523438 195.40625 273.183594 196.117188 272.96875 C 195.574219 272.859375 195.082031 272.9375 194.570312 273.011719 C 194.058594 273.089844 193.550781 273.183594 192.992188 273.042969 C 193.054688 272.765625 193.378906 272.625 193.859375 272.503906 C 194.339844 272.394531 194.988281 272.332031 195.683594 272.269531 C 196.378906 272.195312 197.152344 272.117188 197.882812 272.007812 C 198.609375 271.867188 199.304688 271.699219 199.847656 271.421875 C 199.550781 271.34375 199.148438 271.375 198.714844 271.464844 C 198.285156 271.542969 197.820312 271.683594 197.417969 271.761719 C 196.628906 271.929688 196.101562 271.992188 196.628906 271.375 C 195.871094 272.179688 194.832031 272.195312 193.65625 272.179688 C 193.070312 272.164062 192.449219 272.132812 191.800781 272.179688 C 191.476562 272.210938 191.152344 272.238281 190.808594 272.316406 C 190.46875 272.378906 190.128906 272.488281 189.773438 272.625 L 189.960938 271.992188 C 189.511719 272.101562 188.597656 272.394531 187.777344 272.363281 L 189.261719 271.558594 C 188.691406 271.730469 188.132812 271.777344 187.59375 271.746094 C 187.035156 271.730469 186.507812 271.605469 185.96875 271.496094 C 185.703125 271.433594 185.441406 271.375 185.164062 271.328125 C 184.898438 271.265625 184.636719 271.203125 184.375 271.15625 C 183.847656 271.0625 183.304688 271.019531 182.765625 271.078125 C 185.023438 271.21875 185.269531 271.421875 185.179688 271.667969 C 185.101562 271.914062 184.667969 272.210938 185.628906 272.472656 C 184.914062 272.566406 184.328125 272.566406 183.847656 272.550781 C 183.351562 272.535156 182.964844 272.488281 182.640625 272.394531 C 181.976562 272.222656 181.574219 271.960938 181.15625 271.683594 C 180.738281 271.40625 180.289062 271.09375 179.578125 270.832031 C 178.851562 270.585938 177.859375 270.335938 176.3125 270.183594 C 176.730469 270.214844 177.503906 270.398438 178 270.617188 C 178.496094 270.832031 178.726562 271.046875 178.046875 271.109375 C 177.75 271.03125 177.441406 270.957031 177.117188 270.863281 C 176.792969 270.769531 176.484375 270.675781 176.171875 270.570312 C 175.570312 270.351562 175.027344 270.105469 174.6875 269.886719 C 172.644531 269.578125 172.769531 269.765625 173.1875 270.042969 C 173.605469 270.320312 174.300781 270.691406 173.386719 270.707031 C 172.769531 270.199219 172.242188 270.183594 171.65625 270.257812 C 171.363281 270.304688 171.035156 270.367188 170.679688 270.414062 C 170.496094 270.445312 170.308594 270.460938 170.109375 270.460938 C 169.90625 270.460938 169.691406 270.460938 169.457031 270.429688 L 169.597656 269.796875 C 169.023438 269.609375 168.578125 269.46875 168.21875 269.394531 C 167.863281 269.300781 167.601562 269.269531 167.386719 269.253906 C 166.96875 269.238281 166.78125 269.363281 166.613281 269.484375 C 166.441406 269.609375 166.285156 269.734375 165.929688 269.734375 C 165.574219 269.71875 165.003906 269.5625 163.996094 269.128906 L 165.992188 268.789062 C 165.265625 268.652344 164.523438 268.527344 163.78125 268.371094 C 163.996094 268.1875 164.214844 268 164.429688 267.816406 C 163.8125 267.769531 163.316406 267.691406 162.867188 267.613281 C 162.648438 267.566406 162.433594 267.535156 162.234375 267.472656 C 162.03125 267.429688 161.847656 267.367188 161.660156 267.304688 C 161.289062 267.179688 160.917969 267.027344 160.515625 266.855469 C 160.113281 266.671875 159.664062 266.453125 159.136719 266.191406 C 159.308594 266.5 159.136719 266.746094 158.675781 266.824219 C 158.195312 266.902344 157.4375 266.792969 156.445312 266.390625 C 156.152344 266.175781 156.058594 266.035156 156.058594 265.957031 C 156.058594 265.878906 156.121094 265.835938 156.152344 265.804688 C 156.199219 265.726562 156.042969 265.617188 154.652344 265.0625 C 155.039062 265.015625 155.457031 264.953125 155.890625 265.03125 C 156.105469 265.078125 156.320312 265.136719 156.554688 265.277344 C 156.785156 265.402344 157.019531 265.585938 157.265625 265.851562 C 157.46875 265.710938 158.039062 265.726562 158.242188 265.585938 C 157.605469 265.089844 156.722656 264.71875 155.890625 264.363281 C 155.472656 264.195312 155.054688 264.054688 154.683594 263.914062 C 154.3125 263.777344 153.984375 263.652344 153.753906 263.527344 C 154.125 263.730469 154.542969 263.960938 154.742188 264.164062 C 154.03125 263.992188 153.320312 263.824219 152.609375 263.652344 C 151.898438 263.46875 151.183594 263.28125 150.472656 263.082031 C 149.976562 262.539062 150.550781 262.632812 151.109375 262.707031 C 150.707031 262.539062 150.335938 262.445312 149.917969 262.320312 C 149.5 262.199219 149.035156 262.058594 148.460938 261.765625 C 149.003906 261.472656 149.1875 260.976562 150.90625 261.59375 C 150.257812 261.363281 149.605469 261.144531 148.972656 260.882812 C 148.339844 260.636719 147.6875 260.386719 147.054688 260.125 C 146.992188 259.953125 146.621094 259.550781 146.34375 259.210938 C 146.046875 258.871094 145.863281 258.5625 146.140625 258.625 C 145.707031 258.253906 145.167969 257.945312 144.546875 257.648438 C 143.945312 257.339844 143.277344 257.0625 142.597656 256.738281 C 141.25 256.101562 139.8125 255.375 138.746094 254.292969 C 138.558594 254.277344 138.25 254.167969 137.691406 253.828125 C 137.152344 253.363281 136.65625 252.882812 136.175781 252.402344 C 135.695312 251.910156 135.21875 251.414062 134.722656 250.933594 C 134.226562 250.4375 133.703125 249.960938 133.128906 249.480469 C 132.835938 249.230469 132.539062 249 132.214844 248.769531 C 132.0625 248.644531 131.890625 248.535156 131.722656 248.429688 C 131.550781 248.320312 131.378906 248.195312 131.195312 248.085938 L 130.839844 247.082031 L 130.667969 246.585938 L 130.515625 246.074219 C 129.523438 245.226562 129.753906 245.875 129.832031 246.402344 C 129.910156 246.925781 129.816406 247.3125 128.164062 245.84375 C 126.984375 244.808594 126.941406 244.453125 127.109375 244.234375 C 127.28125 244.019531 127.683594 243.957031 127.417969 243.460938 C 127.078125 243.261719 126.660156 243.011719 126.210938 242.71875 C 125.765625 242.425781 125.300781 242.085938 124.820312 241.683594 C 123.875 240.878906 122.964844 239.808594 122.421875 238.433594 C 122.777344 238.757812 123.039062 239.082031 123.289062 239.40625 C 123.535156 239.933594 123.785156 240.257812 124.09375 240.582031 Z M 108.742188 212.113281 C 108.898438 212.390625 109.160156 212.808594 109.363281 213.226562 C 109.578125 213.628906 109.71875 214.03125 109.609375 214.3125 C 109.144531 214.078125 108.960938 213.800781 108.867188 213.460938 C 108.773438 213.089844 108.789062 212.65625 108.742188 212.113281 Z M 107.707031 162.757812 C 107.769531 163.28125 107.460938 163.949219 106.980469 164.691406 C 107.105469 164.085938 107.320312 163.4375 107.707031 162.757812 Z M 222.699219 104.980469 C 222.667969 104.980469 222.652344 104.980469 222.621094 104.980469 C 222.296875 104.78125 222.082031 104.65625 221.957031 104.578125 C 221.832031 104.503906 221.785156 104.488281 221.832031 104.503906 C 221.878906 104.535156 222.234375 104.71875 222.699219 104.980469 Z M 225.484375 106.453125 C 225.808594 106.5 225.824219 106.40625 225.746094 106.265625 C 225.484375 106.328125 224.835938 106.050781 224.105469 105.695312 C 224.246094 105.941406 224.554688 106.21875 225.484375 106.453125 Z M 206.25 276.125 L 205.617188 276.078125 C 206.933594 275.628906 206.59375 275.859375 206.25 276.125 Z M 206.25 276.125 " fill-opacity="1" fill-rule="nonzero"/></g><path fill="#ffbd59" d="M 107.042969 168.480469 C 106.886719 168.636719 106.761719 168.652344 106.640625 168.667969 C 106.6875 168.929688 106.792969 168.960938 107.042969 168.480469 Z M 107.042969 168.480469 " fill-opacity="1" fill-rule="nonzero"/><path fill="#ffbd59" d="M 138.699219 254.398438 C 138.714844 254.429688 138.746094 254.445312 138.777344 254.460938 C 138.839844 254.460938 138.882812 254.445312 138.929688 254.429688 Z M 138.699219 254.398438 " fill-opacity="1" fill-rule="nonzero"/><path fill="#ffbd59" d="M 178.757812 104.90625 C 178.449219 104.890625 178.214844 104.875 178.015625 104.84375 C 177.8125 104.8125 177.675781 104.78125 177.550781 104.734375 C 177.550781 104.8125 177.613281 104.875 177.796875 104.90625 C 178 104.9375 178.308594 104.9375 178.757812 104.90625 Z M 178.757812 104.90625 " fill-opacity="1" fill-rule="nonzero"/><path fill="#ffbd59" d="M 240.554688 113.648438 C 239.964844 113.304688 239.378906 112.980469 238.773438 112.65625 C 239.609375 113.167969 239.828125 113.476562 240.167969 113.847656 C 240.230469 113.691406 240.027344 113.289062 240.554688 113.648438 Z M 240.554688 113.648438 " fill-opacity="1" fill-rule="nonzero"/><path fill="#ffbd59" d="M 251.152344 127.757812 C 251.402344 127.914062 251.570312 128.175781 251.835938 128.332031 L 251.988281 128.066406 C 251.136719 127.214844 250.363281 126.78125 251.152344 127.757812 Z M 251.152344 127.757812 " fill-opacity="1" fill-rule="nonzero"/><path fill="#ffbd59" d="M 240.832031 116.460938 C 240.738281 116.726562 240.972656 117.003906 241.359375 117.3125 C 241.558594 117.46875 241.808594 117.625 242.070312 117.792969 C 242.332031 117.964844 242.613281 118.148438 242.90625 118.335938 C 242.84375 118.289062 242.765625 118.242188 242.707031 118.179688 C 243.09375 118.011719 242.96875 117.746094 242.566406 117.4375 C 242.179688 117.128906 241.5 116.804688 240.832031 116.460938 Z M 240.832031 116.460938 " fill-opacity="1" fill-rule="nonzero"/><path fill="#ffbd59" d="M 243.183594 118.519531 C 243.539062 118.769531 243.898438 119.015625 244.207031 119.292969 C 244.515625 119.15625 243.835938 118.90625 243.183594 118.519531 Z M 243.183594 118.519531 " fill-opacity="1" fill-rule="nonzero"/><path fill="#ffbd59" d="M 229.230469 107.828125 C 229.769531 108.246094 229.910156 107.394531 230.15625 107.765625 C 230.652344 107.628906 229.554688 107.320312 228.765625 107.195312 C 228.378906 107.132812 228.054688 107.148438 228.054688 107.226562 C 228.054688 107.320312 228.378906 107.488281 229.230469 107.828125 Z M 229.230469 107.828125 " fill-opacity="1" fill-rule="nonzero"/><path fill="#ffbd59" d="M 240.679688 118.566406 L 240.679688 117.730469 L 239.75 117.714844 Z M 240.679688 118.566406 " fill-opacity="1" fill-rule="nonzero"/><path fill="#ffbd59" d="M 231.921875 112.300781 C 232.214844 112.5 232.523438 112.703125 232.816406 112.917969 L 233.714844 113.554688 C 233.746094 113.445312 234.007812 113.523438 234.335938 113.664062 C 233.761719 113.304688 233.175781 112.917969 232.726562 112.640625 C 232.261719 112.363281 231.9375 112.207031 231.921875 112.300781 Z M 231.921875 112.300781 " fill-opacity="1" fill-rule="nonzero"/><path fill="#ffbd59" d="M 234.335938 113.664062 C 234.921875 114.035156 235.496094 114.390625 235.882812 114.496094 C 235.558594 114.296875 234.859375 113.878906 234.335938 113.664062 Z M 234.335938 113.664062 " fill-opacity="1" fill-rule="nonzero"/><path fill="#ffbd59" d="M 238.15625 117.003906 C 238 116.851562 237.863281 116.679688 237.707031 116.523438 L 236.453125 115.644531 L 237.304688 116.324219 L 237.738281 116.664062 Z M 238.15625 117.003906 " fill-opacity="1" fill-rule="nonzero"/><path fill="#ffbd59" d="M 210.167969 103.558594 L 208.992188 103.375 C 208.589844 103.3125 208.203125 103.265625 207.800781 103.21875 C 207.519531 103.386719 208.125 103.667969 209.007812 103.773438 C 209.59375 103.730469 210.476562 103.851562 210.167969 103.558594 Z M 210.167969 103.558594 " fill-opacity="1" fill-rule="nonzero"/><path fill="#ffbd59" d="M 216.527344 107.304688 C 215.96875 106.976562 215.96875 106.824219 215.707031 106.5 L 215.378906 107.273438 Z M 216.527344 107.304688 " fill-opacity="1" fill-rule="nonzero"/><path fill="#ffbd59" d="M 209.933594 105.585938 C 209.796875 105.664062 208.929688 105.632812 208.464844 105.648438 C 208 105.679688 207.9375 105.742188 209.363281 106.066406 C 209.5 105.988281 210.152344 106.035156 210.507812 106.019531 C 210.691406 106.019531 210.785156 105.988281 210.722656 105.925781 C 210.691406 105.894531 210.613281 105.847656 210.492188 105.785156 C 210.367188 105.742188 210.183594 105.679688 209.933594 105.585938 Z M 209.933594 105.585938 " fill-opacity="1" fill-rule="nonzero"/><path fill="#ffbd59" d="M 174.875 103.171875 L 175.460938 103.0625 L 175.167969 101.734375 Z M 174.875 103.171875 " fill-opacity="1" fill-rule="nonzero"/><path fill="#ffbd59" d="M 147.191406 116.617188 C 147.503906 116.476562 147.734375 116.371094 147.921875 116.261719 C 148.105469 116.167969 148.230469 116.074219 148.308594 116 C 148.476562 115.84375 148.492188 115.71875 148.492188 115.597656 C 148.507812 115.363281 148.492188 115.148438 149.667969 114.730469 C 149.871094 114.4375 149.390625 114.589844 148.910156 114.777344 C 148.429688 114.945312 147.96875 115.132812 148.183594 114.855469 C 147.859375 115.132812 147.582031 115.347656 147.332031 115.535156 C 147.101562 115.71875 146.914062 115.875 146.792969 116 C 146.574219 116.261719 146.652344 116.417969 147.191406 116.617188 Z M 147.191406 116.617188 " fill-opacity="1" fill-rule="nonzero"/><path fill="#ffbd59" d="M 148.199219 114.839844 C 148.398438 114.667969 148.617188 114.46875 148.832031 114.25 C 148.445312 114.558594 148.292969 114.730469 148.199219 114.839844 Z M 148.199219 114.839844 " fill-opacity="1" fill-rule="nonzero"/><path fill="#ffbd59" d="M 278.710938 198.019531 C 278.878906 197.414062 279.019531 196.796875 279.175781 196.175781 L 278.617188 197.335938 C 278.648438 197.570312 278.664062 197.785156 278.710938 198.019531 Z M 278.710938 198.019531 " fill-opacity="1" fill-rule="nonzero"/><path fill="#ffbd59" d="M 278.011719 194.367188 L 278.910156 193.980469 L 278.199219 192.820312 C 278.199219 193.238281 278.214844 194.058594 278.011719 194.367188 Z M 278.011719 194.367188 " fill-opacity="1" fill-rule="nonzero"/><path fill="#ffbd59" d="M 109.207031 207.023438 L 108.976562 206.945312 C 108.820312 207.253906 108.898438 207.640625 109.054688 208.445312 Z M 109.207031 207.023438 " fill-opacity="1" fill-rule="nonzero"/><path fill="#ffbd59" d="M 117.007812 228.871094 L 116.820312 228.515625 L 116.511719 229.566406 Z M 117.007812 228.871094 " fill-opacity="1" fill-rule="nonzero"/><path fill="#ffbd59" d="M 129.277344 244.003906 C 129.027344 243.695312 128.703125 243.414062 128.378906 243.121094 C 128.070312 242.828125 127.761719 242.515625 127.496094 242.207031 C 128.75 243.414062 128.703125 244.824219 129.277344 244.003906 Z M 129.277344 244.003906 " fill-opacity="1" fill-rule="nonzero"/><g clip-path="url(#2554c76579)"><path fill="#ffbd59" d="M 337.472656 161.179688 C 329.304688 161.179688 330.234375 170.058594 304.78125 170.058594 C 282.128906 170.058594 255.316406 166.175781 235.046875 166.175781 C 222.359375 166.175781 211.730469 170.292969 203.125 176.621094 C 202.414062 168.777344 201.191406 164.382812 200.667969 162.136719 C 199.691406 157.960938 195.589844 158.65625 194.445312 161.300781 C 194.445312 161.316406 194.445312 161.316406 194.429688 161.316406 C 194.429688 161.316406 194.429688 161.332031 194.429688 161.332031 C 193.625 163.25 187.066406 188.503906 181.324219 188.503906 C 177.613281 188.503906 179.746094 174.996094 179.746094 167.273438 C 179.746094 165.09375 178.742188 163.839844 177.441406 163.25 C 177.457031 163.234375 177.457031 163.234375 177.472656 163.222656 C 176.871094 162.957031 176.1875 162.835938 175.539062 162.835938 C 173.867188 162.804688 172.242188 163.546875 171.855469 164.660156 C 171.640625 165.277344 171.4375 165.976562 171.253906 166.75 C 167.632812 170.757812 160.222656 176.296875 143.277344 176.296875 C 119.203125 176.296875 80.613281 166.332031 61.089844 166.332031 C 47.394531 166.332031 33.238281 168.328125 33.238281 176.386719 C 33.238281 178.832031 35.171875 180.117188 37.523438 180.117188 C 45.695312 180.117188 44.765625 171.234375 70.21875 171.234375 C 92.871094 171.234375 119.683594 179.511719 139.953125 179.511719 C 156.027344 179.511719 165.480469 175.382812 170.527344 171.21875 C 169.566406 180.285156 171.144531 192.789062 179.855469 192.789062 C 187.25 192.789062 192.527344 175.226562 194.355469 169.117188 C 194.460938 173.230469 194.570312 178.785156 194.585938 184.21875 C 182.191406 197.539062 176.003906 215.394531 176.003906 227.632812 C 176.003906 235.324219 179.097656 236.855469 182.191406 236.855469 C 195.605469 236.855469 203.652344 204.175781 203.652344 189.121094 C 203.652344 185.703125 203.542969 182.652344 203.390625 179.960938 C 211.125 173.585938 221.058594 169.363281 233.40625 169.363281 C 257.480469 169.363281 294.367188 174.933594 313.894531 174.933594 C 327.585938 174.933594 341.746094 172.9375 341.746094 164.875 C 341.761719 162.476562 339.8125 161.179688 337.472656 161.179688 Z M 182.347656 230.449219 C 181.882812 230.449219 181.433594 229.335938 181.433594 227.015625 C 181.433594 216.460938 185.519531 201.421875 194.523438 189.371094 C 193.65625 209.746094 184.792969 230.449219 182.347656 230.449219 Z M 182.347656 230.449219 " fill-opacity="1" fill-rule="nonzero"/></g></svg>