<svg xmlns="http://www.w3.org/2000/svg" xmlns:xlink="http://www.w3.org/1999/xlink" width="500" zoomAndPan="magnify" viewBox="0 0 375 374.999991" height="500" preserveAspectRatio="xMidYMid meet" version="1.0"><defs><clipPath id="6fff68e3ae"><path d="M 93.558594 95.949219 L 228 95.949219 L 228 228 L 93.558594 228 Z M 93.558594 95.949219 " clip-rule="nonzero"/></clipPath><clipPath id="241393b1f0"><path d="M 93.558594 95.949219 L 226 95.949219 L 226 257 L 93.558594 257 Z M 93.558594 95.949219 " clip-rule="nonzero"/></clipPath><clipPath id="e17e0527d8"><path d="M 181 95.949219 L 274 95.949219 L 274 227 L 181 227 Z M 181 95.949219 " clip-rule="nonzero"/></clipPath><clipPath id="aec46cb265"><path d="M 139 173 L 231 173 L 231 278.949219 L 139 278.949219 Z M 139 173 " clip-rule="nonzero"/></clipPath><clipPath id="b6235e6fe4"><path d="M 142 254 L 227 254 L 227 278.949219 L 142 278.949219 Z M 142 254 " clip-rule="nonzero"/></clipPath><clipPath id="320b350aec"><path d="M 118 229 L 252 229 L 252 278.949219 L 118 278.949219 Z M 118 229 " clip-rule="nonzero"/></clipPath></defs><rect x="-37.5" width="450" fill="#ffffff" y="-37.499999" height="449.999989" fill-opacity="1"/><rect x="-37.5" width="450" fill="#ffffff" y="-37.499999" height="449.999989" fill-opacity="1"/><path fill="#38b6ff" d="M 106.664062 101.585938 C 109.164062 101.671875 117.816406 105.152344 127.191406 116.699219 C 136.570312 128.246094 146.671875 147.859375 150.925781 158.867188 C 155.179688 169.875 153.585938 172.277344 149.386719 167.296875 C 145.191406 162.320312 138.390625 149.957031 131.636719 138.863281 C 124.886719 127.769531 118.179688 117.949219 113 111.382812 C 107.820312 104.8125 104.164062 101.5 106.664062 101.585938 " fill-opacity="1" fill-rule="evenodd"/><path fill="#ffde59" d="M 188.574219 175.019531 C 191.703125 177.355469 193.433594 180.671875 196.992188 182.792969 C 200.550781 184.910156 205.941406 185.832031 210.121094 184.027344 C 214.300781 182.226562 217.273438 177.699219 216.964844 178.386719 C 216.652344 179.070312 213.0625 184.964844 210.460938 193.945312 C 207.859375 202.921875 206.246094 214.984375 205.1875 223.089844 C 204.132812 231.195312 203.628906 235.347656 202.308594 238.429688 C 200.988281 241.515625 198.851562 243.535156 196.890625 242.46875 C 194.929688 241.398438 193.144531 237.238281 190.214844 229.476562 C 187.285156 221.710938 183.210938 210.347656 179.40625 200.660156 C 175.601562 190.972656 172.074219 182.964844 171.617188 178.128906 C 171.15625 173.292969 173.773438 171.628906 177.34375 171.476562 C 180.914062 171.324219 185.445312 172.679688 188.574219 175.019531 " fill-opacity="1" fill-rule="evenodd"/><path fill="#ff914d" d="M 167.292969 96.632812 C 173.414062 96.929688 168.066406 97.523438 164.082031 99.246094 C 160.101562 100.96875 157.488281 103.824219 157.070312 107.269531 C 156.65625 110.71875 158.4375 114.757812 166.164062 129.375 C 173.890625 143.996094 187.558594 169.195312 195.164062 183.992188 C 202.769531 198.789062 204.316406 203.1875 201.285156 202.890625 C 198.253906 202.59375 190.648438 197.601562 180.84375 182.328125 C 171.035156 167.054688 159.03125 141.5 150.652344 126.40625 C 142.273438 111.3125 137.519531 106.675781 130.386719 103.765625 C 123.257812 100.851562 113.75 99.664062 106.320312 98.832031 C 98.890625 98 93.542969 97.523438 97.167969 97.167969 C 100.792969 96.808594 113.390625 96.574219 128.484375 96.453125 C 143.582031 96.335938 161.171875 96.335938 167.292969 96.632812 " fill-opacity="1" fill-rule="evenodd"/><g clip-path="url(#6fff68e3ae)"><path stroke-linecap="butt" transform="matrix(0.0112095, 0, 0, -0.0112095, 94.522227, 279.05342)" fill="none" stroke-linejoin="miter" d="M 6491.861136 16273.351994 C 7037.922502 16246.867844 6560.510842 16193.899543 6205.41414 16040.221775 C 5850.317437 15886.544007 5616.838742 15632.156771 5579.900322 15324.45276 C 5542.613426 15017.097223 5701.866804 14656.773386 6391.151669 13352.428974 C 7080.088058 12048.084561 8299.404408 9800.416524 8978.235003 8480.390707 C 9656.717122 7160.364889 9794.713485 6767.981291 9524.296369 6794.465442 C 9253.879253 6820.949592 8575.048659 7266.301492 7700.374741 8628.84134 C 6825.700823 9991.381189 5754.835105 12270.760511 5007.354805 13617.618954 C 4259.874504 14964.128922 3835.77962 15377.421061 3199.463057 15637.383906 C 2563.494969 15896.998277 1714.956726 16002.934879 1052.504487 16077.160195 C 389.703773 16151.733987 -87.359412 16193.899543 236.026005 16225.959304 C 559.411422 16257.670589 1683.24544 16278.927605 3029.755408 16289.381875 C 4376.613852 16299.836145 5945.799769 16299.836145 6491.861136 16273.351994 Z M 6491.861136 16273.351994 " stroke="#ffffff" stroke-width="67.625" stroke-opacity="1" stroke-miterlimit="22.926001"/></g><g clip-path="url(#241393b1f0)"><path stroke-linecap="butt" transform="matrix(0.0110847, 0, 0, -0.0110847, 94.522227, 279.05342)" fill="none" stroke-linejoin="miter" d="M 526.945637 16144.339101 C 923.394465 15988.931161 1479.127621 15641.11339 2303.741181 14443.309333 C 3128.354742 13245.152878 4221.848707 11197.362536 5052.805449 9658.788687 C 5883.762191 8120.214838 6452.181709 7090.857484 6881.05124 6468.873324 C 7309.920772 5846.889164 7599.592715 5632.630597 8065.816535 5219.619019 C 8532.392755 4806.95984 9175.520853 4195.900048 9448.982444 4303.029331 C 9722.444035 4410.158614 9625.88672 5235.829371 9604.390384 5852.175148 C 9583.246447 6468.873324 9636.811088 6876.246518 9068.39157 8045.153861 C 8499.972051 9213.708804 7309.920772 11143.797894 6409.189036 12575.242459 C 5508.457301 14006.334626 4897.397508 14939.487065 4176.74164 15454.694341 C 3456.085772 15970.254016 2625.833828 16067.868527 1854.080111 16127.071552 C 1081.973995 16185.922178 368.013707 16206.008919 130.144411 16234.553234 C -107.724885 16263.09755 130.144411 16300.09944 526.945637 16144.339101 Z M 526.945637 16144.339101 " stroke="#ffffff" stroke-width="68.385002" stroke-opacity="1" stroke-miterlimit="22.926001"/></g><path fill="#ffbd59" d="M 230.109375 97.40625 C 238.191406 97.167969 259.820312 97.285156 270.636719 97.34375 C 281.453125 97.40625 281.453125 97.40625 278.898438 97.878906 C 276.34375 98.355469 271.230469 99.308594 266.535156 102.160156 C 261.84375 105.011719 257.5625 109.765625 254.175781 113.925781 C 250.789062 118.085938 248.292969 121.652344 247.578125 120.523438 C 246.867188 119.394531 247.9375 113.570312 245.796875 109.171875 C 243.65625 104.773438 238.308594 101.800781 232.902344 100.019531 C 227.492188 98.238281 222.027344 97.644531 230.109375 97.40625 " fill-opacity="1" fill-rule="evenodd"/><path fill="#ff914d" d="M 240.558594 129.890625 C 231.628906 145.289062 216.113281 175.808594 209.472656 190.863281 C 202.828125 205.914062 205.058594 205.5 213.988281 190.101562 C 222.917969 174.699219 238.546875 144.3125 245.191406 129.257812 C 251.832031 114.207031 249.488281 114.488281 240.558594 129.890625 " fill-opacity="1" fill-rule="evenodd"/><g clip-path="url(#e17e0527d8)"><path stroke-linecap="butt" transform="matrix(0.0101131, 0, 0, -0.0101131, 94.522227, 279.05342)" fill="none" stroke-linejoin="miter" d="M 14440.322658 14749.469182 C 13557.340072 13226.459411 12023.128859 10208.636599 11366.106383 8720.389921 C 10709.470164 7232.143243 10929.636426 7272.700186 11812.619012 8795.709958 C 12695.601599 10318.333473 14241.014253 13323.023561 14898.036729 14811.656495 C 15554.672948 16299.903173 15322.918988 16272.092698 14440.322658 14749.469182 Z M 14440.322658 14749.469182 " stroke="#ffffff" stroke-width="74.957001" stroke-opacity="1" stroke-miterlimit="22.926001"/></g><g clip-path="url(#aec46cb265)"><path stroke-linecap="butt" transform="matrix(0.00891414, 0, 0, -0.00891414, 94.522227, 279.05342)" fill="none" stroke-linejoin="miter" d="M 12143.320151 6997.602799 C 12489.94275 5804.362171 12450.065814 3750.919064 12429.908242 2557.678437 C 12410.188878 1364.437809 12410.188878 1030.961453 11950.070384 1077.411511 C 11489.95189 1124.299776 10570.15311 1550.676247 9896.627277 1537.530005 C 9223.539651 1524.383762 8796.724972 1070.838389 8429.944801 810.980992 C 8063.602839 550.685387 7756.857176 484.077758 7830.037927 677.327525 C 7903.656886 871.0155 8356.76405 1324.122665 8541.249656 2595.364332 C 8725.735262 3866.606 8641.1611 5955.105754 8541.249656 7201.807768 C 8441.338212 8448.509783 8325.651276 8852.975849 8621.441736 8988.820357 C 8916.793989 9124.226657 9623.623637 8991.011398 10343.599528 8757.446486 C 11063.575419 8524.319782 11796.697552 8190.843426 12143.320151 6997.602799 Z M 12143.320151 6997.602799 " stroke="#ffffff" stroke-width="85.039001" stroke-opacity="1" stroke-miterlimit="22.926001"/></g><g clip-path="url(#b6235e6fe4)"><path fill="#ff914d" d="M 204.421875 261.902344 C 205.550781 264.753906 205.886719 268.082031 207.417969 271.09375 C 208.953125 274.105469 211.683594 276.804688 216.914062 277.636719 C 222.144531 278.46875 229.871094 277.433594 225.234375 277.433594 C 220.597656 277.433594 203.601562 278.46875 188.746094 278.585938 C 173.890625 278.707031 161.171875 277.910156 152.910156 277.910156 C 144.652344 277.910156 140.847656 278.707031 143.898438 278.105469 C 146.945312 277.507812 156.851562 275.511719 164.101562 271.132812 C 171.351562 266.753906 175.949219 259.988281 181.394531 256.785156 C 186.84375 253.582031 193.144531 253.9375 197.257812 255.304688 C 201.367188 256.671875 203.292969 259.050781 204.421875 261.902344 " fill-opacity="1" fill-rule="evenodd"/></g><g clip-path="url(#320b350aec)"><path stroke-linecap="butt" transform="matrix(0.00891414, 0, 0, -0.00891414, 94.522227, 279.05342)" fill="none" stroke-linejoin="miter" d="M 12328.682173 1924.029539 C 12455.324311 1604.137634 12493.010206 1230.784342 12664.787778 892.925905 C 12837.003557 555.067468 13143.311011 252.265678 13730.071643 158.927355 C 14316.832275 65.589032 15183.607876 181.714176 14663.454873 181.714176 C 14143.301871 181.714176 12236.658474 65.589032 10570.15311 52.442789 C 8903.647746 38.858339 7476.842207 128.252789 6550.032098 128.252789 C 5623.660197 128.252789 5196.845518 38.858339 5539.086035 106.342384 C 5880.888345 173.388222 6992.18406 397.312556 7805.498274 888.543824 C 8618.812488 1379.775092 9134.583409 2138.751503 9745.445486 2498.082137 C 10356.745771 2857.41277 11063.575419 2817.535834 11525.008537 2664.163002 C 11986.003447 2510.790171 12202.040035 2243.921445 12328.682173 1924.029539 Z M 12328.682173 1924.029539 " stroke="#ffffff" stroke-width="85.039001" stroke-opacity="1" stroke-miterlimit="22.926001"/></g></svg>