<svg xmlns="http://www.w3.org/2000/svg" xmlns:xlink="http://www.w3.org/1999/xlink" width="500" zoomAndPan="magnify" viewBox="0 0 375 374.999991" height="500" preserveAspectRatio="xMidYMid meet" version="1.0"><defs><clipPath id="cca8dcea0e"><path d="M 105 105.605469 L 202 105.605469 L 202 202 L 105 202 Z M 105 105.605469 " clip-rule="nonzero"/></clipPath><clipPath id="660e71da0d"><path d="M 103.464844 105.605469 L 224 105.605469 L 224 224 L 103.464844 224 Z M 103.464844 105.605469 " clip-rule="nonzero"/></clipPath><clipPath id="8ea005395f"><path d="M 103.464844 105.605469 L 222 105.605469 L 222 249 L 103.464844 249 Z M 103.464844 105.605469 " clip-rule="nonzero"/></clipPath><clipPath id="481f3d2db6"><path d="M 181 105.605469 L 265 105.605469 L 265 223 L 181 223 Z M 181 105.605469 " clip-rule="nonzero"/></clipPath><clipPath id="a81c6a0e3b"><path d="M 144 175 L 226 175 L 226 269.105469 L 144 269.105469 Z M 144 175 " clip-rule="nonzero"/></clipPath><clipPath id="4de2842818"><path d="M 125 225 L 245 225 L 245 269.105469 L 125 269.105469 Z M 125 225 " clip-rule="nonzero"/></clipPath></defs><rect x="-37.5" width="450" fill="#ffffff" y="-37.499999" height="449.999989" fill-opacity="1"/><rect x="-37.5" width="450" fill="#ffffff" y="-37.499999" height="449.999989" fill-opacity="1"/><path fill="#38b6ff" d="M 115.195312 110.648438 C 117.429688 110.722656 125.167969 113.839844 133.558594 124.167969 C 141.945312 134.5 150.984375 152.042969 154.789062 161.886719 C 158.59375 171.734375 157.167969 173.886719 153.410156 169.429688 C 149.65625 164.976562 143.574219 153.917969 137.535156 143.996094 C 131.492188 134.070312 125.496094 125.285156 120.863281 119.410156 C 116.226562 113.535156 112.957031 110.570312 115.195312 110.648438 " fill-opacity="1" fill-rule="evenodd"/><path fill="#ffde59" d="M 188.464844 176.335938 C 191.265625 178.425781 192.8125 181.394531 195.996094 183.289062 C 199.179688 185.1875 204 186.007812 207.738281 184.398438 C 211.476562 182.785156 214.136719 178.734375 213.859375 179.347656 C 213.585938 179.960938 210.371094 185.234375 208.042969 193.265625 C 205.714844 201.296875 204.273438 212.089844 203.328125 219.339844 C 202.382812 226.589844 201.933594 230.300781 200.753906 233.0625 C 199.570312 235.820312 197.660156 237.628906 195.902344 236.671875 C 194.148438 235.714844 192.554688 231.996094 189.933594 225.050781 C 187.3125 218.105469 183.667969 207.941406 180.265625 199.273438 C 176.863281 190.609375 173.703125 183.445312 173.292969 179.121094 C 172.886719 174.792969 175.222656 173.304688 178.417969 173.167969 C 181.613281 173.03125 185.664062 174.246094 188.464844 176.335938 " fill-opacity="1" fill-rule="evenodd"/><g clip-path="url(#cca8dcea0e)"><path fill="#ff914d" d="M 169.429688 106.21875 C 174.902344 106.484375 170.121094 107.015625 166.558594 108.554688 C 162.996094 110.097656 160.65625 112.648438 160.285156 115.734375 C 159.914062 118.816406 161.507812 122.429688 168.417969 135.507812 C 175.328125 148.585938 187.554688 171.125 194.359375 184.363281 C 201.164062 197.601562 202.546875 201.535156 199.835938 201.269531 C 197.125 201.003906 190.320312 196.535156 181.550781 182.875 C 172.777344 169.210938 162.039062 146.351562 154.542969 132.851562 C 147.046875 119.347656 142.792969 115.203125 136.414062 112.597656 C 130.035156 109.992188 121.53125 108.929688 114.886719 108.183594 C 108.242188 107.441406 103.457031 107.015625 106.699219 106.695312 C 109.941406 106.375 121.210938 106.164062 134.714844 106.058594 C 148.21875 105.953125 163.953125 105.953125 169.429688 106.21875 " fill-opacity="1" fill-rule="evenodd"/></g><g clip-path="url(#660e71da0d)"><path stroke-linecap="butt" transform="matrix(0.010025, 0, 0, -0.010025, 104.337646, 269.358117)" fill="none" stroke-linejoin="miter" d="M 6492.958089 16273.608934 C 7038.857812 16247.11273 6561.926148 16193.730673 6206.5653 16040.208552 C 5851.204452 15886.296781 5617.80407 15631.855297 5580.787315 15324.421406 C 5543.77056 15016.597864 5702.747782 14656.171565 6392.038725 13351.623189 C 7081.329668 12047.074813 8300.934333 9798.794009 8979.704725 8478.269981 C 9658.475116 7157.745952 9796.411235 6765.368349 9525.994098 6791.864553 C 9255.576962 6818.750406 8576.80657 7264.120417 7702.042202 8626.726651 C 6826.888184 9989.722535 5755.740189 12269.954643 5008.001738 13616.974875 C 4260.263287 14963.605457 3836.32403 15377.413813 3199.635844 15637.310398 C 2563.337308 15896.817333 1715.069143 16003.191797 1052.274404 16077.225307 C 389.479664 16151.648467 -87.84165 16193.730673 235.567893 16225.681977 C 558.977437 16257.633282 1683.117839 16278.674384 3030.138071 16289.584586 C 4377.158303 16300.105137 5946.668715 16300.105137 6492.958089 16273.608934 Z M 6492.958089 16273.608934 " stroke="#231f20" stroke-width="67.641998" stroke-opacity="1" stroke-miterlimit="22.926001"/></g><g clip-path="url(#8ea005395f)"><path stroke-linecap="butt" transform="matrix(0.00991338, 0, 0, -0.00991338, 104.337646, 269.358117)" fill="none" stroke-linejoin="miter" d="M 526.262465 16144.398137 C 923.058734 15989.147164 1479.046357 15640.817569 2303.767897 14442.548001 C 3128.489438 13244.672472 4222.338934 11196.068893 5053.759121 9656.956453 C 5884.78527 8117.844013 6453.382108 7088.222711 6882.489494 6466.430742 C 7311.202841 5844.244735 7600.820774 5629.888061 8067.361769 5216.936234 C 8533.902765 4803.984406 9177.366824 4192.437425 9450.829198 4300.0098 C 9724.291573 4407.188137 9627.752262 5233.091792 9606.47421 5849.761267 C 9585.196157 6466.430742 9638.785326 6873.866037 9070.188487 8042.976792 C 8501.985687 9212.087548 7311.202841 11142.479725 6410.431966 12574.01979 C 5509.661091 14005.953894 4898.11411 14939.035885 4177.418602 15454.437593 C 3456.329056 15969.839302 2626.090984 16067.954764 1853.776498 16127.060465 C 1081.856049 16185.772127 367.859188 16205.868065 129.860234 16234.63284 C -108.532758 16263.003576 129.466196 16300.043148 526.262465 16144.398137 Z M 526.262465 16144.398137 " stroke="#231f20" stroke-width="68.403" stroke-opacity="1" stroke-miterlimit="22.926001"/></g><path fill="#ffbd59" d="M 225.621094 106.910156 C 232.847656 106.695312 252.199219 106.800781 261.875 106.855469 C 271.550781 106.910156 271.550781 106.910156 269.265625 107.332031 C 266.976562 107.757812 262.40625 108.609375 258.207031 111.160156 C 254.007812 113.710938 250.179688 117.964844 247.148438 121.6875 C 244.117188 125.40625 241.886719 128.597656 241.25 127.585938 C 240.609375 126.578125 241.566406 121.367188 239.652344 117.433594 C 237.738281 113.5 232.953125 110.839844 228.117188 109.246094 C 223.28125 107.652344 218.390625 107.121094 225.621094 106.910156 " fill-opacity="1" fill-rule="evenodd"/><path fill="#ff914d" d="M 234.96875 135.96875 C 226.980469 149.742188 213.101562 177.042969 207.160156 190.507812 C 201.214844 203.976562 203.210938 203.605469 211.199219 189.828125 C 219.1875 176.050781 233.167969 148.871094 239.109375 135.40625 C 245.050781 121.9375 242.957031 122.191406 234.96875 135.96875 " fill-opacity="1" fill-rule="evenodd"/><g clip-path="url(#481f3d2db6)"><path stroke-linecap="butt" transform="matrix(0.00904421, 0, 0, -0.00904421, 104.337646, 269.358117)" fill="none" stroke-linejoin="miter" d="M 14443.618737 14749.02617 C 13560.37053 13225.692954 12025.807752 10207.100426 11368.878401 8718.319706 C 10711.949049 7229.538987 10932.221218 7270.138171 11815.469426 8793.471388 C 12698.717633 10316.804604 14244.509972 13322.439946 14901.87123 14811.220665 C 15558.800581 16300.001384 15326.866944 16272.359387 14443.618737 14749.02617 Z M 14443.618737 14749.02617 " stroke="#231f20" stroke-width="74.977997" stroke-opacity="1" stroke-miterlimit="22.926001"/></g><g clip-path="url(#a81c6a0e3b)"><path stroke-linecap="butt" transform="matrix(0.00797409, 0, 0, -0.00797409, 104.337646, 269.358117)" fill="none" stroke-linejoin="miter" d="M 12142.633498 6992.217878 C 12489.460034 5798.899456 12449.290859 3745.372847 12429.206272 2552.054425 C 12409.611552 1358.736004 12409.611552 1025.625772 11949.625511 1072.163231 C 11489.639469 1118.70069 10569.177518 1545.375708 9896.098901 1532.149272 C 9222.530416 1518.922837 8796.345266 1065.305079 8429.434142 805.675045 C 8063.012886 545.555143 7756.355525 478.933096 7829.345855 672.430952 C 7902.826054 865.438939 8355.953943 1319.056697 8540.634175 2590.264129 C 8724.824539 3860.981692 8640.567245 5950.268665 8540.634175 7196.492829 C 8440.701106 8443.206861 8325.09226 8847.83782 8620.482658 8983.531253 C 8916.362923 9118.734818 9622.752563 8985.490725 10342.858507 8752.313562 C 11062.964451 8519.136399 11796.29683 8185.536299 12142.633498 6992.217878 Z M 12142.633498 6992.217878 " stroke="#231f20" stroke-width="85.039001" stroke-opacity="1" stroke-miterlimit="22.926001"/></g><path fill="#ff914d" d="M 202.640625 254.058594 C 203.652344 256.609375 203.949219 259.585938 205.324219 262.28125 C 206.695312 264.976562 209.140625 267.386719 213.816406 268.132812 C 218.496094 268.875 225.40625 267.953125 221.261719 267.953125 C 217.113281 267.953125 201.910156 268.875 188.617188 268.984375 C 175.328125 269.089844 163.953125 268.375 156.5625 268.375 C 149.175781 268.375 145.773438 269.089844 148.5 268.550781 C 151.230469 268.015625 160.085938 266.230469 166.574219 262.3125 C 173.058594 258.398438 177.171875 252.347656 182.042969 249.480469 C 186.917969 246.613281 192.554688 246.933594 196.230469 248.15625 C 199.910156 249.378906 201.632812 251.507812 202.640625 254.058594 " fill-opacity="1" fill-rule="evenodd"/><g clip-path="url(#4de2842818)"><path stroke-linecap="butt" transform="matrix(0.00797409, 0, 0, -0.00797409, 104.337646, 269.358117)" fill="none" stroke-linejoin="miter" d="M 12327.803598 1918.655116 C 12454.679407 1598.771319 12491.909374 1225.491911 12664.342907 887.482999 C 12836.286571 549.474087 13142.943932 247.225537 13729.315915 153.660751 C 14316.177765 60.585834 15182.754238 176.194679 14663.004302 176.194679 C 14142.764497 176.194679 12236.198284 60.585834 10569.177518 46.86953 C 8902.646619 33.643094 7476.151035 123.288936 6549.3208 123.288936 C 5622.980433 123.288936 5196.305415 33.643094 5538.233271 101.244877 C 5880.650995 168.356791 6991.181726 392.226462 7804.852456 883.564055 C 8618.033318 1374.41178 9133.86431 2133.217295 9744.729692 2492.780399 C 10356.084942 2852.343503 11062.964451 2812.174328 11523.930228 2658.845647 C 11985.385874 2505.516966 12201.417657 2238.538913 12327.803598 1918.655116 Z M 12327.803598 1918.655116 " stroke="#231f20" stroke-width="85.039001" stroke-opacity="1" stroke-miterlimit="22.926001"/></g></svg>