<svg xmlns="http://www.w3.org/2000/svg" xmlns:xlink="http://www.w3.org/1999/xlink" width="500" zoomAndPan="magnify" viewBox="0 0 375 374.999991" height="500" preserveAspectRatio="xMidYMid meet" version="1.0"><defs><clipPath id="9a9b4e2c93"><path d="M 82 97.121094 L 298 97.121094 L 298 316.871094 L 82 316.871094 Z M 82 97.121094 " clip-rule="nonzero"/></clipPath></defs><rect x="-37.5" width="450" fill="#ffffff" y="-37.499999" height="449.999989" fill-opacity="1"/><rect x="-37.5" width="450" fill="#ffffff" y="-37.499999" height="449.999989" fill-opacity="1"/><path fill="#ff914d" d="M 298.84375 212.699219 C 298.75 213.714844 299.445312 213.375 299.558594 213.542969 C 299.484375 211.8125 298.675781 212.714844 298.84375 212.699219 Z M 298.84375 212.699219 " fill-opacity="1" fill-rule="nonzero"/><path fill="#ff914d" d="M 296.757812 196.128906 L 297.058594 196.394531 C 296.738281 195.605469 296.417969 194.832031 296.097656 194.0625 C 296.324219 194.738281 296.53125 195.433594 296.757812 196.128906 Z M 296.757812 196.128906 " fill-opacity="1" fill-rule="nonzero"/><path fill="#ff914d" d="M 293.992188 180.9375 C 293.804688 181.367188 293.804688 181.914062 293.898438 182.535156 C 294.011719 183.15625 294.238281 183.871094 294.460938 184.601562 C 294.574219 184.980469 294.707031 185.355469 294.820312 185.75 L 295.007812 186.332031 C 295.066406 186.519531 295.121094 186.726562 295.160156 186.914062 C 295.367188 187.6875 295.515625 188.4375 295.535156 189.136719 L 295.347656 189.625 L 296.476562 190.695312 C 296.285156 189.867188 296.097656 188.984375 295.835938 188.101562 C 295.589844 187.21875 295.347656 186.3125 295.082031 185.449219 C 294.59375 183.738281 294.105469 182.121094 293.992188 180.9375 Z M 293.992188 180.9375 " fill-opacity="1" fill-rule="nonzero"/><path fill="#ff914d" d="M 293.972656 172.25 C 293.84375 172.566406 293.597656 172.171875 293.578125 172.136719 C 293.542969 172.097656 293.765625 172.398438 294.460938 174.167969 C 294.445312 173.976562 294.460938 173.902344 294.460938 173.789062 C 294.40625 173.621094 294.351562 173.433594 294.273438 173.1875 C 294.199219 172.925781 294.105469 172.625 293.972656 172.25 Z M 293.972656 172.25 " fill-opacity="1" fill-rule="nonzero"/><path fill="#ff914d" d="M 294.460938 173.769531 C 295.007812 175.351562 294.480469 172.625 294.460938 173.769531 Z M 294.460938 173.769531 " fill-opacity="1" fill-rule="nonzero"/><path fill="#ff914d" d="M 291.585938 166.664062 L 292.1875 167.601562 C 292.394531 167.921875 292.582031 168.242188 292.769531 168.5625 C 292.808594 168.300781 292.675781 167.699219 292.582031 167.246094 C 292.46875 166.792969 292.414062 166.492188 292.636719 166.792969 C 291.566406 164.765625 291.511719 165.308594 291.585938 166.664062 Z M 291.585938 166.664062 " fill-opacity="1" fill-rule="nonzero"/><path fill="#ff914d" d="M 290.007812 165.082031 C 290.210938 165.402344 290.417969 165.722656 290.609375 166.0625 C 290.625 165.816406 290.550781 165.535156 290.007812 165.082031 Z M 290.007812 165.082031 " fill-opacity="1" fill-rule="nonzero"/><path fill="#ff914d" d="M 291.828125 168.128906 C 291.433594 167.433594 291.003906 166.738281 290.589844 166.042969 C 290.53125 166.398438 290.195312 166.570312 291.117188 167 C 290.738281 166.964844 291.226562 167.265625 291.828125 168.128906 Z M 291.828125 168.128906 " fill-opacity="1" fill-rule="nonzero"/><path fill="#ff914d" d="M 292.148438 169.464844 C 292.242188 170.085938 292.394531 170.761719 292.375 171.0625 C 292.355469 171.363281 292.1875 171.269531 291.605469 170.3125 C 292.394531 172.230469 292.902344 172.980469 293.035156 172.773438 C 293.109375 172.660156 293.070312 172.324219 292.941406 171.757812 C 292.808594 171.195312 292.5625 170.425781 292.148438 169.464844 Z M 292.148438 169.464844 " fill-opacity="1" fill-rule="nonzero"/><path fill="#ff914d" d="M 292.621094 180.484375 C 292.65625 181.03125 292.675781 181.554688 292.695312 182.101562 L 293.390625 183.34375 C 293.222656 183.023438 293.109375 182.269531 293.015625 181.613281 C 292.902344 180.953125 292.789062 180.390625 292.621094 180.484375 Z M 292.621094 180.484375 " fill-opacity="1" fill-rule="nonzero"/><path fill="#ff914d" d="M 286.207031 154.082031 C 285.925781 154.082031 286 155.042969 285.792969 155.34375 C 286.152344 155.757812 286.46875 156.1875 286.808594 156.621094 C 286.582031 155.8125 285.945312 154.363281 286.207031 154.082031 Z M 286.207031 154.082031 " fill-opacity="1" fill-rule="nonzero"/><path fill="#ff914d" d="M 285.792969 155.34375 C 285.265625 154.703125 284.777344 154.082031 284.25 153.460938 C 285.265625 155.34375 285.625 155.605469 285.792969 155.34375 Z M 285.792969 155.34375 " fill-opacity="1" fill-rule="nonzero"/><path fill="#ff914d" d="M 288.671875 165.234375 L 289.273438 166.042969 L 289.855469 166.871094 C 290.230469 167.414062 290.625 167.960938 291.003906 168.523438 C 290.136719 167.191406 289.292969 165.855469 288.371094 164.558594 Z M 288.671875 165.234375 " fill-opacity="1" fill-rule="nonzero"/><path fill="#ff914d" d="M 281.375 146.164062 C 281.789062 146.449219 282.203125 146.730469 282.617188 146.992188 L 281.582031 146.203125 L 280.527344 145.433594 Z M 281.375 146.164062 " fill-opacity="1" fill-rule="nonzero"/><path fill="#ff914d" d="M 277.707031 141.21875 C 278.703125 141.746094 277.5 139.621094 278.382812 140.296875 C 278.101562 139.980469 277.839844 139.679688 277.558594 139.394531 C 277.273438 139.113281 276.972656 138.871094 276.691406 138.644531 C 276.109375 138.171875 275.542969 137.757812 274.980469 137.382812 C 275.507812 137.835938 275.957031 138.378906 276.429688 139 C 276.859375 139.621094 277.292969 140.355469 277.707031 141.21875 Z M 277.707031 141.21875 " fill-opacity="1" fill-rule="nonzero"/><path fill="#ff914d" d="M 273.175781 136.085938 C 273.703125 136.539062 274.304688 136.933594 274.980469 137.382812 C 274.417969 136.914062 273.832031 136.460938 273.175781 136.085938 Z M 273.175781 136.085938 " fill-opacity="1" fill-rule="nonzero"/><path fill="#ff914d" d="M 282.238281 149.890625 C 282.257812 149.644531 282.425781 149.136719 281.808594 147.914062 L 281.75 149.082031 C 281.902344 149.324219 282.070312 149.605469 282.238281 149.890625 Z M 282.238281 149.890625 " fill-opacity="1" fill-rule="nonzero"/><path fill="#ff914d" d="M 281.75 149.136719 L 281.75 149.097656 C 281.207031 148.234375 280.828125 147.632812 280.660156 147.367188 C 280.792969 147.574219 281.109375 148.121094 281.75 149.136719 Z M 281.75 149.136719 " fill-opacity="1" fill-rule="nonzero"/><path fill="#ff914d" d="M 282.351562 150.097656 C 282.316406 150.019531 282.277344 149.964844 282.21875 149.890625 C 282.21875 150 282.238281 150.078125 282.351562 150.097656 Z M 282.351562 150.097656 " fill-opacity="1" fill-rule="nonzero"/><path fill="#ff914d" d="M 286.601562 159.328125 C 286.132812 158.785156 285.4375 157.9375 284.984375 157.542969 C 284.535156 157.167969 284.289062 157.261719 284.683594 158.632812 C 285.117188 158.972656 285.230469 158.726562 285.417969 158.613281 C 285.511719 158.558594 285.625 158.539062 285.8125 158.613281 C 285.980469 158.707031 286.246094 158.914062 286.601562 159.328125 Z M 286.601562 159.328125 " fill-opacity="1" fill-rule="nonzero"/><path fill="#ff914d" d="M 282.238281 151.542969 C 282.632812 152.296875 283.011719 153.046875 283.386719 153.800781 C 283.519531 153.667969 283.519531 153.140625 284.042969 153.632812 C 283.441406 152.933594 282.859375 152.238281 282.238281 151.542969 Z M 282.238281 151.542969 " fill-opacity="1" fill-rule="nonzero"/><path fill="#ff914d" d="M 281.394531 150.621094 L 282.238281 151.542969 L 281.789062 150.714844 Z M 281.394531 150.621094 " fill-opacity="1" fill-rule="nonzero"/><path fill="#ff914d" d="M 275.46875 139.882812 C 275 139.546875 274.585938 139.152344 274.152344 138.699219 C 273.722656 138.265625 273.289062 137.777344 272.835938 137.289062 C 273.25 137.890625 273.703125 138.492188 274.132812 139.074219 C 274.566406 139.679688 275.019531 140.261719 275.46875 140.804688 C 275.621094 140.824219 275.863281 140.882812 275.957031 140.804688 C 276.035156 140.730469 275.976562 140.488281 275.46875 139.882812 Z M 275.46875 139.882812 " fill-opacity="1" fill-rule="nonzero"/><path fill="#ff914d" d="M 278.589844 144.339844 C 278.535156 144.285156 278.476562 144.210938 278.421875 144.171875 C 278.441406 144.324219 278.496094 144.433594 278.589844 144.339844 Z M 278.589844 144.339844 " fill-opacity="1" fill-rule="nonzero"/><path fill="#ff914d" d="M 263.585938 127.644531 C 263.621094 127.71875 263.621094 127.792969 263.660156 127.886719 C 263.699219 127.867188 263.734375 127.847656 263.773438 127.832031 Z M 263.585938 127.644531 " fill-opacity="1" fill-rule="nonzero"/><path fill="#ff914d" d="M 275.507812 141.089844 C 276.070312 142.046875 276.597656 142.460938 277.144531 142.816406 C 276.597656 142.214844 276.035156 141.539062 275.449219 140.804688 C 275.320312 140.804688 275.261719 140.84375 275.507812 141.089844 Z M 275.507812 141.089844 " fill-opacity="1" fill-rule="nonzero"/><path fill="#ff914d" d="M 270.410156 133.492188 C 270.5625 133.753906 270.710938 134.015625 270.882812 134.300781 C 271.050781 134.582031 271.21875 134.863281 271.40625 135.164062 C 271.296875 134.882812 271.125 134.46875 270.9375 134.128906 C 270.75 133.773438 270.5625 133.511719 270.410156 133.492188 Z M 270.410156 133.492188 " fill-opacity="1" fill-rule="nonzero"/><path fill="#ff914d" d="M 278.347656 143.757812 C 278.382812 143.796875 278.421875 143.832031 278.460938 143.871094 C 278.382812 143.496094 278.347656 143.570312 278.347656 143.757812 Z M 278.347656 143.757812 " fill-opacity="1" fill-rule="nonzero"/><path fill="#ff914d" d="M 278.347656 143.757812 C 277.933594 143.363281 277.539062 143.101562 277.144531 142.835938 C 277.574219 143.34375 278.007812 143.796875 278.402344 144.171875 C 278.367188 144.023438 278.347656 143.871094 278.347656 143.757812 Z M 278.347656 143.757812 " fill-opacity="1" fill-rule="nonzero"/><path fill="#ff914d" d="M 257.640625 128.320312 C 257.925781 128.132812 258.695312 128.375 259.542969 128.960938 C 259.972656 129.242188 260.425781 129.597656 260.859375 130.03125 C 261.273438 130.464844 261.667969 130.953125 261.988281 131.496094 C 262.496094 131.816406 262.90625 131.894531 263.207031 131.796875 C 263.507812 131.703125 263.734375 131.421875 263.867188 131.046875 C 264.128906 130.257812 264.015625 129.035156 263.640625 127.867188 C 263.398438 128.039062 263.226562 128.1875 261.101562 126.816406 C 261.308594 127.246094 262.210938 128.300781 262.777344 129.164062 C 263.359375 130.03125 263.621094 130.652344 262.664062 130.144531 C 262.003906 129.65625 261.574219 129.277344 261.273438 128.976562 C 260.953125 128.675781 260.78125 128.46875 260.652344 128.261719 C 260.40625 127.847656 260.371094 127.511719 259.878906 126.851562 C 260.125 127.605469 259.148438 127.136719 258.074219 126.683594 C 257.023438 126.214844 255.835938 125.78125 255.742188 126.457031 C 256.570312 126.929688 257.359375 127.4375 258.167969 127.945312 C 258.132812 128.132812 257.152344 127.699219 257.640625 128.320312 Z M 257.640625 128.320312 " fill-opacity="1" fill-rule="nonzero"/><path fill="#ff914d" d="M 267.046875 131.253906 L 267.816406 131.929688 C 267.441406 131.480469 267.15625 131.027344 266.855469 130.539062 C 266.554688 130.050781 266.253906 129.484375 265.878906 128.769531 C 264.414062 127.792969 263.980469 127.738281 263.753906 127.8125 C 264.976562 128.996094 266.179688 130.199219 267.347656 131.421875 Z M 267.046875 131.253906 " fill-opacity="1" fill-rule="nonzero"/><path fill="#ff914d" d="M 270.992188 135.332031 C 270.730469 135.296875 270.410156 135.164062 270.089844 135.015625 C 269.773438 134.863281 269.453125 134.714844 269.171875 134.601562 C 268.625 134.394531 268.265625 134.394531 268.492188 135.203125 C 268.757812 135.464844 268.980469 135.691406 269.171875 135.878906 C 269.359375 136.066406 269.527344 136.21875 269.675781 136.332031 C 269.960938 136.554688 270.167969 136.667969 270.375 136.761719 C 270.75 136.933594 271.070312 136.949219 271.765625 137.535156 C 270.089844 135.765625 270.390625 135.953125 270.863281 136.238281 C 271.332031 136.519531 271.972656 136.875 270.957031 135.410156 C 271.691406 136.046875 272.292969 136.667969 272.835938 137.289062 C 272.347656 136.554688 271.839844 135.859375 271.40625 135.164062 C 271.425781 135.203125 271.445312 135.238281 271.445312 135.277344 L 271.464844 135.296875 C 271.464844 135.296875 271.464844 135.296875 271.445312 135.296875 C 271.519531 135.523438 271.519531 135.597656 271.40625 135.390625 C 271.390625 135.390625 271.351562 135.332031 271.332031 135.316406 C 271.257812 135.351562 271.125 135.351562 270.992188 135.332031 C 270.167969 134.167969 270.976562 135.03125 271.332031 135.316406 C 271.371094 135.296875 271.425781 135.316406 271.445312 135.296875 C 271.445312 135.296875 271.445312 135.277344 271.445312 135.277344 C 271.144531 134.996094 270.863281 134.695312 270.5625 134.429688 L 269.660156 133.585938 L 268.757812 132.757812 L 267.835938 131.949219 C 268.492188 132.738281 269.394531 133.660156 270.992188 135.332031 Z M 270.992188 135.332031 " fill-opacity="1" fill-rule="nonzero"/><path fill="#ff914d" d="M 282.144531 157.089844 C 282.125 156.941406 282.183594 156.921875 282.21875 156.882812 C 281.996094 156.660156 281.882812 156.582031 282.144531 157.089844 Z M 282.144531 157.089844 " fill-opacity="1" fill-rule="nonzero"/><path fill="#ff914d" d="M 281.5625 155.171875 C 281.824219 155.417969 282.203125 155.550781 282.691406 156.566406 C 282.992188 157.523438 282.390625 156.714844 282.21875 156.882812 C 282.710938 157.375 283.800781 158.726562 283.085938 156.695312 L 282.839844 156.453125 C 282.652344 156 282.503906 155.492188 282.351562 155.003906 C 282.203125 154.515625 282.070312 154.027344 281.976562 153.613281 C 281.789062 152.765625 281.714844 152.183594 281.84375 152.296875 C 281.582031 153.105469 281.449219 153.761719 281.5625 155.171875 Z M 281.5625 155.171875 " fill-opacity="1" fill-rule="nonzero"/><path fill="#ff914d" d="M 276.617188 145.039062 C 275.75 144.003906 274.832031 143.023438 273.925781 142.027344 L 274.679688 144.023438 L 274.90625 143.722656 C 275.226562 144.191406 275.449219 144.511719 275.640625 144.71875 C 275.828125 144.925781 275.957031 145.019531 276.070312 145.074219 C 276.296875 145.148438 276.410156 145 276.617188 145.039062 Z M 276.617188 145.039062 " fill-opacity="1" fill-rule="nonzero"/><path fill="#ff914d" d="M 263.472656 127.058594 L 264.375 126.890625 L 263.753906 126.664062 L 263.132812 126.457031 L 261.910156 126.0625 Z M 263.472656 127.058594 " fill-opacity="1" fill-rule="nonzero"/><path fill="#ff914d" d="M 259.390625 123.617188 L 259.957031 123.242188 C 259.503906 123.035156 259.054688 122.847656 258.621094 122.640625 Z M 259.390625 123.617188 " fill-opacity="1" fill-rule="nonzero"/><path fill="#ff914d" d="M 99.644531 255.421875 L 100.320312 256.324219 C 100.039062 255.894531 99.832031 255.609375 99.644531 255.421875 Z M 99.644531 255.421875 " fill-opacity="1" fill-rule="nonzero"/><path fill="#ff914d" d="M 96.203125 248.105469 L 95.824219 248.050781 C 96.144531 248.3125 96.316406 248.410156 96.203125 248.105469 Z M 96.203125 248.105469 " fill-opacity="1" fill-rule="nonzero"/><path fill="#ff914d" d="M 136.613281 112.183594 C 134.789062 112.484375 132.609375 112.730469 133.152344 113.238281 L 133.980469 113.578125 C 134.976562 112.824219 135.84375 112.449219 136.613281 112.183594 Z M 136.613281 112.183594 " fill-opacity="1" fill-rule="nonzero"/><path fill="#ff914d" d="M 87.4375 182.253906 C 87.550781 182.121094 87.644531 181.96875 87.757812 181.820312 C 87.625 181.367188 87.515625 180.9375 87.402344 180.542969 C 87.4375 181.066406 87.421875 181.632812 87.4375 182.253906 Z M 87.4375 182.253906 " fill-opacity="1" fill-rule="nonzero"/><path fill="#ff914d" d="M 89.996094 184.078125 C 89.847656 184.414062 89.675781 184.734375 89.527344 185.074219 L 89.074219 186.089844 C 89.339844 185.65625 89.621094 184.996094 89.996094 184.078125 Z M 89.996094 184.078125 " fill-opacity="1" fill-rule="nonzero"/><path fill="#ff914d" d="M 128.453125 288.3125 C 128.941406 288.386719 129.429688 288.460938 129.917969 288.519531 C 129.503906 288.21875 129.242188 288.050781 129.054688 287.953125 C 128.867188 287.859375 128.773438 287.859375 128.714844 287.898438 C 128.601562 287.972656 128.640625 288.21875 128.453125 288.3125 Z M 128.453125 288.3125 " fill-opacity="1" fill-rule="nonzero"/><path fill="#ff914d" d="M 210.460938 100.75 C 209.746094 100.46875 209.089844 100.242188 208.488281 100.074219 C 207.882812 99.90625 207.320312 99.773438 206.8125 99.679688 C 207.679688 100.035156 208.449219 100.414062 209.070312 100.65625 C 209.691406 100.902344 210.160156 100.996094 210.460938 100.75 Z M 210.460938 100.75 " fill-opacity="1" fill-rule="nonzero"/><path fill="#ff914d" d="M 91.480469 255.875 C 91.914062 256.476562 92.195312 256.703125 92.328125 256.605469 C 91.875 255.96875 91.574219 255.648438 91.480469 255.875 Z M 91.480469 255.875 " fill-opacity="1" fill-rule="nonzero"/><path fill="#ff914d" d="M 202.46875 99.097656 C 202.730469 99.191406 202.976562 99.265625 203.238281 99.359375 C 203.804688 99.378906 204.347656 99.398438 204.933594 99.453125 C 205.515625 99.511719 206.136719 99.566406 206.792969 99.699219 C 206.15625 99.433594 205.441406 99.226562 204.726562 99.097656 C 204.367188 99.039062 203.992188 99.003906 203.597656 98.984375 C 203.238281 98.964844 202.84375 99.003906 202.46875 99.097656 Z M 202.46875 99.097656 " fill-opacity="1" fill-rule="nonzero"/><path fill="#ff914d" d="M 270.710938 268.886719 C 270.804688 268.8125 270.898438 268.699219 270.992188 268.640625 C 270.9375 268.566406 270.84375 268.699219 270.710938 268.886719 Z M 270.710938 268.886719 " fill-opacity="1" fill-rule="nonzero"/><path fill="#ff914d" d="M 296.269531 227.855469 C 296.210938 228.34375 296.0625 229.132812 295.929688 229.886719 C 296.0625 229.527344 296.175781 228.90625 296.269531 227.855469 Z M 296.269531 227.855469 " fill-opacity="1" fill-rule="nonzero"/><path fill="#ff914d" d="M 241.769531 111.359375 C 242.785156 111.867188 241.976562 111.375 241.769531 111.359375 Z M 241.769531 111.359375 " fill-opacity="1" fill-rule="nonzero"/><path fill="#ff914d" d="M 245.117188 116.492188 C 244.875 116.433594 244.667969 116.433594 244.554688 116.566406 C 244.722656 116.453125 244.910156 116.433594 245.117188 116.492188 Z M 245.117188 116.492188 " fill-opacity="1" fill-rule="nonzero"/><path fill="#ff914d" d="M 191.148438 102.726562 C 191.109375 102.726562 191.089844 102.726562 191.054688 102.726562 C 191.375 102.859375 191.316406 102.839844 191.148438 102.726562 Z M 191.148438 102.726562 " fill-opacity="1" fill-rule="nonzero"/><path fill="#ff914d" d="M 243.105469 112.46875 C 242.785156 112.183594 242.390625 111.882812 241.941406 111.582031 C 242.128906 111.734375 242.46875 112.015625 243.105469 112.46875 Z M 243.105469 112.46875 " fill-opacity="1" fill-rule="nonzero"/><path fill="#ff914d" d="M 243.070312 112.070312 C 243.386719 112.296875 243.652344 112.449219 243.894531 112.617188 C 244.085938 112.578125 244.007812 112.449219 243.070312 112.070312 Z M 243.070312 112.070312 " fill-opacity="1" fill-rule="nonzero"/><path fill="#ff914d" d="M 240.359375 110.660156 C 240.945312 110.960938 241.453125 111.261719 241.941406 111.582031 C 241.769531 111.433594 241.695312 111.359375 241.769531 111.359375 C 241.46875 111.207031 241.054688 111 240.359375 110.660156 Z M 240.359375 110.660156 " fill-opacity="1" fill-rule="nonzero"/><path fill="#ff914d" d="M 198.011719 311.046875 C 198.085938 311.066406 198.164062 311.066406 198.238281 311.085938 C 199.289062 310.691406 198.820312 310.785156 198.011719 311.046875 Z M 198.011719 311.046875 " fill-opacity="1" fill-rule="nonzero"/><path fill="#ff914d" d="M 118.183594 134.9375 C 118.222656 134.902344 118.222656 134.863281 118.242188 134.828125 C 118.203125 134.863281 118.148438 134.882812 118.109375 134.921875 Z M 118.183594 134.9375 " fill-opacity="1" fill-rule="nonzero"/><path fill="#ff914d" d="M 115.910156 137.984375 C 116.152344 137.101562 116.453125 136.519531 116.832031 136.046875 C 117.1875 135.578125 117.640625 135.257812 118.128906 134.902344 C 117.359375 134.714844 116.566406 134.523438 115.796875 134.335938 C 115.816406 135.578125 115.835938 136.78125 115.910156 137.984375 Z M 115.910156 137.984375 " fill-opacity="1" fill-rule="nonzero"/><g clip-path="url(#9a9b4e2c93)"><path fill="#ff914d" d="M 110.4375 271.480469 L 109.855469 270.257812 L 109.308594 269.019531 C 110.683594 269.976562 111.679688 270.898438 112.1875 271.3125 C 112.449219 271.519531 112.601562 271.59375 112.636719 271.464844 C 112.675781 271.332031 112.582031 270.992188 112.375 270.390625 C 111.886719 270.671875 111.226562 270.316406 110.511719 269.65625 C 109.796875 268.980469 108.988281 268.003906 108.238281 266.96875 C 107.445312 265.972656 106.734375 264.917969 106.035156 264.203125 C 105.359375 263.472656 104.757812 263.058594 104.230469 263.28125 C 104.042969 262.71875 103.855469 262.136719 103.6875 261.570312 C 103.929688 262.003906 104.082031 262.003906 104.324219 262.4375 C 104.101562 261.570312 103.816406 261.082031 103.5 260.726562 C 103.328125 260.554688 103.160156 260.425781 102.972656 260.3125 C 102.785156 260.199219 102.59375 260.105469 102.40625 260.011719 C 101.597656 259.617188 100.640625 259.164062 99.71875 257.152344 C 99.566406 256.796875 99.4375 256.457031 99.359375 256.175781 C 99.265625 255.875 99.210938 255.628906 99.191406 255.460938 C 99.152344 255.101562 99.285156 255.027344 99.644531 255.441406 C 99.304688 254.988281 98.949219 254.519531 98.609375 254.070312 L 97.613281 252.65625 C 97.40625 252.207031 97.425781 251.980469 97.535156 252 C 97.648438 252.019531 97.855469 252.246094 98.0625 252.695312 C 97.253906 251.171875 96.484375 249.613281 95.75 248.050781 L 95.824219 248.070312 C 95.507812 247.804688 95.09375 247.316406 94.660156 246.828125 C 94.246094 246.339844 93.8125 245.832031 93.570312 245.476562 C 93.398438 244.121094 94.019531 246.019531 94.152344 245.585938 C 93.644531 244.761719 93.117188 243.914062 92.628906 243.066406 C 92.703125 242.410156 93.0625 242.617188 93.492188 243.199219 C 93.925781 243.78125 94.414062 244.761719 94.753906 245.699219 C 95.015625 244.871094 95.074219 244.328125 94.980469 243.914062 C 94.886719 243.480469 94.660156 243.144531 94.378906 242.730469 C 94.097656 242.316406 93.757812 241.808594 93.4375 241.035156 C 93.269531 240.660156 93.136719 240.210938 93.023438 239.664062 C 92.910156 239.117188 92.796875 238.496094 92.742188 237.765625 C 93.097656 238.59375 93.476562 239.417969 93.832031 240.246094 C 94 239.738281 94.058594 239.230469 94.039062 238.742188 C 94.019531 238.234375 93.945312 237.726562 93.871094 237.164062 C 93.777344 236.617188 93.664062 236.015625 93.570312 235.375 C 93.476562 234.738281 93.417969 234.042969 93.417969 233.25 C 93.363281 233.4375 93.324219 233.945312 93.25 234.53125 C 93.210938 234.832031 93.191406 235.132812 93.136719 235.453125 C 93.097656 235.769531 93.0625 236.070312 93.023438 236.355469 C 92.835938 237.5 92.496094 238.195312 91.78125 236.785156 C 91.6875 235.902344 91.464844 234.773438 90.597656 233.25 C 90.972656 233.136719 91.03125 232.707031 90.898438 232.046875 C 90.84375 231.710938 90.75 231.332031 90.636719 230.902344 C 90.523438 230.46875 90.410156 230 90.277344 229.507812 L 91.332031 229.433594 C 91.144531 228.90625 90.972656 228.550781 90.804688 228.25 C 90.65625 227.96875 90.503906 227.761719 90.351562 227.589844 C 90.050781 227.253906 89.75 227.027344 89.394531 226.425781 C 89.074219 223.960938 89.789062 223.339844 90.390625 222.664062 C 90.203125 220.726562 89.976562 221.421875 89.695312 222.0625 C 89.414062 222.703125 89.074219 223.246094 88.660156 220.953125 C 88.660156 220.125 88.625 219.355469 88.546875 218.621094 C 88.492188 217.886719 88.378906 217.171875 88.246094 216.441406 C 88.003906 214.972656 87.625 213.429688 87.25 211.457031 C 87.53125 209.125 87.890625 211.851562 88.171875 211.003906 C 87.871094 210.328125 87.609375 209.652344 87.308594 208.972656 C 87.324219 208.464844 87.570312 208.636719 87.703125 208.710938 C 87.609375 208.277344 87.515625 208.054688 87.402344 207.921875 C 87.289062 207.789062 87.15625 207.734375 87.023438 207.65625 C 86.78125 207.488281 86.515625 207.207031 86.40625 205.832031 C 86.121094 205.644531 86.105469 205.195312 86.199219 204.574219 C 86.253906 204.273438 86.328125 203.914062 86.441406 203.539062 C 86.5 203.351562 86.554688 203.144531 86.613281 202.957031 C 86.667969 202.75 86.742188 202.542969 86.800781 202.335938 C 87.289062 200.625 87.832031 198.613281 87.382812 196.863281 C 87.777344 196.074219 87.964844 197.332031 88.398438 197.128906 C 88.210938 194.796875 88.230469 193.78125 88.152344 192.878906 C 88.117188 192.425781 88.097656 191.992188 88.023438 191.429688 C 87.984375 191.148438 87.945312 190.828125 87.910156 190.453125 C 87.890625 190.261719 87.851562 190.074219 87.832031 189.847656 C 87.816406 189.644531 87.796875 189.398438 87.757812 189.152344 L 88.398438 187.613281 C 88.605469 187.105469 88.847656 186.597656 89.074219 186.089844 C 88.433594 187.179688 88.058594 186.933594 87.816406 186.050781 C 87.703125 185.617188 87.609375 185.015625 87.550781 184.339844 C 87.496094 183.679688 87.476562 182.949219 87.457031 182.234375 C 86.894531 182.984375 86.386719 183.625 86.121094 184.09375 L 86.367188 181.894531 C 86.441406 181.160156 86.574219 180.429688 86.667969 179.695312 C 86.96875 179.226562 87.195312 179.75 87.4375 180.558594 C 87.4375 180.242188 87.421875 179.957031 87.402344 179.714844 C 87.796875 179 88.078125 178.886719 88.304688 179.113281 C 88.511719 179.320312 88.679688 179.863281 88.8125 180.484375 C 88.472656 180.9375 88.132812 181.386719 87.777344 181.839844 C 88.132812 183.042969 88.585938 184.171875 89.226562 184.09375 C 89.167969 183.792969 89.207031 183.25 89.28125 182.667969 C 89.375 182.984375 89.488281 183.191406 89.621094 183.078125 C 89.769531 182.96875 89.640625 182.476562 89.5625 181.726562 L 90.9375 181.085938 L 90.558594 180.746094 C 91.273438 179.019531 92.066406 177.324219 92.875 175.652344 C 92.910156 174.617188 92.929688 173.601562 92.949219 172.566406 C 92.96875 172.042969 92.984375 171.515625 93.023438 170.988281 C 93.042969 170.441406 93.082031 169.898438 93.15625 169.332031 C 93.210938 168.769531 93.285156 168.1875 93.382812 167.585938 C 93.476562 166.984375 93.605469 166.363281 93.757812 165.722656 C 93.832031 165.402344 93.90625 165.066406 94 164.726562 C 94.097656 164.386719 94.207031 164.050781 94.300781 163.710938 C 94.527344 163.015625 94.773438 162.28125 95.09375 161.53125 C 95.148438 163.335938 96.183594 162.449219 97.046875 162.976562 C 96.617188 163.242188 96.296875 163.671875 96.03125 164.21875 C 95.769531 164.765625 95.542969 165.382812 95.375 166.082031 C 95.1875 166.777344 95 167.527344 94.792969 168.28125 C 94.585938 169.050781 94.320312 169.824219 93.964844 170.554688 C 94.714844 169.015625 95.015625 169.539062 95 170.011719 C 95.222656 169.050781 95.429688 168.09375 95.675781 167.132812 L 96.03125 165.703125 L 96.425781 164.273438 C 96.765625 164.5 97.046875 164.292969 97.347656 163.859375 C 97.648438 163.429688 98.007812 162.808594 98.496094 162.207031 C 97.519531 162.355469 97.742188 161.246094 98.363281 159.835938 C 98.515625 159.480469 98.683594 159.101562 98.871094 158.726562 C 99.058594 158.351562 99.25 157.957031 99.4375 157.582031 C 99.625 157.203125 99.792969 156.828125 99.960938 156.488281 C 100.132812 156.152344 100.265625 155.832031 100.359375 155.53125 C 100.902344 155.679688 101.074219 156.433594 99.550781 158.914062 C 100.207031 158.371094 100.566406 157.804688 100.753906 157.242188 C 100.941406 156.675781 101.015625 156.113281 101.054688 155.550781 C 101.128906 154.402344 101.261719 153.253906 102.539062 152.183594 C 102.164062 152.804688 101.898438 153.085938 101.976562 153.460938 C 102.085938 153.046875 102.332031 152.523438 102.632812 152.015625 C 102.953125 151.507812 103.308594 150.980469 103.648438 150.546875 C 103.988281 150.113281 104.324219 149.777344 104.570312 149.605469 C 104.796875 149.4375 104.945312 149.4375 104.910156 149.699219 L 104.511719 150.285156 C 105.90625 148.382812 108.03125 145.507812 109.855469 142.988281 C 110.285156 142.347656 110.738281 141.765625 111.132812 141.183594 C 111.320312 140.898438 111.507812 140.617188 111.679688 140.355469 C 111.847656 140.089844 112.015625 139.847656 112.148438 139.601562 C 112.710938 138.664062 113.011719 137.929688 112.882812 137.554688 C 113.050781 137.648438 113.691406 139.132812 113.710938 139.527344 C 114.425781 136.425781 115.328125 133.304688 116.378906 130.164062 C 116.511719 130.859375 117.601562 131.214844 118.335938 131.816406 C 118.710938 132.117188 118.992188 132.476562 119.03125 132.945312 C 119.050781 133.191406 119.011719 133.453125 118.898438 133.753906 C 118.785156 134.074219 118.597656 134.414062 118.296875 134.808594 C 118.769531 134.488281 119.257812 134.113281 119.839844 133.585938 C 120.421875 133.078125 121.0625 132.382812 121.8125 131.460938 C 121.476562 131.648438 120.835938 131.648438 120.367188 131.496094 C 119.894531 131.367188 119.59375 131.066406 119.953125 130.671875 C 121.476562 130.199219 121.964844 129.992188 122.511719 129.75 C 122.773438 129.617188 123.074219 129.464844 123.507812 129.261719 C 123.9375 129.054688 124.503906 128.789062 125.367188 128.46875 C 124.84375 128.734375 124.523438 128.300781 124.539062 127.660156 C 124.539062 127.039062 124.878906 126.175781 125.613281 125.628906 C 125.554688 126.027344 126.855469 126.984375 126.460938 127.546875 C 126.855469 126.851562 127.285156 126.15625 127.699219 125.441406 C 128.113281 124.746094 128.566406 124.050781 128.996094 123.355469 C 128.265625 124.296875 129.75 124.726562 130.859375 124.558594 C 130.558594 124.539062 131.367188 123.996094 132.34375 123.355469 C 132.832031 123.035156 133.398438 122.714844 133.867188 122.394531 C 134.339844 122.09375 134.753906 121.8125 134.976562 121.605469 C 134.355469 121.8125 133.753906 122.058594 133.152344 122.285156 C 133.699219 121.964844 134.148438 121.644531 134.546875 121.34375 C 134.941406 121.042969 135.261719 120.742188 135.542969 120.421875 C 135.824219 120.121094 136.050781 119.800781 136.257812 119.5 C 136.464844 119.199219 136.652344 118.898438 136.839844 118.597656 C 137.214844 117.996094 137.589844 117.355469 138.175781 116.773438 C 138.757812 116.171875 139.507812 115.550781 140.675781 114.96875 C 140.300781 115.589844 140.429688 117.734375 142.800781 116.734375 C 142.949219 116.378906 143.195312 115.832031 143.535156 115.117188 C 143.871094 114.421875 144.324219 113.578125 144.886719 112.710938 C 145.171875 112.277344 145.472656 111.828125 145.808594 111.394531 C 146.148438 110.945312 146.523438 110.53125 146.917969 110.097656 C 147.3125 109.683594 147.746094 109.269531 148.199219 108.894531 C 148.648438 108.519531 149.136719 108.179688 149.644531 107.878906 C 149.984375 107.933594 150.324219 107.972656 150.679688 108.046875 C 151.714844 107.425781 152.765625 106.808594 153.839844 106.222656 C 153.425781 106.75 152.804688 107.425781 152.109375 108.234375 C 151.75 108.632812 151.375 109.0625 150.980469 109.496094 C 150.585938 109.929688 150.171875 110.378906 149.757812 110.851562 C 148.929688 111.753906 148.105469 112.710938 147.3125 113.539062 C 146.542969 114.402344 145.808594 115.175781 145.207031 115.796875 C 146.148438 115.570312 146.335938 115.664062 146.617188 115.644531 C 146.75 115.644531 146.898438 115.609375 147.183594 115.496094 C 147.464844 115.382812 147.859375 115.195312 148.515625 114.910156 C 149.082031 114.949219 148.800781 115.269531 148.292969 115.625 C 147.785156 116.003906 147.070312 116.417969 146.691406 116.605469 L 148.199219 115.984375 L 149.722656 115.402344 L 150.492188 115.117188 L 151.261719 114.855469 L 152.804688 114.308594 C 152.464844 113.859375 153.539062 113.164062 154.628906 112.46875 C 155.738281 111.808594 156.867188 111.167969 156.601562 110.773438 C 154.460938 111.902344 152.355469 113.125 150.304688 114.386719 C 149.964844 113.933594 150.605469 112.824219 151.941406 111.621094 C 153.273438 110.453125 155.324219 109.195312 157.636719 108.574219 C 158.277344 108.59375 158.21875 109.121094 158.015625 109.703125 C 157.808594 110.265625 157.488281 110.867188 157.601562 111.019531 C 157.714844 110.886719 158.015625 110.679688 158.425781 110.472656 C 158.839844 110.25 159.332031 110.023438 159.855469 109.816406 C 160.871094 109.402344 161.90625 109.082031 162.152344 109.15625 C 161.566406 109.515625 160.984375 109.910156 160.402344 110.265625 C 161.058594 110.191406 161.605469 109.964844 162.132812 109.722656 C 162.660156 109.476562 163.148438 109.175781 163.65625 108.894531 C 164.164062 108.59375 164.707031 108.367188 165.308594 108.179688 C 165.609375 108.085938 165.949219 108.027344 166.308594 107.992188 C 166.664062 107.953125 167.039062 107.972656 167.453125 108.011719 C 167.71875 107.972656 168.074219 107.992188 168.449219 108.046875 C 168.828125 108.085938 169.222656 108.160156 169.578125 108.234375 C 170.3125 108.367188 170.914062 108.425781 170.933594 108.085938 C 168.996094 107.183594 167.8125 103.476562 168.863281 102.332031 C 169.070312 102.332031 170.59375 102.332031 172.230469 102.445312 C 172.644531 102.460938 173.058594 102.5 173.453125 102.539062 C 173.867188 102.574219 174.242188 102.613281 174.617188 102.667969 C 175.351562 102.765625 175.933594 102.859375 176.273438 102.96875 C 177.25 103.347656 176.628906 104.003906 175.992188 104.664062 C 175.351562 105.320312 174.710938 105.960938 175.519531 106.28125 C 175.539062 105.980469 176.480469 105.472656 176.875 105.300781 C 178.042969 105.414062 176.519531 106.28125 178.960938 105.847656 C 179.261719 104.699219 184.019531 105.492188 180.054688 104.8125 C 180.65625 104.683594 181.125 104.605469 181.519531 104.585938 C 181.914062 104.570312 182.273438 104.585938 182.609375 104.605469 C 183.324219 104.664062 184.078125 104.71875 185.507812 104.644531 C 185.035156 104.304688 185.65625 103.667969 186.710938 103.066406 C 187.238281 102.78125 187.894531 102.5 188.554688 102.273438 C 188.890625 102.160156 189.230469 102.050781 189.570312 101.972656 C 189.90625 101.898438 190.226562 101.84375 190.546875 101.804688 C 190.394531 102.085938 190.960938 102.460938 191.222656 102.632812 C 191.542969 102.652344 191.84375 102.652344 192.144531 102.667969 C 192.445312 102.6875 192.746094 102.707031 193.027344 102.726562 C 193.59375 102.765625 194.136719 102.820312 194.664062 102.875 C 195.699219 102.988281 196.675781 103.140625 197.617188 103.269531 C 198.558594 103.421875 199.496094 103.574219 200.496094 103.722656 C 200.984375 103.796875 201.492188 103.890625 202.035156 103.96875 C 202.300781 104.003906 202.582031 104.042969 202.84375 104.078125 C 203.128906 104.117188 203.410156 104.15625 203.691406 104.210938 C 203.898438 104.382812 204.539062 104.605469 205.007812 104.851562 C 205.476562 105.09375 205.757812 105.339844 205.25 105.507812 C 205.949219 105.414062 206.625 105.152344 208.054688 105.359375 C 209.351562 106.09375 208.542969 105.980469 207.660156 105.886719 C 206.773438 105.808594 205.796875 105.734375 206.757812 106.46875 C 207.039062 105.847656 210.574219 106.242188 212.679688 106.316406 C 212.585938 106.035156 212.246094 105.828125 211.757812 105.660156 C 211.269531 105.492188 210.628906 105.378906 209.953125 105.300781 C 209.257812 105.246094 208.523438 105.191406 207.828125 105.191406 C 207.132812 105.191406 206.472656 105.207031 205.949219 105.226562 C 206.042969 104.550781 207.058594 103.984375 208.675781 103.667969 C 209.484375 103.515625 210.460938 103.402344 211.53125 103.382812 C 212.605469 103.367188 213.808594 103.402344 215.085938 103.554688 C 216.082031 103.703125 216.683594 103.875 217.003906 104.023438 C 217.34375 104.175781 217.417969 104.324219 217.398438 104.4375 C 217.363281 104.683594 216.910156 104.8125 217.269531 104.8125 C 219.074219 105.339844 220.390625 105.640625 221.460938 105.753906 C 222.515625 105.886719 223.34375 105.867188 224.113281 105.847656 C 224.882812 105.847656 225.617188 105.867188 226.5 106.054688 C 226.953125 106.148438 227.421875 106.316406 227.96875 106.542969 C 228.230469 106.65625 228.53125 106.789062 228.832031 106.9375 C 229.132812 107.089844 229.472656 107.257812 229.8125 107.484375 C 230.808594 108.367188 230.65625 108.78125 230.320312 109.0625 C 229.960938 109.363281 229.417969 109.535156 229.546875 109.929688 C 229.152344 109.816406 228.796875 109.683594 228.457031 109.550781 C 228.117188 109.441406 227.800781 109.308594 227.5 109.175781 C 226.894531 108.914062 226.390625 108.632812 225.882812 108.347656 C 225.390625 108.085938 224.921875 107.820312 224.453125 107.578125 C 224.226562 107.464844 223.980469 107.332031 223.738281 107.238281 C 223.492188 107.144531 223.25 107.050781 222.984375 106.957031 C 223.8125 107.351562 224.601562 107.804688 225.410156 108.234375 C 224.882812 108.199219 224.09375 108.046875 223.285156 107.839844 C 222.496094 107.652344 221.707031 107.390625 221.179688 107.089844 C 221.613281 107.445312 222.570312 107.839844 223.832031 108.347656 C 224.46875 108.613281 225.167969 108.875 225.9375 109.15625 C 226.691406 109.457031 227.5 109.777344 228.34375 110.097656 C 229.171875 110.453125 230.035156 110.792969 230.882812 111.167969 C 231.296875 111.359375 231.730469 111.566406 232.144531 111.753906 C 232.558594 111.941406 232.988281 112.128906 233.382812 112.355469 C 233.796875 112.5625 234.191406 112.769531 234.585938 112.976562 C 234.984375 113.183594 235.359375 113.386719 235.714844 113.59375 C 236.429688 114.027344 237.125 114.421875 237.710938 114.835938 C 238.742188 115.042969 240.4375 115.609375 239.871094 114.910156 L 238.21875 114.179688 C 237.632812 113.484375 238.5 113.652344 239.289062 113.859375 C 240.078125 114.046875 240.773438 114.253906 239.816406 113.558594 C 240.117188 113.652344 240.4375 113.726562 240.738281 113.820312 C 241.054688 113.914062 241.359375 114.007812 241.695312 114.121094 C 242.335938 114.328125 243.011719 114.535156 243.6875 114.816406 C 244.367188 115.101562 245.042969 115.417969 245.738281 115.796875 C 246.414062 116.191406 247.113281 116.660156 247.808594 117.207031 L 247.808594 118.410156 C 247.921875 118.109375 246.210938 116.679688 245.210938 116.433594 C 245.589844 116.527344 246.003906 116.828125 246.453125 117.226562 C 246.90625 117.621094 247.414062 118.089844 247.902344 118.558594 C 248.410156 119.03125 248.917969 119.460938 249.425781 119.78125 C 249.933594 120.101562 250.460938 120.308594 250.964844 120.269531 C 250.421875 119.613281 249.894531 118.953125 249.332031 118.316406 C 249.933594 118.542969 250.554688 118.804688 251.210938 119.050781 C 251.871094 119.3125 252.566406 119.574219 253.242188 119.894531 C 253.917969 120.214844 254.613281 120.570312 255.273438 120.984375 C 255.929688 121.398438 256.550781 121.871094 257.117188 122.414062 C 256.851562 121.585938 256.683594 121.492188 256.457031 121.34375 C 256.230469 121.171875 255.949219 120.929688 255.386719 119.800781 C 255.742188 120.949219 254.125 119.746094 252.621094 118.652344 C 251.851562 118.128906 251.117188 117.601562 250.683594 117.414062 C 250.234375 117.226562 250.101562 117.375 250.535156 118.109375 C 250.253906 117.507812 249.914062 117.054688 249.554688 116.640625 C 249.179688 116.246094 248.804688 115.890625 248.371094 115.570312 C 247.507812 114.894531 246.585938 114.195312 245.570312 112.9375 C 245.53125 113.105469 245.683594 113.371094 245.570312 113.425781 C 245.511719 113.445312 245.382812 113.40625 245.136719 113.277344 C 244.894531 113.144531 244.515625 112.898438 243.972656 112.542969 C 243.820312 112.5625 243.519531 112.542969 243.3125 112.503906 C 243.238281 112.449219 243.21875 112.429688 243.164062 112.390625 C 243.199219 112.429688 243.238281 112.46875 243.277344 112.503906 C 243.144531 112.484375 243.144531 112.503906 243.3125 112.542969 C 243.785156 112.976562 244.160156 113.371094 244.234375 113.632812 C 243.859375 113.632812 243.351562 113.5 242.769531 113.3125 C 242.484375 113.21875 242.183594 113.105469 241.863281 112.976562 C 241.5625 112.84375 241.246094 112.710938 240.90625 112.578125 C 240.265625 112.316406 239.628906 112.054688 239.0625 111.808594 C 238.5 111.582031 237.992188 111.433594 237.632812 111.359375 C 236.316406 110.53125 238.386719 111.300781 237.785156 110.625 L 236.710938 110.417969 L 235.640625 110.230469 C 235.695312 109.851562 234.886719 109.136719 234.511719 108.667969 C 234.304688 108.441406 234.230469 108.253906 234.398438 108.21875 C 234.585938 108.160156 235.039062 108.253906 235.921875 108.554688 C 234.925781 108.066406 233.910156 107.617188 232.894531 107.164062 C 232.480469 106.863281 232.03125 106.582031 231.542969 106.316406 C 231.050781 106.035156 230.542969 105.773438 230.019531 105.546875 C 228.984375 105.09375 227.949219 104.71875 227.101562 104.585938 C 226.386719 104.25 225.375 104.097656 224.734375 104.042969 C 224.09375 103.984375 223.8125 104.003906 224.566406 103.949219 C 223.71875 103.761719 222.851562 103.554688 222.007812 103.367188 L 219.449219 102.839844 L 219.449219 102.652344 C 216.984375 101.917969 214.335938 101.578125 211.625 101.164062 C 208.917969 100.769531 206.15625 100.300781 203.316406 99.285156 C 202.449219 99.285156 201.546875 99.285156 200.53125 99.226562 C 200.023438 99.210938 199.480469 99.171875 198.878906 99.117188 C 198.574219 99.078125 198.257812 99.058594 197.9375 99.003906 C 197.617188 98.964844 197.261719 98.925781 196.902344 98.871094 L 196.375 98.214844 C 195.246094 98.230469 193.59375 98.023438 192.070312 97.875 C 190.546875 97.761719 189.191406 97.6875 188.703125 98.023438 C 187.5 97.199219 184.734375 97.121094 181.820312 97.421875 C 178.90625 97.707031 175.839844 98.308594 173.867188 98.457031 L 173.828125 99.304688 C 171.140625 99.640625 168.621094 100.320312 165.441406 101.371094 L 165.800781 102.03125 C 165.121094 102.3125 164.351562 102.558594 163.484375 102.765625 C 162.601562 102.953125 161.660156 103.140625 160.644531 103.308594 C 160.402344 103.347656 160.140625 103.402344 159.875 103.441406 C 159.613281 103.496094 159.347656 103.535156 159.085938 103.589844 C 158.558594 103.683594 158.015625 103.796875 157.488281 103.910156 C 156.941406 104.023438 156.398438 104.175781 155.871094 104.324219 C 155.324219 104.476562 154.78125 104.644531 154.253906 104.832031 C 154.460938 104.457031 155.570312 104.175781 156.398438 104.082031 C 155.683594 104.097656 154.984375 104.175781 154.308594 104.324219 C 153.632812 104.476562 152.957031 104.683594 152.296875 104.925781 C 151.640625 105.171875 151 105.472656 150.359375 105.792969 C 149.722656 106.09375 149.101562 106.449219 148.480469 106.789062 C 147.238281 107.464844 146.054688 108.21875 144.867188 108.820312 C 143.683594 109.457031 142.480469 109.945312 141.257812 110.230469 C 140.28125 111 139.453125 111.339844 138.605469 111.582031 C 138.699219 111.527344 138.796875 111.46875 138.851562 111.414062 C 138.738281 111.46875 138.570312 111.546875 138.398438 111.640625 C 138.136719 111.714844 137.855469 111.769531 137.574219 111.847656 C 137.289062 111.921875 137.007812 112.015625 136.707031 112.109375 C 137.253906 112.015625 137.742188 111.902344 138.15625 111.769531 C 137.742188 111.996094 137.234375 112.316406 136.6875 112.675781 C 136.144531 113.03125 135.5625 113.425781 134.996094 113.878906 L 134.074219 113.5 C 133.980469 113.578125 133.90625 113.613281 133.8125 113.6875 C 132.457031 114.140625 133.039062 114.574219 133.980469 114.703125 C 133.4375 115.175781 132.964844 115.644531 132.644531 116.078125 C 131.835938 115.832031 131.105469 116.417969 130.351562 117.019531 C 129.976562 117.320312 129.582031 117.636719 129.167969 117.84375 C 128.753906 118.070312 128.300781 118.203125 127.792969 118.144531 C 127.699219 118.410156 127.285156 118.824219 126.761719 119.3125 C 126.234375 119.820312 125.574219 120.402344 124.9375 120.984375 C 124.316406 121.585938 123.714844 122.226562 123.28125 122.792969 C 122.847656 123.355469 122.605469 123.882812 122.679688 124.277344 C 122.527344 124.164062 122.152344 124.351562 122.734375 123.882812 C 121.417969 124.710938 120.140625 125.59375 119.332031 126.796875 L 118.183594 126.476562 L 117.359375 128.09375 L 116.566406 129.730469 C 115.609375 130.199219 114.929688 130.539062 114.59375 130.5 C 114.253906 130.464844 114.273438 130.050781 114.742188 129.070312 C 114.046875 130.144531 113.558594 130.878906 113.144531 131.441406 C 112.75 132.003906 112.46875 132.382812 112.1875 132.738281 C 111.902344 133.097656 111.640625 133.453125 111.339844 133.941406 C 111.039062 134.449219 110.644531 135.089844 110.175781 136.046875 L 109.835938 135.464844 C 109.347656 136.03125 108.859375 136.914062 108.386719 137.683594 C 107.917969 138.472656 107.445312 139.152344 106.957031 139.320312 C 106.5625 139.546875 106.132812 139.921875 105.605469 140.410156 C 105.339844 140.65625 105.078125 140.917969 104.796875 141.21875 C 104.511719 141.519531 104.230469 141.859375 103.929688 142.214844 C 103.628906 142.574219 103.308594 142.949219 103.007812 143.34375 C 102.707031 143.738281 102.371094 144.171875 102.050781 144.605469 C 101.882812 144.832031 101.710938 145.039062 101.542969 145.261719 C 101.375 145.488281 101.203125 145.734375 101.054688 145.957031 C 100.714844 146.429688 100.375 146.917969 100.039062 147.40625 C 98.683594 149.398438 97.292969 151.5625 95.957031 153.707031 C 95.300781 154.777344 94.640625 155.832031 94 156.847656 C 93.683594 157.355469 93.363281 157.863281 93.042969 158.332031 C 92.722656 158.820312 92.421875 159.292969 92.121094 159.742188 C 93.34375 159.421875 92.703125 160.214844 91.914062 161.226562 C 91.519531 161.734375 91.105469 162.300781 90.84375 162.808594 C 90.578125 163.296875 90.523438 163.730469 90.824219 163.957031 C 90.222656 164.238281 89.488281 165.253906 89.695312 163.804688 C 89.527344 164.332031 89.339844 164.820312 89.148438 165.289062 C 88.960938 165.742188 88.792969 166.175781 88.605469 166.585938 C 88.417969 166.984375 88.246094 167.378906 88.078125 167.734375 C 87.910156 168.09375 87.757812 168.449219 87.589844 168.789062 C 87.4375 169.125 87.289062 169.464844 87.175781 169.804688 C 87.042969 170.140625 86.929688 170.480469 86.855469 170.820312 C 86.6875 171.515625 86.59375 172.25 86.648438 173.058594 C 86.046875 173.394531 86.347656 171.949219 85.933594 172.285156 C 85.898438 172.660156 85.859375 173.753906 85.464844 174.109375 C 85.070312 174.46875 85.3125 173.375 85.351562 172.625 C 85.011719 173.714844 84.84375 174.597656 84.769531 175.292969 C 84.730469 176.007812 84.789062 176.535156 84.9375 176.96875 C 85.21875 177.8125 85.820312 178.171875 86.386719 178.511719 C 85.785156 179.527344 85.445312 180.316406 85.296875 181.066406 C 85.164062 181.839844 85.21875 182.554688 85.445312 183.457031 C 85.144531 183.792969 84.824219 184.265625 84.636719 184.300781 C 84.449219 184.339844 84.355469 183.945312 84.617188 182.570312 C 84.5625 182.761719 84.488281 183.042969 84.375 183.398438 C 84.261719 183.757812 84.148438 184.1875 84.035156 184.660156 C 83.902344 185.128906 83.773438 185.65625 83.640625 186.183594 C 83.527344 186.726562 83.394531 187.273438 83.28125 187.820312 C 83.058594 188.910156 82.925781 189.980469 82.871094 190.769531 C 82.832031 191.578125 82.90625 192.125 83.171875 192.199219 C 82.851562 192.652344 82.773438 194.363281 82.871094 194.777344 C 82.757812 195.640625 82.664062 196.320312 82.585938 196.882812 C 82.511719 197.445312 82.457031 197.9375 82.417969 198.40625 C 82.363281 198.875 82.324219 199.347656 82.285156 199.910156 C 82.25 200.472656 82.230469 201.152344 82.191406 201.996094 L 82.417969 201.058594 C 83 201.773438 83.019531 202.488281 82.925781 203.371094 C 82.832031 204.253906 82.566406 205.308594 82.644531 206.699219 L 82.511719 206.625 C 82.25 208.203125 82.191406 209.179688 82.191406 209.839844 C 82.191406 210.496094 82.230469 210.835938 82.304688 211.175781 C 82.363281 211.511719 82.417969 211.851562 82.417969 212.492188 C 82.417969 212.808594 82.398438 213.207031 82.34375 213.730469 C 82.304688 214.257812 82.265625 214.878906 82.171875 215.6875 L 82.925781 215.292969 C 83.359375 215.40625 83.527344 215.820312 83.566406 216.421875 C 83.621094 217.023438 83.527344 217.8125 83.414062 218.714844 C 83.320312 219.617188 83.207031 220.613281 83.1875 221.609375 C 83.1875 222.609375 83.28125 223.605469 83.566406 224.46875 C 83.640625 224.019531 83.734375 223.566406 83.828125 223.097656 C 84.242188 224.035156 83.902344 225.484375 83.472656 226.96875 C 83.074219 228.457031 82.585938 230 82.699219 231.011719 C 82.664062 231.484375 82.324219 230.375 82.097656 229.792969 C 82.171875 232.519531 82.472656 232.628906 82.871094 232.535156 C 83.265625 232.441406 83.773438 232.160156 84.355469 234.042969 C 84.167969 234.453125 83.773438 234.324219 83.488281 234.398438 C 83.339844 234.4375 83.226562 234.53125 83.1875 234.773438 C 83.152344 235.019531 83.171875 235.433594 83.320312 236.089844 C 83.300781 236.449219 83.527344 237.070312 83.867188 237.839844 C 84.222656 238.628906 84.710938 239.570312 85.21875 240.566406 C 85.484375 241.074219 85.746094 241.582031 85.992188 242.109375 C 86.121094 242.371094 86.234375 242.636719 86.347656 242.898438 C 86.460938 243.160156 86.574219 243.425781 86.6875 243.6875 C 86.894531 244.214844 87.082031 244.742188 87.214844 245.25 C 87.363281 245.757812 87.457031 246.246094 87.496094 246.714844 C 87.609375 245.8125 87.722656 244.929688 88.679688 246.527344 C 88.832031 246.847656 88.941406 247.203125 89.054688 247.597656 C 89.1875 247.976562 89.300781 248.390625 89.394531 248.820312 C 89.507812 249.253906 89.601562 249.707031 89.714844 250.15625 C 89.828125 250.609375 89.957031 251.058594 90.089844 251.511719 C 90.222656 251.960938 90.355469 252.414062 90.503906 252.847656 C 90.65625 253.277344 90.84375 253.671875 91.03125 254.070312 C 91.21875 254.445312 91.425781 254.800781 91.667969 255.101562 C 91.914062 255.402344 92.175781 255.667969 92.460938 255.875 C 92.515625 256.25 92.476562 256.417969 92.382812 256.476562 C 92.535156 256.699219 92.722656 256.964844 92.910156 257.246094 C 93.097656 257.527344 93.304688 257.828125 93.53125 258.167969 C 93.964844 258.808594 94.433594 259.523438 94.90625 260.179688 C 95.84375 261.515625 96.839844 262.699219 97.480469 263.058594 C 97.140625 263.828125 97.5 264.882812 98.175781 266.027344 C 98.871094 267.175781 99.886719 268.417969 100.902344 269.582031 C 101.410156 270.164062 101.917969 270.710938 102.390625 271.238281 C 102.859375 271.765625 103.253906 272.253906 103.574219 272.683594 C 104.210938 273.550781 104.476562 274.246094 103.96875 274.601562 C 104.308594 275.035156 104.664062 275.449219 105.019531 275.863281 C 105.378906 276.277344 105.71875 276.710938 106.09375 277.125 C 106.828125 277.949219 107.542969 278.777344 108.292969 279.585938 L 107.992188 279.625 C 110.683594 282.894531 112.1875 283.515625 113.632812 284.136719 C 114.199219 284.925781 113.539062 284.609375 113.390625 284.644531 C 113.898438 285.226562 114.347656 285.734375 114.761719 286.207031 C 115.175781 286.65625 115.550781 287.050781 115.910156 287.410156 C 116.605469 288.125 117.226562 288.667969 117.847656 289.140625 C 118.167969 289.382812 118.46875 289.609375 118.804688 289.816406 C 119.144531 290.023438 119.5 290.230469 119.894531 290.457031 C 120.292969 290.664062 120.703125 290.90625 121.195312 291.132812 C 121.683594 291.359375 122.210938 291.621094 122.792969 291.902344 L 122.699219 292.863281 C 123.054688 292.976562 123.621094 293.445312 124.351562 294.105469 C 124.710938 294.441406 125.144531 294.820312 125.59375 295.234375 C 125.820312 295.4375 126.0625 295.644531 126.308594 295.871094 C 126.554688 296.097656 126.816406 296.324219 127.078125 296.550781 C 129.203125 298.390625 131.96875 300.402344 134.828125 301.53125 C 134.734375 301.589844 134.546875 301.644531 134.074219 301.511719 C 134.46875 301.683594 134.863281 301.871094 135.261719 302.058594 C 135.65625 302.265625 136.070312 302.453125 136.464844 302.679688 C 136.859375 302.90625 137.273438 303.128906 137.667969 303.375 C 138.082031 303.601562 138.476562 303.84375 138.871094 304.089844 C 139.265625 304.335938 139.679688 304.597656 140.074219 304.84375 C 140.46875 305.085938 140.882812 305.332031 141.277344 305.574219 C 141.671875 305.820312 142.066406 306.082031 142.460938 306.308594 C 142.855469 306.535156 143.25 306.777344 143.628906 307.003906 C 144.398438 307.457031 145.152344 307.851562 145.882812 308.207031 C 146.242188 308.378906 146.597656 308.546875 146.9375 308.679688 C 147.277344 308.808594 147.613281 308.921875 147.953125 309.035156 C 148.613281 309.222656 149.214844 309.355469 149.757812 309.355469 C 150.304688 309.355469 150.792969 309.261719 151.226562 309.015625 L 152.335938 309.242188 L 153.445312 309.449219 C 154.175781 309.582031 154.910156 309.730469 155.664062 309.824219 C 154.984375 309.582031 154.515625 309.355469 154.175781 309.1875 C 153.839844 309.015625 153.652344 308.886719 153.574219 308.773438 C 153.40625 308.566406 153.671875 308.488281 154.027344 308.414062 C 154.742188 308.300781 155.851562 308.28125 154.835938 307.664062 C 155.097656 307.738281 155.382812 307.832031 155.664062 307.945312 C 155.945312 308.058594 156.226562 308.171875 156.507812 308.300781 C 157.054688 308.566406 157.5625 308.847656 157.902344 309.109375 C 158.257812 309.355469 158.464844 309.5625 158.410156 309.675781 C 158.351562 309.789062 158.050781 309.789062 157.375 309.617188 L 157.015625 309.335938 C 156.660156 309.617188 156.886719 309.9375 157.429688 310.257812 C 157.976562 310.578125 158.839844 310.878906 159.742188 311.199219 C 160.648438 311.5 161.585938 311.761719 162.265625 312.023438 C 162.601562 312.15625 162.882812 312.289062 163.074219 312.402344 C 163.261719 312.53125 163.335938 312.644531 163.296875 312.757812 C 166.0625 313.4375 168.828125 314.039062 171.574219 314.582031 C 172.269531 314.714844 172.945312 314.863281 173.640625 314.976562 C 174.335938 315.089844 175.011719 315.222656 175.710938 315.335938 C 176.40625 315.449219 177.082031 315.542969 177.777344 315.65625 C 178.117188 315.710938 178.472656 315.765625 178.8125 315.804688 C 179.152344 315.84375 179.507812 315.898438 179.847656 315.9375 C 180.183594 315.972656 180.542969 316.03125 180.878906 316.070312 C 181.21875 316.105469 181.578125 316.164062 181.914062 316.179688 C 182.609375 316.257812 183.289062 316.3125 183.964844 316.386719 C 184.640625 316.445312 185.335938 316.5 186.015625 316.539062 C 186.351562 316.558594 186.691406 316.59375 187.046875 316.613281 C 187.386719 316.632812 187.726562 316.652344 188.0625 316.652344 C 190.789062 316.800781 193.5 316.78125 196.1875 316.632812 C 195.753906 316.257812 195.324219 315.898438 194.890625 315.523438 C 195.511719 315.523438 196.132812 315.464844 196.734375 315.449219 C 197.355469 315.410156 197.972656 315.390625 198.578125 315.355469 C 199.066406 315.449219 199.421875 315.65625 199.308594 315.863281 C 199.253906 315.957031 199.085938 316.066406 198.765625 316.144531 C 198.445312 316.238281 197.972656 316.3125 197.296875 316.332031 C 198.03125 316.632812 199.121094 316.386719 200.0625 316.050781 C 200.289062 315.957031 200.511719 315.878906 200.71875 315.785156 C 200.925781 315.691406 201.097656 315.597656 201.246094 315.503906 C 201.546875 315.335938 201.734375 315.183594 201.753906 315.109375 C 203.050781 315.089844 203.597656 315.164062 203.691406 315.296875 C 203.785156 315.449219 203.445312 315.65625 202.976562 315.84375 C 202.054688 316.238281 200.664062 316.632812 201.472656 316.558594 L 203.632812 316.21875 L 203.128906 316.144531 C 203.972656 315.804688 204.40625 315.464844 205.046875 315.203125 C 205.363281 315.070312 205.722656 314.941406 206.191406 314.828125 C 206.664062 314.695312 207.265625 314.582031 208.054688 314.46875 C 209.070312 314.433594 209.351562 314.546875 209.484375 314.675781 C 209.613281 314.808594 209.597656 314.957031 209.992188 314.902344 C 210.007812 314.976562 210.273438 314.976562 211.195312 314.695312 C 212.738281 314.414062 214.277344 314.113281 215.820312 313.753906 C 215.125 313.605469 214.449219 313.453125 213.769531 313.285156 C 214.730469 312.816406 215.800781 312.570312 216.328125 312.382812 C 216.589844 312.289062 216.722656 312.195312 216.648438 312.101562 C 216.574219 312.007812 216.273438 311.914062 215.6875 311.78125 C 215.894531 311.835938 216.160156 311.875 216.441406 311.875 C 216.722656 311.875 217.0625 311.875 217.398438 311.835938 C 218.097656 311.78125 218.921875 311.667969 219.808594 311.460938 C 220.691406 311.273438 221.667969 311.046875 222.648438 310.746094 C 223.136719 310.597656 223.644531 310.445312 224.132812 310.296875 C 224.621094 310.125 225.128906 309.957031 225.617188 309.789062 C 227.609375 309.089844 229.511719 308.300781 231.050781 307.664062 C 231.824219 307.34375 232.480469 307.042969 233.027344 306.835938 C 233.574219 306.628906 233.984375 306.476562 234.230469 306.441406 C 234.8125 305.96875 235.414062 305.554688 236.035156 305.160156 C 236.65625 304.746094 237.296875 304.371094 237.953125 303.996094 C 239.269531 303.242188 240.699219 302.527344 242.261719 301.683594 C 241.828125 301.8125 241.375 301.703125 241.359375 301.402344 C 241.359375 301.25 241.453125 301.042969 241.734375 300.796875 C 241.863281 300.667969 242.054688 300.535156 242.277344 300.386719 C 242.503906 300.234375 242.785156 300.066406 243.125 299.894531 C 243.164062 300.496094 243.5 300.6875 244.046875 300.609375 C 244.59375 300.535156 245.34375 300.214844 246.171875 299.785156 C 246.585938 299.578125 247.019531 299.351562 247.46875 299.125 C 247.921875 298.898438 248.351562 298.65625 248.804688 298.449219 C 249.238281 298.242188 249.6875 298.070312 250.101562 297.921875 C 250.515625 297.789062 250.910156 297.695312 251.285156 297.675781 C 250.683594 297.769531 250.816406 297.507812 251.304688 297.054688 C 251.550781 296.832031 251.886719 296.566406 252.246094 296.265625 C 252.601562 295.964844 253.015625 295.644531 253.410156 295.328125 C 254.203125 294.6875 254.914062 294.027344 255.234375 293.613281 C 255.535156 293.183594 255.421875 292.996094 254.519531 293.21875 C 255.574219 292.523438 255.742188 292.65625 255.855469 292.882812 C 255.96875 293.089844 256.0625 293.410156 256.984375 292.996094 C 259.109375 290.777344 261.742188 288.6875 264.449219 286.394531 C 267.15625 284.101562 269.941406 281.5625 272.292969 278.589844 C 272.140625 278.308594 271.011719 278.984375 271.726562 277.480469 C 272.949219 276.785156 274.152344 276.050781 275.355469 275.300781 C 275.75 274.660156 275.640625 274.132812 275.734375 273.570312 C 275.769531 273.285156 275.863281 273.003906 276.109375 272.683594 C 276.335938 272.367188 276.710938 272.007812 277.3125 271.613281 C 276.898438 271.78125 276.257812 272.027344 276.765625 271.179688 C 279.210938 268.417969 281.335938 265.332031 283.21875 262.078125 C 285.097656 258.824219 286.734375 255.421875 288.199219 251.945312 C 289.6875 248.464844 291.003906 244.929688 292.320312 241.375 C 293.636719 237.820312 294.933594 234.265625 296.34375 230.710938 C 295.367188 232.59375 295.609375 231.238281 295.910156 229.714844 C 295.570312 230.675781 295.234375 229.546875 294.800781 229.660156 C 295.175781 228.683594 295.554688 227.683594 295.910156 226.6875 L 296.4375 225.183594 C 296.605469 224.675781 296.792969 224.1875 296.945312 223.679688 C 296.71875 223.359375 296.664062 222.777344 296.683594 222.082031 C 296.683594 221.910156 296.699219 221.722656 296.71875 221.535156 C 296.738281 221.347656 296.738281 221.160156 296.757812 220.953125 C 296.792969 220.558594 296.832031 220.164062 296.871094 219.75 C 296.90625 219.355469 296.964844 218.941406 296.984375 218.566406 C 297 218.1875 297.019531 217.832031 297.019531 217.511719 C 297 216.871094 296.925781 216.402344 296.683594 216.214844 L 296.699219 218.1875 C 296.210938 216.816406 295.460938 217.679688 294.632812 218.789062 C 293.785156 219.898438 292.863281 221.214844 292.113281 220.933594 C 292.355469 221.6875 292.28125 222.496094 292.074219 223.378906 C 291.847656 224.261719 291.433594 225.203125 291.058594 226.179688 C 290.851562 226.667969 290.644531 227.175781 290.476562 227.703125 C 290.382812 227.96875 290.308594 228.230469 290.230469 228.492188 C 290.15625 228.757812 290.082031 229.019531 290.007812 229.300781 C 289.875 229.847656 289.78125 230.410156 289.761719 230.996094 C 289.722656 231.578125 289.742188 232.179688 289.855469 232.800781 C 289.308594 233.722656 289.574219 231.839844 289.101562 232.273438 C 289.292969 232.914062 289.347656 233.589844 289.199219 234.417969 C 289.121094 234.832031 289.007812 235.28125 288.859375 235.769531 C 288.707031 236.277344 288.484375 236.804688 288.238281 237.425781 L 288.164062 237.085938 C 288.03125 237.539062 287.917969 237.953125 287.804688 238.367188 C 287.675781 238.78125 287.542969 239.175781 287.429688 239.550781 C 287.296875 239.925781 287.183594 240.304688 287.054688 240.660156 C 286.941406 241.019531 286.789062 241.375 286.660156 241.714844 C 286.527344 242.050781 286.394531 242.390625 286.265625 242.710938 C 286.132812 243.03125 286 243.347656 285.851562 243.667969 C 285.566406 244.289062 285.285156 244.910156 285.003906 245.53125 C 283.800781 247.996094 282.445312 250.496094 280.398438 254.050781 L 281.355469 253.863281 C 280.921875 254.632812 280.585938 255.066406 280.300781 255.382812 C 280.019531 255.703125 279.777344 255.929688 279.511719 256.25 C 279.550781 257.414062 280.152344 256.34375 280.773438 255.234375 C 281.09375 254.6875 281.375 254.105469 281.636719 253.824219 C 281.882812 253.542969 282.089844 253.542969 282.164062 254.085938 C 280.960938 254.800781 279.492188 257.566406 277.914062 260.140625 C 276.351562 262.738281 274.660156 265.144531 273.476562 265.277344 C 271.914062 267.496094 274.660156 265.125 273.101562 267.34375 L 272.292969 267.644531 L 272.386719 268.566406 C 272.105469 268.90625 271.820312 269.1875 271.558594 269.414062 C 271.296875 269.640625 271.050781 269.789062 270.824219 269.921875 C 270.375 270.148438 270.035156 270.183594 269.847656 270.089844 C 270.148438 269.769531 270.503906 269.054688 270.75 268.660156 C 270.28125 269.035156 269.828125 269.542969 269.375 270.109375 C 268.925781 270.671875 268.472656 271.273438 268.058594 271.875 C 267.648438 272.460938 267.269531 273.003906 266.949219 273.4375 C 266.632812 273.871094 266.367188 274.191406 266.21875 274.300781 C 266.855469 273.699219 267.496094 273.117188 268.117188 272.515625 C 265.953125 275.507812 263.113281 278.496094 260.199219 281.335938 C 259.84375 281.691406 259.464844 282.050781 259.089844 282.386719 C 258.714844 282.746094 258.355469 283.085938 258 283.441406 C 257.625 283.78125 257.265625 284.117188 256.890625 284.457031 C 256.53125 284.796875 256.175781 285.132812 255.800781 285.472656 C 255.066406 286.128906 254.371094 286.808594 253.675781 287.464844 C 253.335938 287.785156 252.996094 288.125 252.660156 288.445312 C 252.320312 288.761719 252 289.082031 251.679688 289.402344 L 252.339844 289.367188 C 251.851562 289.855469 251.417969 290.25 251.023438 290.585938 C 250.628906 290.90625 250.289062 291.1875 249.988281 291.414062 C 249.667969 291.640625 249.40625 291.828125 249.125 291.980469 C 248.859375 292.128906 248.597656 292.28125 248.335938 292.410156 C 247.28125 292.957031 246.171875 293.519531 243.707031 295.25 L 243.839844 295.0625 C 243.425781 295.535156 242.898438 296.042969 242.277344 296.492188 C 241.976562 296.71875 241.640625 296.945312 241.300781 297.167969 C 241.132812 297.28125 240.960938 297.394531 240.773438 297.488281 C 240.605469 297.582031 240.417969 297.695312 240.230469 297.789062 C 240.792969 297.226562 240.058594 297.394531 239.382812 297.546875 C 238.707031 297.675781 238.085938 297.769531 238.835938 297.09375 C 238.535156 297.320312 238.273438 297.507812 238.011719 297.695312 C 237.765625 297.863281 237.539062 298.035156 237.332031 298.164062 C 236.917969 298.449219 236.617188 298.691406 236.375 298.878906 C 235.886719 299.277344 235.640625 299.464844 235.472656 299.6875 C 235.300781 299.894531 235.207031 300.085938 234.964844 300.421875 C 234.71875 300.742188 234.34375 301.230469 233.570312 301.945312 L 232.480469 301.777344 C 231.992188 302.320312 231.730469 302.640625 231.257812 303.019531 C 230.789062 303.394531 230.113281 303.828125 228.71875 304.464844 C 229.773438 303.75 229.246094 303.730469 228.738281 303.65625 C 228.230469 303.601562 227.761719 303.488281 228.910156 302.660156 C 228.117188 302.8125 227.402344 303 226.726562 303.1875 C 226.070312 303.375 225.449219 303.601562 224.882812 303.828125 C 224.320312 304.050781 223.792969 304.277344 223.304688 304.523438 C 222.816406 304.746094 222.363281 304.992188 221.933594 305.199219 C 221.5 305.40625 221.085938 305.613281 220.691406 305.78125 C 220.296875 305.953125 219.902344 306.101562 219.523438 306.175781 C 218.753906 306.363281 217.984375 306.382812 217.175781 306.121094 C 216.589844 306.703125 216.628906 306.964844 217.023438 307.042969 C 217.210938 307.078125 217.492188 307.0625 217.8125 307.023438 C 218.132812 306.964844 218.492188 306.890625 218.867188 306.796875 C 219.242188 306.703125 219.617188 306.589844 219.957031 306.496094 C 220.316406 306.402344 220.617188 306.289062 220.859375 306.214844 C 221.347656 306.0625 221.574219 306.007812 221.199219 306.234375 C 221.933594 306.289062 221.460938 306.761719 220.539062 307.285156 C 220.089844 307.550781 219.507812 307.8125 218.921875 308.039062 C 218.640625 308.152344 218.339844 308.246094 218.058594 308.339844 C 217.777344 308.414062 217.492188 308.488281 217.25 308.527344 C 216.761719 308.660156 216.253906 308.640625 215.726562 308.582031 C 215.199219 308.527344 214.617188 308.378906 213.941406 308.28125 C 213.601562 308.226562 213.242188 308.1875 212.867188 308.152344 C 212.492188 308.113281 212.058594 308.09375 211.625 308.09375 C 211.175781 308.09375 210.6875 308.113281 210.160156 308.171875 C 209.632812 308.226562 209.070312 308.300781 208.449219 308.414062 C 208.9375 308.320312 208.957031 308.1875 209.445312 308.113281 C 208.46875 308.078125 207.601562 308.414062 206.644531 308.660156 C 206.171875 308.789062 205.683594 308.921875 205.15625 308.996094 C 204.632812 309.054688 204.085938 309.074219 203.484375 308.980469 C 203.203125 309.28125 202.863281 309.449219 202.523438 309.542969 C 202.1875 309.636719 201.828125 309.695312 201.527344 309.730469 C 200.890625 309.824219 200.382812 309.9375 200.269531 310.597656 L 202.582031 310.183594 L 204.875 309.710938 C 204.238281 309.882812 203.617188 310.125 202.957031 310.40625 C 202.316406 310.671875 201.640625 310.933594 200.90625 311.199219 C 200.175781 311.460938 199.382812 311.648438 198.480469 311.761719 C 197.597656 311.894531 196.601562 311.894531 195.492188 311.800781 C 195.832031 311.515625 197.109375 311.105469 197.972656 310.839844 C 197.316406 310.707031 196.714844 310.804688 196.09375 310.898438 C 195.472656 310.992188 194.851562 311.105469 194.175781 310.933594 C 194.25 310.597656 194.644531 310.425781 195.230469 310.277344 C 195.8125 310.144531 196.601562 310.070312 197.449219 309.996094 C 198.292969 309.898438 199.234375 309.804688 200.117188 309.675781 C 201 309.503906 201.847656 309.296875 202.507812 308.960938 C 202.148438 308.867188 201.660156 308.902344 201.132812 309.015625 C 200.605469 309.109375 200.042969 309.28125 199.554688 309.375 C 198.59375 309.582031 197.957031 309.65625 198.59375 308.902344 C 197.671875 309.882812 196.414062 309.898438 194.984375 309.882812 C 194.269531 309.863281 193.515625 309.824219 192.726562 309.882812 C 192.332031 309.917969 191.9375 309.957031 191.523438 310.050781 C 191.109375 310.125 190.695312 310.257812 190.265625 310.425781 L 190.488281 309.65625 C 189.945312 309.789062 188.835938 310.144531 187.839844 310.105469 L 189.644531 309.128906 C 188.949219 309.335938 188.269531 309.390625 187.613281 309.355469 C 186.9375 309.335938 186.296875 309.1875 185.636719 309.054688 C 185.320312 308.980469 185 308.902344 184.660156 308.847656 C 184.339844 308.773438 184.019531 308.695312 183.703125 308.640625 C 183.0625 308.527344 182.402344 308.472656 181.746094 308.546875 C 184.492188 308.714844 184.792969 308.960938 184.679688 309.261719 C 184.585938 309.5625 184.058594 309.917969 185.222656 310.238281 C 184.359375 310.351562 183.644531 310.351562 183.0625 310.332031 C 182.460938 310.3125 181.988281 310.257812 181.59375 310.144531 C 180.785156 309.9375 180.296875 309.617188 179.789062 309.28125 C 179.28125 308.941406 178.738281 308.566406 177.871094 308.246094 C 176.988281 307.945312 175.785156 307.644531 173.902344 307.457031 C 174.410156 307.492188 175.351562 307.71875 175.953125 307.980469 C 176.554688 308.246094 176.835938 308.507812 176.011719 308.582031 C 175.652344 308.488281 175.277344 308.394531 174.882812 308.28125 C 174.488281 308.171875 174.109375 308.058594 173.734375 307.925781 C 173 307.664062 172.34375 307.363281 171.929688 307.097656 C 169.445312 306.722656 169.597656 306.949219 170.105469 307.285156 C 170.613281 307.625 171.460938 308.078125 170.351562 308.09375 C 169.597656 307.472656 168.957031 307.457031 168.242188 307.550781 C 167.886719 307.605469 167.492188 307.679688 167.058594 307.738281 C 166.832031 307.773438 166.609375 307.792969 166.363281 307.792969 C 166.117188 307.792969 165.855469 307.792969 165.574219 307.757812 L 165.742188 306.984375 C 165.046875 306.761719 164.5 306.589844 164.070312 306.496094 C 163.636719 306.382812 163.316406 306.347656 163.054688 306.328125 C 162.546875 306.308594 162.320312 306.460938 162.113281 306.609375 C 161.90625 306.761719 161.71875 306.910156 161.285156 306.910156 C 160.851562 306.890625 160.15625 306.703125 158.933594 306.175781 L 161.359375 305.761719 C 160.476562 305.59375 159.574219 305.445312 158.671875 305.253906 C 158.933594 305.03125 159.199219 304.804688 159.460938 304.578125 C 158.710938 304.523438 158.109375 304.429688 157.5625 304.335938 C 157.300781 304.277344 157.035156 304.238281 156.792969 304.164062 C 156.546875 304.109375 156.320312 304.03125 156.09375 303.957031 C 155.644531 303.808594 155.191406 303.621094 154.703125 303.414062 C 154.214844 303.1875 153.667969 302.921875 153.03125 302.605469 C 153.238281 302.980469 153.03125 303.28125 152.464844 303.375 C 151.882812 303.46875 150.960938 303.335938 149.757812 302.847656 C 149.402344 302.585938 149.289062 302.414062 149.289062 302.320312 C 149.289062 302.226562 149.363281 302.171875 149.402344 302.132812 C 149.457031 302.039062 149.269531 301.90625 147.578125 301.230469 C 148.046875 301.175781 148.554688 301.097656 149.082031 301.195312 C 149.34375 301.25 149.609375 301.324219 149.890625 301.496094 C 150.171875 301.644531 150.453125 301.871094 150.753906 302.191406 C 151 302.019531 151.695312 302.039062 151.941406 301.871094 C 151.167969 301.269531 150.097656 300.816406 149.082031 300.386719 C 148.574219 300.179688 148.066406 300.007812 147.613281 299.839844 C 147.164062 299.671875 146.769531 299.519531 146.488281 299.371094 C 146.9375 299.613281 147.445312 299.894531 147.691406 300.140625 C 146.824219 299.933594 145.960938 299.726562 145.09375 299.519531 C 144.230469 299.292969 143.363281 299.070312 142.5 298.824219 C 141.898438 298.164062 142.59375 298.277344 143.269531 298.371094 C 142.78125 298.164062 142.332031 298.054688 141.824219 297.902344 C 141.316406 297.753906 140.75 297.582031 140.054688 297.226562 C 140.714844 296.867188 140.9375 296.265625 143.027344 297.019531 C 142.238281 296.738281 141.445312 296.472656 140.675781 296.152344 C 139.90625 295.851562 139.113281 295.550781 138.34375 295.230469 C 138.269531 295.027344 137.816406 294.535156 137.480469 294.121094 C 137.121094 293.710938 136.894531 293.332031 137.234375 293.410156 C 136.707031 292.957031 136.050781 292.582031 135.296875 292.222656 C 134.5625 291.847656 133.753906 291.507812 132.929688 291.113281 C 131.292969 290.34375 129.542969 289.460938 128.246094 288.144531 C 128.019531 288.125 127.644531 287.992188 126.964844 287.578125 C 126.308594 287.015625 125.707031 286.433594 125.125 285.847656 C 124.539062 285.246094 123.957031 284.644531 123.355469 284.0625 C 122.753906 283.460938 122.113281 282.878906 121.417969 282.292969 C 121.0625 281.992188 120.703125 281.710938 120.308594 281.429688 C 120.121094 281.277344 119.914062 281.148438 119.707031 281.015625 C 119.5 280.882812 119.292969 280.734375 119.070312 280.601562 L 118.636719 279.378906 L 118.429688 278.777344 L 118.242188 278.15625 C 117.039062 277.125 117.320312 277.914062 117.414062 278.550781 C 117.507812 279.191406 117.394531 279.660156 115.382812 277.875 C 113.953125 276.617188 113.898438 276.183594 114.105469 275.917969 C 114.3125 275.65625 114.800781 275.582031 114.480469 274.980469 C 114.066406 274.734375 113.558594 274.433594 113.011719 274.078125 C 112.46875 273.71875 111.902344 273.304688 111.320312 272.816406 C 110.175781 271.839844 109.0625 270.542969 108.40625 268.867188 C 108.839844 269.261719 109.160156 269.65625 109.460938 270.050781 C 109.761719 270.691406 110.0625 271.085938 110.4375 271.480469 Z M 91.78125 236.878906 C 91.972656 237.21875 92.289062 237.726562 92.535156 238.234375 C 92.796875 238.722656 92.96875 239.210938 92.835938 239.550781 C 92.273438 239.269531 92.046875 238.929688 91.933594 238.515625 C 91.820312 238.066406 91.839844 237.539062 91.78125 236.878906 Z M 90.523438 176.894531 C 90.597656 177.53125 90.222656 178.339844 89.640625 179.242188 C 89.789062 178.511719 90.050781 177.71875 90.523438 176.894531 Z M 230.28125 106.675781 C 230.242188 106.675781 230.226562 106.675781 230.1875 106.675781 C 229.792969 106.429688 229.527344 106.28125 229.378906 106.1875 C 229.226562 106.09375 229.171875 106.074219 229.226562 106.09375 C 229.285156 106.128906 229.71875 106.355469 230.28125 106.675781 Z M 233.667969 108.460938 C 234.0625 108.519531 234.078125 108.40625 233.984375 108.234375 C 233.667969 108.3125 232.875 107.972656 231.992188 107.539062 C 232.160156 107.839844 232.539062 108.179688 233.667969 108.460938 Z M 210.292969 314.675781 L 209.519531 314.621094 C 211.117188 314.074219 210.707031 314.355469 210.292969 314.675781 Z M 210.292969 314.675781 " fill-opacity="1" fill-rule="nonzero"/></g><path fill="#ff914d" d="M 89.714844 183.851562 C 89.527344 184.039062 89.375 184.058594 89.226562 184.078125 C 89.28125 184.394531 89.414062 184.433594 89.714844 183.851562 Z M 89.714844 183.851562 " fill-opacity="1" fill-rule="nonzero"/><path fill="#ff914d" d="M 128.1875 288.273438 C 128.207031 288.3125 128.246094 288.332031 128.28125 288.351562 C 128.359375 288.351562 128.414062 288.332031 128.472656 288.3125 Z M 128.1875 288.273438 " fill-opacity="1" fill-rule="nonzero"/><path fill="#ff914d" d="M 176.875 106.582031 C 176.5 106.5625 176.21875 106.542969 175.972656 106.507812 C 175.726562 106.46875 175.558594 106.429688 175.410156 106.375 C 175.410156 106.46875 175.484375 106.542969 175.710938 106.582031 C 175.953125 106.617188 176.328125 106.617188 176.875 106.582031 Z M 176.875 106.582031 " fill-opacity="1" fill-rule="nonzero"/><path fill="#ff914d" d="M 251.980469 117.207031 C 251.269531 116.792969 250.554688 116.398438 249.820312 116.003906 C 250.835938 116.621094 251.097656 117 251.511719 117.449219 C 251.585938 117.261719 251.34375 116.773438 251.980469 117.207031 Z M 251.980469 117.207031 " fill-opacity="1" fill-rule="nonzero"/><path fill="#ff914d" d="M 264.863281 134.355469 C 265.164062 134.542969 265.371094 134.863281 265.691406 135.050781 L 265.878906 134.730469 C 264.84375 133.699219 263.90625 133.171875 264.863281 134.355469 Z M 264.863281 134.355469 " fill-opacity="1" fill-rule="nonzero"/><path fill="#ff914d" d="M 252.320312 120.628906 C 252.207031 120.949219 252.488281 121.285156 252.960938 121.664062 C 253.203125 121.851562 253.503906 122.039062 253.824219 122.246094 C 254.144531 122.453125 254.484375 122.679688 254.839844 122.902344 C 254.765625 122.847656 254.671875 122.789062 254.597656 122.714844 C 255.066406 122.507812 254.914062 122.1875 254.425781 121.8125 C 253.957031 121.4375 253.128906 121.042969 252.320312 120.628906 Z M 252.320312 120.628906 " fill-opacity="1" fill-rule="nonzero"/><path fill="#ff914d" d="M 255.179688 123.128906 C 255.613281 123.429688 256.042969 123.730469 256.421875 124.070312 C 256.796875 123.902344 255.96875 123.597656 255.179688 123.128906 Z M 255.179688 123.128906 " fill-opacity="1" fill-rule="nonzero"/><path fill="#ff914d" d="M 238.21875 110.136719 C 238.875 110.644531 239.042969 109.609375 239.34375 110.058594 C 239.945312 109.890625 238.613281 109.515625 237.652344 109.363281 C 237.183594 109.289062 236.789062 109.308594 236.789062 109.402344 C 236.789062 109.515625 237.183594 109.722656 238.21875 110.136719 Z M 238.21875 110.136719 " fill-opacity="1" fill-rule="nonzero"/><path fill="#ff914d" d="M 252.132812 123.1875 L 252.132812 122.171875 L 251.003906 122.152344 Z M 252.132812 123.1875 " fill-opacity="1" fill-rule="nonzero"/><path fill="#ff914d" d="M 241.488281 115.570312 C 241.847656 115.8125 242.222656 116.058594 242.578125 116.320312 L 243.671875 117.09375 C 243.707031 116.960938 244.027344 117.054688 244.421875 117.226562 C 243.726562 116.792969 243.011719 116.320312 242.46875 115.984375 C 241.902344 115.644531 241.507812 115.457031 241.488281 115.570312 Z M 241.488281 115.570312 " fill-opacity="1" fill-rule="nonzero"/><path fill="#ff914d" d="M 244.421875 117.226562 C 245.136719 117.675781 245.832031 118.109375 246.304688 118.238281 C 245.910156 117.996094 245.0625 117.488281 244.421875 117.226562 Z M 244.421875 117.226562 " fill-opacity="1" fill-rule="nonzero"/><path fill="#ff914d" d="M 249.066406 121.285156 C 248.878906 121.097656 248.710938 120.890625 248.523438 120.703125 L 247 119.632812 L 248.035156 120.460938 L 248.558594 120.871094 Z M 249.066406 121.285156 " fill-opacity="1" fill-rule="nonzero"/><path fill="#ff914d" d="M 215.050781 104.945312 L 213.621094 104.71875 C 213.132812 104.644531 212.660156 104.585938 212.171875 104.53125 C 211.832031 104.738281 212.566406 105.078125 213.640625 105.207031 C 214.355469 105.152344 215.425781 105.300781 215.050781 104.945312 Z M 215.050781 104.945312 " fill-opacity="1" fill-rule="nonzero"/><path fill="#ff914d" d="M 222.777344 109.496094 C 222.101562 109.101562 222.101562 108.914062 221.78125 108.519531 L 221.386719 109.457031 Z M 222.777344 109.496094 " fill-opacity="1" fill-rule="nonzero"/><path fill="#ff914d" d="M 214.765625 107.410156 C 214.597656 107.503906 213.542969 107.464844 212.980469 107.484375 C 212.417969 107.519531 212.339844 107.597656 214.070312 107.992188 C 214.242188 107.898438 215.03125 107.953125 215.464844 107.933594 C 215.6875 107.933594 215.800781 107.898438 215.726562 107.820312 C 215.6875 107.785156 215.59375 107.726562 215.445312 107.652344 C 215.292969 107.597656 215.066406 107.519531 214.765625 107.410156 Z M 214.765625 107.410156 " fill-opacity="1" fill-rule="nonzero"/><path fill="#ff914d" d="M 172.15625 104.476562 L 172.871094 104.34375 L 172.511719 102.726562 Z M 172.15625 104.476562 " fill-opacity="1" fill-rule="nonzero"/><path fill="#ff914d" d="M 138.511719 120.816406 C 138.890625 120.648438 139.171875 120.515625 139.398438 120.382812 C 139.621094 120.269531 139.773438 120.160156 139.867188 120.0625 C 140.074219 119.875 140.09375 119.726562 140.09375 119.574219 C 140.113281 119.292969 140.09375 119.03125 141.523438 118.523438 C 141.765625 118.164062 141.183594 118.351562 140.601562 118.578125 C 140.015625 118.785156 139.453125 119.011719 139.714844 118.671875 C 139.320312 119.011719 138.984375 119.273438 138.683594 119.5 C 138.398438 119.726562 138.175781 119.914062 138.023438 120.0625 C 137.761719 120.382812 137.855469 120.570312 138.511719 120.816406 Z M 138.511719 120.816406 " fill-opacity="1" fill-rule="nonzero"/><path fill="#ff914d" d="M 139.734375 118.652344 C 139.980469 118.445312 140.242188 118.203125 140.507812 117.9375 C 140.035156 118.316406 139.847656 118.523438 139.734375 118.652344 Z M 139.734375 118.652344 " fill-opacity="1" fill-rule="nonzero"/><path fill="#ff914d" d="M 298.355469 219.75 C 298.5625 219.015625 298.730469 218.265625 298.917969 217.511719 L 298.242188 218.921875 C 298.28125 219.203125 298.300781 219.46875 298.355469 219.75 Z M 298.355469 219.75 " fill-opacity="1" fill-rule="nonzero"/><path fill="#ff914d" d="M 297.507812 215.3125 L 298.601562 214.839844 L 297.734375 213.429688 C 297.734375 213.9375 297.753906 214.933594 297.507812 215.3125 Z M 297.507812 215.3125 " fill-opacity="1" fill-rule="nonzero"/><path fill="#ff914d" d="M 92.347656 230.695312 L 92.066406 230.601562 C 91.875 230.976562 91.972656 231.445312 92.160156 232.425781 Z M 92.347656 230.695312 " fill-opacity="1" fill-rule="nonzero"/><path fill="#ff914d" d="M 101.824219 257.246094 L 101.597656 256.8125 L 101.222656 258.09375 Z M 101.824219 257.246094 " fill-opacity="1" fill-rule="nonzero"/><path fill="#ff914d" d="M 116.738281 275.636719 C 116.4375 275.261719 116.042969 274.921875 115.644531 274.566406 C 115.269531 274.207031 114.894531 273.832031 114.574219 273.457031 C 116.097656 274.921875 116.042969 276.632812 116.738281 275.636719 Z M 116.738281 275.636719 " fill-opacity="1" fill-rule="nonzero"/><path fill="#ff914d" d="M 369.777344 174.976562 C 359.847656 174.976562 360.976562 185.769531 330.042969 185.769531 C 302.511719 185.769531 269.921875 181.046875 245.289062 181.046875 C 229.867188 181.046875 216.949219 186.050781 206.492188 193.742188 C 205.628906 184.207031 204.140625 178.867188 203.503906 176.140625 C 202.316406 171.0625 197.335938 171.910156 195.945312 175.125 C 195.945312 175.144531 195.945312 175.144531 195.925781 175.144531 C 195.925781 175.144531 195.925781 175.164062 195.925781 175.164062 C 194.945312 177.496094 186.972656 208.183594 179.996094 208.183594 C 175.484375 208.183594 178.078125 191.769531 178.078125 182.382812 C 178.078125 179.734375 176.855469 178.210938 175.277344 177.496094 C 175.296875 177.476562 175.296875 177.476562 175.3125 177.457031 C 174.582031 177.136719 173.753906 176.988281 172.964844 176.988281 C 170.933594 176.949219 168.957031 177.851562 168.488281 179.207031 C 168.226562 179.957031 167.980469 180.804688 167.753906 181.746094 C 163.355469 186.613281 154.347656 193.347656 133.753906 193.347656 C 104.496094 193.347656 57.59375 181.238281 33.863281 181.238281 C 17.222656 181.238281 0.015625 183.664062 0.015625 193.460938 C 0.015625 196.429688 2.363281 197.992188 5.222656 197.992188 C 15.152344 197.992188 14.023438 187.199219 44.957031 187.199219 C 72.488281 187.199219 105.078125 197.257812 129.710938 197.257812 C 149.25 197.257812 160.742188 192.238281 166.871094 187.179688 C 165.703125 198.199219 167.625 213.394531 178.210938 213.394531 C 187.199219 213.394531 193.613281 192.050781 195.832031 184.621094 C 195.960938 189.625 196.09375 196.375 196.113281 202.976562 C 181.050781 219.167969 173.527344 240.867188 173.527344 255.742188 C 173.527344 265.089844 177.289062 266.949219 181.050781 266.949219 C 197.355469 266.949219 207.132812 227.234375 207.132812 208.9375 C 207.132812 204.78125 207 201.074219 206.8125 197.804688 C 216.214844 190.054688 228.289062 184.921875 243.292969 184.921875 C 272.554688 184.921875 317.386719 191.691406 341.117188 191.691406 C 357.761719 191.691406 374.96875 189.265625 374.96875 179.46875 C 374.984375 176.554688 372.617188 174.976562 369.777344 174.976562 Z M 181.238281 259.164062 C 180.671875 259.164062 180.128906 257.8125 180.128906 254.988281 C 180.128906 242.164062 185.09375 223.886719 196.039062 209.238281 C 194.984375 234.003906 184.210938 259.164062 181.238281 259.164062 Z M 181.238281 259.164062 " fill-opacity="1" fill-rule="nonzero"/></svg>